{"glyphs":{"0":{"ha":988,"x_min":35,"x_max":946,"o":"m 946 519 q 926 283 946 386 q 858 110 907 181 q 725 2 810 39 q 508 -35 640 -35 q 315 -11 403 -35 q 165 69 228 13 q 69 222 103 126 q 35 463 35 318 q 60 721 35 607 q 142 914 86 835 q 289 1035 199 993 q 508 1076 379 1076 q 716 1039 632 1076 q 851 931 800 1001 q 924 756 901 860 q 946 519 946 653 m 401 524 q 403 456 401 489 q 415 400 406 424 q 444 362 425 376 q 497 347 463 347 q 553 361 533 347 q 582 399 572 375 q 593 455 592 422 q 594 526 594 488 q 575 646 594 604 q 492 688 556 688 q 419 641 438 688 q 401 524 401 594 z "},"1":{"ha":1114,"x_min":44,"x_max":1079,"o":"m 1031 306 q 1053 263 1044 289 q 1068 207 1063 236 q 1076 149 1074 178 q 1079 100 1079 121 q 1075 36 1079 68 q 1058 -25 1071 4 q 904 -44 992 -39 q 723 -49 817 -49 q 538 -49 629 -50 q 376 -47 447 -47 q 225 -44 301 -47 q 76 -22 149 -42 q 51 60 57 14 q 44 147 44 107 q 50 226 44 183 q 71 300 56 268 q 86 302 78 301 q 101 303 94 303 q 214 299 158 303 q 325 296 269 296 q 362 297 342 296 q 397 304 382 297 q 424 340 415 314 q 435 396 432 365 q 437 456 438 426 q 436 501 436 485 l 436 576 q 435 607 436 588 q 431 645 435 626 q 419 678 428 664 q 394 692 411 692 q 315 689 367 692 q 214 686 263 686 q 167 688 189 686 q 131 692 146 689 q 89 737 101 700 q 72 822 76 774 q 69 923 68 871 q 71 1014 71 975 q 71 1026 71 1021 q 72 1039 71 1032 q 115 1058 81 1050 q 201 1072 150 1065 q 313 1082 251 1078 q 434 1089 374 1086 q 549 1093 494 1092 q 640 1094 603 1094 q 778 1052 739 1094 q 817 915 817 1010 q 814 628 817 768 q 811 342 811 489 q 818 303 811 311 q 858 296 825 296 q 944 299 900 296 q 1031 306 989 303 z "},"2":{"ha":1147,"x_min":42,"x_max":1104,"o":"m 1058 310 q 1088 247 1078 289 q 1101 160 1097 206 q 1103 71 1104 114 q 1099 3 1103 28 q 1096 1 1096 1 q 1006 -27 1054 -15 q 892 -46 957 -39 q 744 -56 828 -53 q 549 -58 660 -58 q 301 -54 399 -58 q 145 -30 203 -50 q 65 31 88 -10 q 42 143 42 71 q 69 231 42 189 q 140 309 97 272 q 237 379 183 346 q 340 442 290 413 q 414 488 379 464 q 474 538 449 513 q 515 585 500 563 q 531 629 531 608 q 503 683 531 661 q 418 706 476 706 q 326 701 375 706 q 234 689 278 696 q 156 675 190 682 q 104 665 121 668 q 73 733 83 690 q 60 824 63 776 q 63 916 58 871 q 74 990 67 961 q 163 1040 111 1022 q 269 1069 214 1058 q 378 1082 325 1079 q 469 1085 431 1085 q 674 1064 578 1085 q 842 1000 769 1043 q 956 890 914 957 q 997 732 997 824 q 971 592 997 650 q 905 495 944 535 q 820 431 865 456 q 739 390 775 407 q 667 355 696 371 q 639 318 639 339 q 659 285 639 294 q 711 275 679 275 q 798 278 751 275 q 881 290 844 281 q 952 308 917 300 q 1024 315 988 315 q 1058 310 1043 315 z "},"3":{"ha":1038,"x_min":75,"x_max":1004,"o":"m 828 585 q 820 560 821 576 q 831 536 819 543 q 881 508 851 524 q 938 467 911 493 q 985 401 965 442 q 1004 296 1004 360 q 883 37 1004 119 q 501 -46 761 -46 q 394 -40 456 -46 q 272 -25 332 -35 q 163 -2 213 -15 q 89 26 113 11 q 78 100 81 60 q 78 181 75 140 q 90 260 81 222 q 113 328 99 299 q 190 321 146 331 q 286 300 233 311 q 398 278 339 289 q 521 268 457 268 q 565 274 543 268 q 605 290 588 279 q 633 317 622 301 q 644 353 644 332 q 610 399 644 388 q 513 418 575 411 q 476 419 503 419 q 421 418 450 418 q 365 419 392 418 q 329 422 339 419 q 308 519 313 465 q 321 615 303 572 q 382 632 339 622 q 469 655 425 642 q 548 683 514 668 q 582 714 582 699 q 556 735 582 728 q 496 747 531 743 q 424 751 461 750 q 364 751 388 751 q 253 742 313 751 q 135 718 193 733 q 108 785 121 746 q 88 867 94 825 q 82 948 81 908 q 97 1015 83 988 q 195 1045 135 1035 q 320 1060 256 1056 q 443 1067 385 1065 q 536 1068 501 1068 q 706 1049 629 1068 q 836 994 782 1031 q 920 907 890 958 q 950 790 950 856 q 913 653 950 701 q 828 585 876 606 z "},"4":{"ha":1126,"x_min":29,"x_max":1099,"o":"m 482 1081 q 565 1090 514 1088 q 673 1091 617 1093 q 781 1081 729 1089 q 863 1058 832 1074 q 890 937 886 1014 q 894 765 894 860 q 894 715 894 746 q 892 651 893 683 q 890 587 890 618 q 889 536 889 556 q 895 501 889 513 q 938 489 901 489 q 1001 494 972 489 q 1063 501 1031 500 q 1094 347 1090 428 q 1085 204 1099 265 q 1022 201 1057 196 q 957 206 988 206 q 931 203 942 206 q 919 193 919 201 q 924 174 919 183 q 933 150 928 165 q 942 110 938 135 q 946 43 946 85 q 940 13 946 28 q 922 -12 933 -1 q 835 -33 885 -25 q 735 -42 786 -40 q 639 -40 685 -44 q 563 -22 593 -35 q 554 18 554 -6 q 559 96 554 61 q 564 174 564 131 q 549 199 564 193 q 507 206 535 206 q 394 203 449 206 q 286 200 340 201 q 177 199 232 199 q 63 206 122 200 q 33 311 36 257 q 43 436 29 365 q 48 447 46 442 q 53 458 50 451 q 94 554 68 499 q 154 671 121 610 q 228 795 188 732 q 311 914 268 858 q 398 1013 354 969 q 482 1081 442 1057 m 406 503 q 416 480 406 488 q 458 472 426 472 q 515 478 494 472 q 547 498 536 485 q 560 531 557 511 q 564 581 564 551 q 561 682 564 653 q 531 711 558 711 q 495 685 517 711 q 453 624 474 658 q 419 554 433 589 q 406 503 406 519 z "},"5":{"ha":1083,"x_min":25,"x_max":1044,"o":"m 64 63 q 53 128 56 90 q 53 205 50 165 q 65 283 57 244 q 86 350 74 321 q 94 351 89 351 q 192 345 140 351 q 298 331 244 339 q 405 316 351 322 q 507 310 458 310 q 552 313 528 310 q 598 323 576 315 q 633 343 619 331 q 647 375 647 356 q 620 441 647 424 q 519 458 593 458 q 457 455 488 458 q 397 447 426 451 q 338 438 367 442 q 281 435 308 435 q 188 455 228 435 q 120 508 149 475 q 73 585 92 542 q 44 672 54 628 q 29 761 33 717 q 25 840 25 806 q 28 892 25 865 q 40 942 31 918 q 65 985 49 965 q 106 1017 81 1004 q 301 1081 199 1061 q 504 1101 403 1101 q 740 1090 626 1101 q 949 1053 853 1078 q 965 981 963 1022 q 965 897 968 939 q 954 819 963 856 q 938 761 946 782 q 851 750 899 751 q 749 751 803 749 q 639 758 696 754 q 525 761 582 761 q 434 755 458 761 q 410 721 410 749 q 441 693 410 697 q 513 689 472 689 q 546 690 529 689 q 579 692 563 690 q 610 694 594 693 q 643 694 626 694 q 815 681 740 694 q 941 633 890 668 q 1018 540 992 599 q 1044 389 1044 481 q 1014 203 1044 281 q 917 75 983 125 q 748 1 851 25 q 499 -22 644 -22 q 259 3 374 -22 q 64 63 144 28 z "},"6":{"ha":1046,"x_min":18,"x_max":1013,"o":"m 908 1010 q 917 944 915 979 q 914 874 918 908 q 901 810 910 840 q 879 757 892 779 q 819 757 853 754 q 750 764 786 760 q 678 772 714 768 q 614 776 643 776 q 549 768 589 776 q 472 744 510 760 q 408 706 435 729 q 382 656 382 683 q 397 625 382 633 q 432 617 413 617 q 479 622 450 617 q 542 635 508 628 q 613 649 576 643 q 679 654 649 654 q 810 634 750 654 q 916 576 871 614 q 987 481 961 538 q 1013 350 1013 424 q 973 182 1013 253 q 869 65 933 111 q 720 -2 804 19 q 549 -24 636 -24 q 330 17 428 -24 q 163 130 232 58 q 56 299 93 201 q 18 508 18 396 q 62 745 18 642 q 185 919 106 849 q 377 1028 265 990 q 626 1065 489 1065 q 688 1063 651 1065 q 763 1056 724 1061 q 841 1039 803 1050 q 908 1010 879 1028 m 410 338 q 425 306 410 319 q 463 285 440 293 q 513 272 486 276 q 565 268 540 268 q 642 288 615 268 q 669 353 669 308 q 647 404 669 389 q 571 419 625 419 q 516 415 544 419 q 464 400 488 410 q 425 375 440 390 q 410 338 410 360 z "},"7":{"ha":1006,"x_min":8,"x_max":976,"o":"m 596 -11 q 488 -31 550 -22 q 362 -41 425 -39 q 244 -37 299 -43 q 157 -11 189 -31 q 156 -7 157 -10 q 157 3 156 -4 q 163 26 158 11 q 179 65 168 40 q 233 156 199 106 q 309 261 268 206 q 393 375 350 317 q 471 490 436 433 q 528 597 506 546 q 550 690 550 649 q 485 743 550 743 q 360 738 422 743 q 243 728 299 733 q 139 719 188 724 q 54 715 90 715 q 29 799 40 754 q 13 888 18 843 q 12 972 8 932 q 32 1040 15 1011 q 40 1044 36 1043 q 49 1047 44 1044 q 236 1081 115 1072 q 508 1090 357 1090 q 741 1078 650 1090 q 884 1032 832 1067 q 956 935 936 997 q 976 772 976 872 q 958 657 976 722 q 912 521 940 592 q 847 378 883 450 q 774 242 811 307 q 704 126 738 178 q 647 44 671 75 q 596 -11 621 10 z "},"8":{"ha":1174,"x_min":40,"x_max":1147,"o":"m 1079 843 q 1065 754 1079 793 q 1031 686 1051 715 q 985 637 1010 657 q 939 606 961 617 q 900 584 915 593 q 885 568 885 575 q 904 561 885 567 q 953 544 924 556 q 1016 513 982 532 q 1079 466 1050 494 q 1128 399 1108 438 q 1147 310 1147 361 q 1103 150 1147 217 q 985 41 1060 83 q 808 -21 910 -1 q 592 -40 707 -40 q 358 -19 461 -40 q 185 44 256 3 q 77 143 114 85 q 40 274 40 201 q 62 376 40 332 q 115 454 83 421 q 183 511 146 488 q 252 550 221 535 q 305 574 283 565 q 326 585 326 582 q 275 614 326 596 q 222 634 251 622 q 167 669 193 646 q 124 727 142 692 q 107 818 107 763 q 130 931 107 881 q 209 1018 153 982 q 360 1074 265 1054 q 601 1093 456 1093 q 829 1077 738 1093 q 976 1029 921 1061 q 1056 951 1032 997 q 1079 843 1079 904 m 597 853 q 514 835 543 853 q 485 790 485 817 q 509 752 485 764 q 590 740 533 740 q 672 752 647 740 q 697 790 697 764 q 675 835 697 817 q 597 853 653 853 m 603 390 q 499 374 531 390 q 468 324 468 358 q 499 273 468 289 q 603 257 531 257 q 706 273 675 257 q 738 324 738 289 q 706 374 738 358 q 603 390 675 390 z "},"9":{"ha":993,"x_min":44,"x_max":969,"o":"m 100 42 q 81 96 86 63 q 76 165 75 129 q 85 234 78 200 q 101 290 92 268 q 138 289 115 293 q 193 279 160 285 q 272 269 226 274 q 376 267 317 265 q 548 294 489 271 q 607 363 607 318 q 588 399 607 389 q 533 410 568 408 q 446 410 497 413 q 332 407 394 407 q 192 428 247 407 q 103 487 136 449 q 58 581 71 525 q 44 708 44 638 q 163 986 44 892 q 490 1081 281 1081 q 721 1060 629 1081 q 867 988 813 1039 q 944 851 922 936 q 967 638 967 767 q 968 503 967 578 q 963 353 969 428 q 936 213 956 279 q 876 107 917 147 q 788 42 836 67 q 681 2 739 17 q 552 -18 622 -12 q 399 -24 482 -24 q 270 -17 322 -24 q 185 -1 218 -11 q 132 20 151 8 q 100 42 113 32 m 524 653 q 607 668 578 653 q 636 715 636 683 q 610 758 636 739 q 536 778 583 778 q 428 756 469 778 q 388 703 388 735 q 428 665 388 676 q 524 653 469 653 z "},"\u0000":{"ha":0,"x_min":0,"x_max":0,"o":""},"\r":{"ha":347,"x_min":0,"x_max":0,"o":""}," ":{"ha":650,"x_min":0,"x_max":0,"o":""},"!":{"ha":553,"x_min":88,"x_max":482,"o":"m 429 331 q 375 307 410 315 q 303 299 340 299 q 257 302 279 299 q 217 313 235 306 q 205 336 211 324 q 193 363 199 349 q 144 510 164 444 q 111 636 124 575 q 93 762 99 697 q 88 907 88 826 q 94 1020 88 967 q 110 1113 101 1074 q 160 1130 129 1124 q 228 1136 192 1136 q 316 1128 272 1136 q 390 1107 360 1121 q 419 1015 406 1065 q 442 915 432 965 q 459 813 453 864 q 465 718 465 763 q 464 631 465 681 q 459 527 463 581 q 449 422 456 474 q 429 331 442 371 m 164 124 q 200 210 164 182 q 332 238 236 238 q 408 229 379 238 q 454 204 438 221 q 476 163 471 188 q 482 106 482 138 q 478 52 482 79 q 460 3 475 25 q 413 -33 444 -19 q 326 -47 382 -47 q 240 -32 272 -47 q 190 8 207 -17 q 169 63 174 32 q 164 124 164 93 z "},"\"":{"ha":803,"x_min":49,"x_max":738,"o":"m 339 758 q 288 744 315 749 q 233 740 261 740 q 167 746 200 740 q 110 760 135 751 q 83 826 94 788 q 65 903 72 864 q 53 978 57 942 q 49 1038 49 1014 q 51 1083 49 1063 q 61 1121 54 1104 q 144 1140 99 1133 q 236 1147 189 1147 q 276 1146 256 1147 q 317 1142 297 1144 q 344 1099 333 1124 q 362 1047 356 1074 q 370 993 368 1019 q 372 943 372 967 l 372 929 q 367 842 372 890 q 339 758 363 794 m 683 757 q 643 744 664 747 q 600 740 622 740 q 545 745 572 740 q 493 757 518 750 q 458 821 474 781 q 433 906 443 861 q 419 992 424 950 q 414 1061 414 1035 q 417 1113 414 1090 q 432 1153 421 1135 q 508 1174 464 1165 q 596 1183 551 1183 q 637 1181 617 1183 q 675 1174 657 1179 q 706 1130 694 1156 q 725 1076 718 1104 q 735 1020 732 1049 q 738 967 738 992 l 738 953 q 737 903 738 931 q 731 849 736 876 q 714 798 725 822 q 683 757 703 774 z "},"#":{"ha":1375,"x_min":103,"x_max":1279,"o":"m 114 232 q 106 276 108 247 q 105 339 103 306 q 115 403 107 372 q 140 451 124 433 q 176 457 156 457 q 228 451 203 457 q 279 446 253 446 q 302 447 290 446 q 325 447 314 447 q 359 459 346 447 q 381 489 372 471 q 392 526 389 507 q 396 563 396 546 q 391 592 396 582 q 376 606 386 601 q 353 610 367 610 q 324 611 340 611 q 263 608 293 611 q 201 606 232 606 q 160 611 178 606 q 163 751 157 676 q 193 878 169 825 q 270 871 232 878 q 349 864 308 864 q 397 876 378 864 q 424 918 417 889 q 450 1010 435 967 q 476 1086 465 1053 q 528 1099 500 1094 q 584 1103 556 1104 q 640 1098 613 1103 q 689 1083 667 1093 q 683 1036 689 1061 q 672 986 678 1011 q 660 936 665 961 q 656 889 656 911 q 662 869 656 876 q 678 858 668 861 q 699 853 688 854 q 719 853 710 853 q 786 863 763 853 q 822 891 810 872 q 840 938 835 910 q 850 1001 846 965 q 855 1040 853 1018 q 865 1076 857 1061 q 926 1093 893 1089 q 994 1095 960 1097 q 1058 1086 1028 1093 q 1110 1071 1089 1079 l 1111 1067 q 1105 1019 1111 1044 q 1090 970 1099 994 q 1076 922 1082 946 q 1069 874 1069 897 q 1076 865 1069 868 q 1092 859 1083 861 q 1110 857 1101 857 q 1124 857 1119 857 q 1190 860 1157 857 q 1256 864 1222 864 l 1268 863 q 1272 717 1279 788 q 1246 596 1265 646 l 1219 596 q 1138 601 1179 596 q 1056 606 1096 606 q 1020 579 1031 606 q 1003 508 1010 553 q 1006 468 1000 486 q 1035 450 1013 450 q 1135 453 1083 450 q 1233 443 1186 457 q 1235 316 1240 376 q 1210 192 1229 256 q 1151 188 1181 188 q 1076 190 1114 188 q 1001 193 1039 193 q 983 193 993 193 q 965 191 974 193 q 951 183 957 189 q 946 165 946 176 q 942 124 946 150 q 934 69 939 97 q 924 15 929 42 q 917 -26 919 -11 q 790 -45 856 -43 q 676 -32 725 -47 q 674 -19 675 -25 q 674 -7 674 -14 q 680 34 674 8 q 694 88 686 60 q 709 142 703 117 q 715 183 715 168 q 689 196 715 194 q 624 197 663 197 q 564 191 588 197 q 532 161 540 185 q 524 126 528 150 q 513 72 519 101 q 499 14 507 43 q 478 -36 490 -15 q 424 -47 454 -44 q 365 -50 394 -50 q 308 -47 335 -50 q 260 -40 281 -44 q 258 -31 258 -36 q 258 -22 258 -26 q 265 24 258 -4 q 281 82 272 51 q 296 141 289 113 q 303 188 303 169 q 296 201 303 196 q 279 208 289 206 q 260 210 269 210 q 244 211 250 211 q 211 210 229 211 q 176 210 193 210 q 142 216 158 211 q 114 232 125 221 m 672 419 q 729 425 710 419 q 758 442 749 431 q 772 474 768 454 q 781 522 775 493 q 787 570 786 550 q 780 603 788 590 q 754 623 772 617 q 704 629 736 629 q 656 621 674 629 q 630 597 639 613 q 618 559 621 581 q 611 510 615 538 q 607 465 607 483 q 613 438 607 447 q 633 424 619 428 q 672 419 647 419 z "},"$":{"ha":1160,"x_min":78,"x_max":1096,"o":"m 1057 899 q 1035 773 1050 828 q 982 657 1019 718 q 926 674 961 664 q 851 697 890 685 q 772 722 811 710 q 703 746 733 735 q 698 687 700 710 q 694 649 696 664 q 765 627 724 640 q 850 594 806 614 q 939 545 894 574 q 1018 478 983 517 q 1074 391 1053 440 q 1096 279 1096 342 q 1075 169 1096 217 q 1020 88 1054 122 q 942 30 986 53 q 852 -6 899 7 q 761 -25 806 -19 q 682 -31 717 -31 l 646 -31 q 633 -95 643 -65 q 606 -146 622 -125 q 544 -153 579 -153 q 485 -142 508 -154 l 485 -125 q 485 -102 485 -118 q 488 -68 486 -86 q 490 -35 489 -50 q 492 -12 492 -19 l 481 -12 q 390 1 444 -8 q 278 28 336 11 q 167 72 221 46 q 78 135 114 97 q 85 207 79 168 q 103 283 92 246 q 133 353 115 321 q 176 404 151 385 q 247 377 215 388 q 315 356 279 367 q 396 331 350 344 q 508 293 442 317 q 512 356 511 325 q 515 419 513 388 q 445 444 488 433 q 356 471 403 456 q 263 508 310 486 q 179 563 217 531 q 119 643 142 596 q 96 756 96 690 q 119 869 96 822 q 180 949 142 917 q 267 999 218 981 q 368 1028 315 1018 q 472 1040 421 1038 q 567 1039 524 1042 q 573 1096 571 1060 q 588 1160 575 1132 q 639 1167 608 1168 q 696 1158 669 1167 q 701 1094 704 1128 q 699 1036 699 1060 q 788 1026 736 1036 q 892 997 840 1015 q 988 954 943 979 q 1057 899 1032 929 m 531 694 q 533 720 532 711 q 535 736 533 729 q 537 752 536 743 q 539 776 538 761 q 510 778 531 776 q 467 778 489 779 q 427 774 444 778 q 410 760 410 769 q 424 740 410 750 q 456 722 438 731 q 496 706 475 714 q 531 694 517 699 m 671 257 q 697 256 683 257 q 722 256 710 256 q 745 258 731 256 q 774 265 760 260 q 799 278 789 269 q 810 300 810 288 q 798 328 810 317 q 768 348 786 340 q 731 360 750 356 q 697 367 713 365 l 678 367 l 671 257 z "},"%":{"ha":1003,"x_min":40,"x_max":953,"o":"m 321 21 q 191 58 251 31 q 100 119 131 86 q 168 251 122 171 q 270 424 214 331 q 388 615 326 517 q 506 797 450 713 q 604 946 561 882 q 667 1035 647 1010 q 713 1072 686 1058 q 826 1051 769 1072 q 928 990 882 1031 q 865 853 911 938 q 760 672 819 768 q 637 478 700 576 q 521 301 574 381 q 463 215 489 253 q 422 153 438 176 q 386 99 404 125 q 347 46 368 74 q 321 21 333 31 m 393 867 q 385 771 393 811 q 359 705 378 731 q 307 667 340 679 q 224 654 274 654 q 151 661 185 654 q 92 688 117 668 q 54 744 68 708 q 40 840 40 781 q 48 944 40 900 q 76 1019 56 989 q 132 1064 96 1049 q 224 1079 168 1079 q 313 1067 279 1079 q 364 1028 346 1054 q 388 963 382 1003 q 393 867 393 922 m 174 865 q 180 831 174 843 q 217 818 186 818 q 259 828 250 818 q 268 867 268 839 q 261 915 268 894 q 224 935 254 935 q 180 917 186 935 q 174 871 174 899 l 174 865 m 953 208 q 945 117 953 157 q 919 50 938 76 q 867 10 900 24 q 785 -4 835 -4 q 711 4 744 -4 q 653 34 678 13 q 616 92 629 56 q 603 182 603 128 q 642 356 603 292 q 781 421 682 421 q 915 367 876 421 q 953 208 953 313 m 778 275 q 744 258 754 275 q 735 211 735 240 q 741 170 735 182 q 779 158 747 158 q 822 172 815 158 q 829 213 829 185 q 822 258 829 240 q 778 275 814 275 z "},"&":{"ha":1206,"x_min":38,"x_max":1169,"o":"m 1149 106 q 1126 52 1140 79 q 1093 0 1111 25 q 1055 -46 1075 -25 q 1015 -81 1035 -67 q 947 -66 982 -82 q 881 -31 913 -50 q 826 6 850 -11 q 789 22 801 22 q 762 4 779 22 q 702 -35 744 -14 q 584 -74 660 -56 q 381 -92 508 -92 q 241 -69 304 -92 q 133 -6 178 -47 q 63 94 88 35 q 38 226 38 153 q 63 355 38 301 q 120 445 89 408 q 177 506 151 482 q 203 547 203 529 q 189 586 203 568 q 159 628 175 604 q 129 687 143 653 q 115 775 115 721 q 139 902 115 844 q 211 1001 163 960 q 334 1067 260 1043 q 511 1090 408 1090 q 689 1066 614 1090 q 813 998 764 1042 q 885 892 861 954 q 908 756 908 831 q 888 660 908 703 q 836 585 867 618 q 769 526 806 551 q 703 483 733 501 q 651 451 672 464 q 631 428 631 438 q 639 413 631 422 q 661 397 647 404 q 691 383 675 389 q 721 378 707 378 q 756 388 740 378 q 787 413 772 397 q 815 447 801 428 q 844 485 829 465 q 904 561 879 525 q 958 615 929 597 q 1073 569 1015 606 q 1169 486 1131 533 q 1135 424 1160 454 q 1082 357 1110 394 q 1049 314 1067 336 q 1016 272 1031 292 q 992 238 1001 253 q 982 215 982 222 q 1004 183 982 200 q 1054 150 1026 165 q 1075 141 1061 146 q 1103 130 1089 136 q 1131 117 1118 124 q 1149 106 1143 111 m 475 749 q 489 715 475 729 q 522 700 503 700 q 588 722 563 700 q 614 782 614 743 q 594 810 614 800 q 547 821 575 821 q 490 798 504 821 q 475 749 475 775 m 351 235 q 376 199 351 208 q 425 190 401 190 q 444 192 433 190 q 464 197 454 193 q 481 207 474 200 q 488 225 488 214 q 468 269 488 251 q 413 286 449 286 q 361 273 371 286 q 351 235 351 260 z "},"'":{"ha":422,"x_min":49,"x_max":372,"o":"m 69 1135 q 152 1151 106 1146 q 243 1157 199 1157 q 307 1153 281 1157 q 340 1109 328 1135 q 360 1055 353 1083 q 369 997 367 1026 q 372 943 372 968 l 372 929 q 372 884 372 908 q 367 835 371 860 q 355 788 363 811 q 332 747 347 765 q 229 736 285 736 q 167 740 197 736 q 113 754 136 744 q 85 820 97 782 q 65 899 74 858 q 53 976 57 939 q 49 1038 49 1013 q 53 1093 49 1069 q 69 1135 58 1117 z "},"(":{"ha":682,"x_min":36,"x_max":574,"o":"m 511 176 q 518 131 517 156 q 518 81 519 107 q 513 32 517 56 q 503 -10 510 8 q 444 -22 478 -22 q 271 -5 347 -22 q 142 66 194 13 q 63 219 90 119 q 36 482 36 318 q 64 723 36 610 q 153 921 92 836 q 313 1054 215 1006 q 551 1103 411 1103 q 568 1065 563 1093 q 574 1006 574 1038 q 568 943 574 974 q 551 896 563 913 q 486 856 515 883 q 436 781 457 828 q 403 665 415 733 q 392 500 392 596 q 403 361 392 417 q 431 269 414 306 q 470 211 449 232 q 511 176 492 190 z "},")":{"ha":654,"x_min":74,"x_max":603,"o":"m 83 -28 q 77 65 74 21 q 100 150 81 110 q 151 217 125 179 q 197 308 176 256 q 232 426 218 360 q 246 581 246 493 q 214 810 246 728 q 143 910 182 893 q 137 1006 135 958 q 158 1099 139 1054 q 193 1103 175 1103 q 367 1083 292 1103 q 496 1009 443 1064 q 576 856 549 954 q 603 599 603 757 q 564 323 603 440 q 458 127 525 206 q 300 10 390 49 q 108 -31 210 -29 q 96 -30 101 -31 q 83 -28 90 -29 z "},"*":{"ha":1149,"x_min":54,"x_max":1078,"o":"m 222 608 q 287 683 254 646 q 351 760 319 721 l 343 761 q 254 755 299 761 q 165 749 210 749 q 120 751 142 749 q 75 764 99 754 q 55 835 54 797 q 74 908 56 874 q 135 928 104 924 q 199 932 167 932 q 282 926 240 932 q 364 919 324 919 l 369 919 q 331 950 357 932 q 280 989 306 968 q 235 1032 254 1010 q 217 1072 217 1054 q 238 1108 217 1088 q 285 1146 258 1128 q 341 1176 313 1164 q 383 1189 369 1189 q 435 1164 408 1189 q 488 1106 463 1139 q 535 1041 513 1074 q 574 993 557 1008 q 617 1041 599 1017 q 652 1088 635 1065 q 690 1134 669 1111 q 739 1179 710 1157 q 840 1138 793 1165 q 917 1061 888 1110 q 897 1024 908 1040 q 871 991 885 1007 q 843 960 857 975 q 818 925 829 944 q 917 930 867 925 q 1015 935 967 935 q 1041 933 1029 935 q 1065 928 1053 931 q 1074 892 1071 910 q 1078 856 1078 875 q 1070 790 1078 822 q 1056 725 1063 757 q 1033 724 1044 725 q 1011 724 1022 724 q 892 730 951 724 q 775 743 833 736 q 854 663 815 703 q 925 575 893 624 q 817 519 872 543 q 699 496 761 496 l 682 496 q 651 540 665 517 q 625 585 638 563 q 599 631 613 608 q 568 675 585 654 q 535 630 550 654 q 505 582 519 606 q 474 535 490 558 q 438 493 458 513 q 318 528 372 494 q 222 608 264 561 z "},"+":{"ha":1060,"x_min":64,"x_max":978,"o":"m 703 104 q 638 86 678 93 q 556 78 599 79 q 472 81 514 76 q 401 93 431 85 q 385 131 390 110 q 381 172 381 151 l 381 349 q 369 383 381 375 q 339 392 358 392 q 251 387 293 392 q 164 382 210 382 q 130 384 150 382 q 97 392 110 386 q 67 521 71 450 q 74 654 64 592 q 107 660 85 658 q 156 661 129 661 q 242 656 197 661 q 343 651 286 651 q 364 659 358 651 q 369 688 369 667 q 367 744 369 710 q 363 817 365 779 q 360 888 361 854 q 363 939 360 921 q 433 958 390 951 q 522 966 475 965 q 613 960 568 967 q 692 940 658 954 q 701 888 700 921 q 701 818 703 854 q 695 747 699 782 q 692 689 692 713 q 700 659 692 665 q 728 653 708 653 q 775 658 751 653 q 822 668 799 663 q 867 678 844 674 q 914 683 890 683 q 953 675 935 683 q 970 613 964 647 q 977 540 976 578 q 973 465 978 503 q 957 392 968 426 q 921 388 939 388 q 815 391 861 388 q 708 394 769 394 q 692 369 692 394 q 696 308 692 346 q 703 231 700 271 q 708 157 707 192 q 703 104 710 122 z "},",":{"ha":653,"x_min":96,"x_max":532,"o":"m 263 -171 q 206 -142 232 -164 q 183 -93 181 -121 q 209 -42 190 -65 q 244 -3 228 -19 q 265 19 257 11 q 274 31 274 28 q 249 36 274 36 q 133 74 169 36 q 96 207 96 111 q 153 351 96 304 q 308 397 210 397 q 397 388 357 397 q 468 352 438 378 q 515 282 499 326 q 532 169 532 238 q 484 -12 532 61 q 344 -140 436 -85 q 301 -161 325 -151 q 263 -171 278 -171 z "},"-":{"ha":728,"x_min":75,"x_max":639,"o":"m 603 646 q 622 585 614 619 q 635 514 631 551 q 638 438 639 476 q 631 367 638 400 q 625 364 628 364 q 559 342 594 350 q 486 329 524 333 q 412 324 449 325 q 342 324 375 324 q 225 324 286 324 q 111 338 164 324 q 108 338 108 338 q 104 339 107 339 q 78 479 81 403 q 90 625 75 556 q 94 627 93 626 q 97 629 94 628 q 185 653 136 646 q 285 663 233 661 q 388 664 338 665 q 481 663 439 663 q 551 659 521 663 q 603 646 582 656 z "},".":{"ha":626,"x_min":94,"x_max":526,"o":"m 306 379 q 415 369 372 379 q 483 333 458 358 q 517 267 507 308 q 526 167 526 226 q 511 65 526 106 q 464 1 496 25 q 384 -32 432 -22 q 271 -42 336 -42 q 182 -32 217 -42 q 128 1 147 -22 q 101 60 108 24 q 94 150 94 97 q 103 255 94 211 q 137 326 113 299 q 202 367 161 354 q 306 379 243 379 z "},"/":{"ha":901,"x_min":29,"x_max":893,"o":"m 667 1100 q 785 1064 726 1089 q 893 1004 844 1039 q 858 903 885 967 q 793 758 832 839 q 705 586 754 678 q 603 403 656 494 q 499 226 551 313 q 399 72 446 140 q 315 -45 353 3 q 254 -107 278 -93 q 131 -49 192 -85 q 29 33 69 -14 q 69 123 40 63 q 139 262 99 183 q 228 431 179 340 q 328 612 276 521 q 431 788 379 703 q 527 940 482 872 q 608 1050 572 1007 q 667 1100 644 1093 z "},":":{"ha":622,"x_min":94,"x_max":526,"o":"m 306 379 q 415 369 372 379 q 483 333 458 358 q 517 267 507 308 q 526 167 526 226 q 511 65 526 106 q 464 1 496 25 q 384 -32 432 -22 q 271 -42 336 -42 q 182 -32 217 -42 q 128 1 147 -22 q 101 60 108 24 q 94 150 94 97 q 103 255 94 211 q 137 326 113 299 q 202 367 161 354 q 306 379 243 379 m 306 1024 q 415 1013 372 1024 q 483 978 458 1003 q 517 913 507 953 q 526 811 526 872 q 511 710 526 750 q 464 646 496 669 q 384 613 432 622 q 271 603 336 603 q 182 613 217 603 q 128 647 147 624 q 101 706 108 669 q 94 794 94 742 q 103 899 94 856 q 137 971 113 943 q 202 1011 161 999 q 306 1024 243 1024 z "},";":{"ha":644,"x_min":94,"x_max":536,"o":"m 306 1024 q 415 1013 372 1024 q 483 978 458 1003 q 517 913 507 953 q 526 811 526 872 q 511 710 526 750 q 464 646 496 669 q 384 613 432 622 q 271 603 336 603 q 182 613 217 603 q 128 647 147 624 q 101 706 108 669 q 94 794 94 742 q 103 899 94 856 q 137 971 113 943 q 202 1011 161 999 q 306 1024 243 1024 m 267 -176 q 210 -148 236 -169 q 188 -99 185 -126 q 213 -48 194 -71 q 249 -8 232 -25 q 269 14 261 6 q 278 25 278 22 q 253 31 278 31 q 137 68 174 31 q 100 201 100 106 q 157 345 100 299 q 313 392 214 392 q 401 382 361 392 q 472 347 442 372 q 519 276 503 321 q 536 164 536 232 q 488 -17 536 56 q 349 -146 440 -90 q 306 -167 329 -157 q 267 -176 282 -176 z "},"<":{"ha":1121,"x_min":104,"x_max":903,"o":"m 903 371 q 858 219 890 289 q 788 93 826 150 q 706 104 747 90 q 612 141 657 119 q 522 186 567 163 q 452 219 494 200 q 363 261 410 239 q 270 308 317 283 q 187 359 224 333 q 127 410 150 385 q 104 461 104 436 q 138 525 104 486 q 223 608 171 564 q 338 700 275 653 q 462 788 401 747 q 573 858 522 828 q 649 900 624 889 q 683 913 665 907 q 718 919 700 918 q 776 881 747 906 q 828 825 804 856 q 872 761 853 794 q 901 697 890 728 q 840 649 878 672 q 758 604 801 625 q 672 565 715 583 q 593 531 628 546 q 536 506 558 517 q 514 489 514 494 q 543 470 514 481 q 609 451 572 460 q 680 435 646 442 q 724 426 714 428 q 767 419 742 424 q 819 409 793 415 q 867 394 844 403 q 903 371 890 385 z "},"=":{"ha":804,"x_min":126,"x_max":679,"o":"m 146 579 q 138 637 140 606 q 135 699 135 668 q 139 761 135 731 q 153 817 143 792 q 242 829 194 825 q 337 835 289 833 q 431 838 385 838 q 515 838 476 838 q 587 834 557 838 q 638 819 617 831 q 658 686 651 754 q 656 554 665 618 q 590 541 625 546 q 517 534 554 536 q 445 531 481 532 q 378 531 410 531 q 255 538 319 531 q 146 579 190 546 m 133 210 q 129 325 126 263 q 143 440 132 388 q 154 444 150 444 q 208 453 179 451 q 265 456 236 456 q 331 454 297 456 q 393 453 364 453 l 413 453 q 531 456 471 453 q 647 436 590 458 q 669 370 663 406 q 678 301 676 335 q 676 237 679 267 q 668 185 672 207 q 613 157 649 164 q 524 150 578 150 q 431 153 482 150 q 326 163 379 156 q 222 181 272 169 q 133 210 172 192 z "},">":{"ha":1042,"x_min":129,"x_max":939,"o":"m 290 93 q 232 138 258 110 q 185 202 206 167 q 151 276 165 238 q 129 349 138 314 q 221 385 169 372 q 325 413 272 399 q 399 433 363 422 q 465 453 436 443 q 512 474 494 464 q 529 489 529 483 q 488 519 529 501 q 388 556 446 538 q 328 574 358 564 q 268 597 297 585 q 214 623 239 608 q 169 656 189 638 q 184 722 174 686 q 209 792 194 757 q 242 860 224 828 q 281 914 260 892 q 317 919 297 919 q 394 900 353 919 q 469 859 419 889 q 580 788 519 829 q 704 701 640 747 q 820 609 768 654 q 906 525 872 564 q 939 461 939 486 q 902 403 939 436 q 808 333 865 369 q 679 258 750 296 q 542 190 608 221 q 420 135 475 158 q 338 104 365 113 q 290 93 310 94 z "},"?":{"ha":835,"x_min":82,"x_max":767,"o":"m 557 363 q 467 323 525 336 q 353 310 410 310 q 278 316 313 310 q 225 333 244 322 q 189 444 189 376 q 210 538 189 501 q 265 600 232 575 q 335 641 297 625 q 406 672 374 657 q 460 703 439 686 q 482 749 482 721 q 394 826 482 826 q 329 823 357 826 q 275 814 301 819 q 219 801 249 808 q 146 783 189 793 q 109 853 124 814 q 88 935 94 893 q 84 1019 82 978 q 94 1094 86 1060 q 164 1131 124 1118 q 248 1151 204 1144 q 335 1158 292 1157 q 415 1160 378 1160 q 555 1142 490 1160 q 667 1086 619 1124 q 740 990 714 1049 q 767 851 767 932 q 749 733 767 779 q 703 656 731 686 q 645 606 676 625 q 587 569 614 586 q 542 534 560 553 q 524 486 524 515 q 529 458 524 471 q 542 433 535 446 q 554 408 549 421 q 560 381 560 396 q 557 363 560 374 m 554 76 q 544 15 554 39 q 517 -22 535 -8 q 472 -40 499 -35 q 408 -44 444 -44 q 290 -15 329 -44 q 250 99 250 15 q 283 207 250 172 q 393 242 317 242 q 513 199 472 242 q 554 76 554 156 z "},"@":{"ha":1528,"x_min":63,"x_max":1435,"o":"m 1025 797 q 1063 801 1042 803 q 1105 795 1085 800 q 1142 783 1125 790 q 1168 767 1160 775 q 1151 686 1161 726 q 1131 605 1140 646 q 1116 523 1122 564 q 1110 442 1110 482 q 1115 388 1110 413 q 1131 344 1119 363 q 1160 314 1142 325 q 1208 303 1179 303 q 1278 363 1254 303 q 1303 526 1303 422 q 1287 726 1303 638 q 1221 878 1271 815 q 1078 974 1171 940 q 829 1007 985 1007 q 521 966 642 1007 q 330 852 400 925 q 232 680 260 779 q 204 464 204 581 q 240 258 204 347 q 342 107 275 168 q 505 15 408 46 q 725 -17 601 -17 q 859 -1 804 -17 q 958 32 914 15 q 994 45 978 39 q 1025 56 1010 51 q 1047 35 1033 50 q 1072 3 1061 21 q 1091 -33 1083 -14 q 1094 -67 1099 -51 q 1009 -110 1063 -92 q 897 -140 956 -128 q 781 -156 838 -151 q 686 -161 725 -161 q 399 -117 518 -161 q 206 10 281 -72 q 97 210 131 93 q 63 471 63 326 q 105 735 63 615 q 239 942 147 856 q 475 1076 331 1028 q 824 1124 619 1124 q 1113 1085 996 1124 q 1302 972 1231 1047 q 1404 786 1374 897 q 1435 528 1435 675 q 1419 378 1435 453 q 1371 246 1404 304 q 1285 151 1338 188 q 1160 114 1233 114 q 1067 131 1104 114 q 1003 169 1029 149 q 958 206 976 189 q 922 224 939 224 q 892 210 907 224 q 848 182 876 197 q 771 153 819 167 q 640 140 722 140 q 432 222 506 140 q 358 467 358 303 q 385 626 358 556 q 460 744 413 696 q 575 819 508 793 q 721 844 642 844 q 831 828 788 844 q 903 794 875 813 q 947 759 931 775 q 976 743 964 743 q 989 749 983 743 q 1000 763 994 754 q 1011 781 1006 771 q 1025 797 1017 790 m 643 510 q 671 435 643 458 q 763 413 699 413 q 851 435 825 413 q 876 510 876 457 q 851 579 876 560 q 763 599 826 599 q 669 578 696 599 q 643 510 643 558 z "},"A":{"ha":1264,"x_min":-3,"x_max":1261,"o":"m 1260 21 q 1197 -12 1246 1 q 1087 -33 1149 -26 q 962 -39 1025 -40 q 856 -26 899 -37 q 821 58 840 15 q 790 139 801 100 q 773 175 785 163 q 742 194 761 188 q 695 201 724 200 q 626 203 667 203 q 581 203 607 203 q 529 203 554 204 q 483 198 504 201 q 456 186 463 194 q 443 170 449 178 q 432 151 438 163 q 420 124 426 140 q 404 79 414 107 q 390 35 396 54 q 381 1 385 15 q 372 -26 376 -14 q 361 -50 368 -39 q 265 -49 318 -54 q 161 -34 213 -44 q 66 -8 110 -24 q -3 25 22 7 q 1 63 -3 42 q 10 108 6 85 q 21 152 15 131 q 31 190 26 174 q 81 397 51 282 q 151 626 111 511 q 238 842 190 740 q 344 1006 286 943 q 397 1040 364 1026 q 471 1063 429 1054 q 558 1076 513 1072 q 650 1081 604 1081 q 724 1075 682 1081 q 809 1057 767 1069 q 890 1023 851 1044 q 950 968 928 1001 q 1013 858 982 922 q 1072 717 1043 793 q 1126 556 1100 640 q 1176 386 1153 471 q 1217 219 1199 301 q 1251 67 1236 138 q 1258 44 1254 56 q 1260 21 1261 32 m 522 481 q 538 440 515 446 q 585 434 561 433 q 633 435 610 435 q 695 438 671 435 q 732 448 719 442 q 748 462 744 454 q 749 479 751 469 q 736 541 744 497 q 714 631 728 585 q 680 711 700 676 q 632 746 660 746 q 593 713 611 746 q 561 636 575 681 q 537 548 547 592 q 522 481 526 504 z "},"B":{"ha":1172,"x_min":-4,"x_max":1149,"o":"m 568 603 q 621 610 594 603 q 668 634 647 618 q 702 674 689 650 q 715 728 715 697 q 676 800 715 771 q 569 829 636 829 q 520 825 540 829 q 488 809 500 821 q 470 776 475 797 q 465 718 465 754 q 488 626 465 649 q 568 603 511 603 m 561 211 q 609 218 583 211 q 658 237 635 225 q 696 265 681 249 q 711 301 711 282 q 674 392 711 363 q 553 421 636 421 q 482 400 503 421 q 461 314 461 379 q 467 260 461 281 q 484 229 472 240 q 515 215 496 218 q 561 211 533 211 m 107 821 q 11 844 33 818 q -2 922 0 874 q 8 1021 -4 969 q 57 1058 18 1044 q 149 1078 96 1072 q 265 1086 203 1085 q 385 1086 328 1088 q 489 1083 443 1085 q 557 1081 535 1081 l 560 1081 q 740 1065 646 1081 q 913 1011 833 1049 q 1043 913 992 974 q 1094 760 1094 851 q 1044 633 1094 681 q 911 561 994 586 q 863 539 878 550 q 849 525 849 528 q 880 508 849 518 q 951 489 911 497 q 1098 418 1047 468 q 1149 276 1149 368 q 1144 226 1149 254 q 1128 169 1140 199 q 1097 108 1117 139 q 1043 49 1076 78 q 932 -15 999 10 q 786 -53 865 -39 q 618 -72 707 -67 q 439 -78 529 -78 q 355 -72 401 -78 q 264 -55 308 -67 q 183 -24 219 -43 q 132 21 147 -6 q 100 99 108 63 q 91 182 92 135 q 94 294 90 229 q 97 458 97 360 q 101 558 97 500 q 108 672 106 617 q 113 769 111 726 q 107 821 114 811 z "},"C":{"ha":1008,"x_min":15,"x_max":989,"o":"m 958 375 q 978 309 971 357 q 987 203 985 261 q 985 85 989 144 q 968 -17 981 25 q 901 -43 942 -29 q 810 -68 861 -57 q 703 -87 760 -79 q 586 -94 646 -94 q 354 -62 460 -94 q 174 41 249 -31 q 57 228 99 113 q 15 511 15 344 q 58 794 15 682 q 180 974 101 907 q 367 1067 258 1040 q 610 1093 476 1093 q 802 1082 718 1093 q 939 1053 886 1071 q 953 1010 947 1040 q 964 943 960 981 q 971 863 968 906 q 973 780 974 819 q 969 708 972 740 q 961 658 967 676 q 894 697 925 675 q 830 739 864 719 q 751 772 796 758 q 644 785 707 785 q 553 768 599 785 q 473 719 508 751 q 416 638 438 686 q 394 525 394 589 q 453 335 394 396 q 613 275 513 275 q 707 288 660 275 q 799 317 754 300 q 885 350 844 333 q 958 375 925 367 z "},"D":{"ha":1119,"x_min":0,"x_max":1092,"o":"m 519 760 q 473 746 490 760 q 447 702 456 732 q 435 626 438 672 q 432 518 432 581 q 449 327 432 392 q 524 263 467 263 q 598 283 561 263 q 664 340 635 303 q 710 429 693 378 q 728 543 728 481 q 671 705 728 650 q 519 760 614 760 m 76 788 q 35 807 50 786 q 12 857 19 828 q 2 917 4 886 q 0 968 0 949 q 4 1019 0 997 q 22 1056 8 1042 q 60 1078 36 1071 q 124 1086 85 1086 q 234 1085 179 1086 q 344 1076 289 1083 q 519 1060 432 1067 q 693 1033 607 1053 q 879 959 803 1010 q 1003 839 956 908 q 1071 686 1050 769 q 1092 513 1092 603 q 1056 312 1092 400 q 958 156 1019 224 q 817 42 897 89 q 648 -35 736 -6 q 468 -78 560 -64 q 294 -92 376 -92 q 163 -52 214 -92 q 100 54 113 -12 q 87 160 92 100 q 79 286 82 221 q 75 415 76 351 q 74 531 74 479 q 74 599 74 568 q 75 660 75 631 q 76 719 75 689 q 76 788 76 750 z "},"E":{"ha":940,"x_min":44,"x_max":903,"o":"m 864 271 q 888 205 879 247 q 900 115 897 163 q 900 22 903 68 q 886 -54 897 -24 q 797 -77 847 -69 q 692 -88 746 -85 q 585 -92 638 -92 q 486 -93 532 -93 q 245 -87 332 -93 q 117 -59 158 -82 q 65 11 75 -36 q 56 143 56 58 q 55 278 56 208 q 53 413 54 349 q 49 668 49 540 q 48 681 49 674 q 47 697 47 688 q 46 731 46 713 q 46 769 46 750 q 45 853 46 807 q 49 942 44 900 q 67 1018 54 985 q 107 1063 81 1051 q 202 1089 150 1081 q 308 1100 254 1097 q 415 1102 363 1103 q 510 1101 467 1101 q 590 1099 546 1101 q 679 1090 633 1096 q 769 1074 725 1083 q 847 1051 813 1065 q 865 992 860 1029 q 868 913 869 954 q 862 830 867 871 q 850 757 857 789 q 810 749 832 751 q 758 747 789 747 q 683 748 726 747 q 576 749 639 749 l 507 749 q 435 748 463 749 q 393 742 408 747 q 373 725 378 736 q 368 694 368 714 q 371 667 368 681 q 383 643 374 654 q 408 625 392 632 q 453 618 425 618 q 515 619 478 618 q 576 624 553 621 q 623 628 600 626 q 669 629 646 629 q 710 625 692 629 q 722 561 718 599 q 726 486 726 524 q 724 416 726 449 q 717 368 721 383 q 692 361 707 365 q 667 357 676 357 q 631 358 649 357 q 593 363 613 360 q 542 367 574 365 q 489 368 510 368 q 417 351 439 368 q 396 311 396 333 q 417 263 396 274 q 500 251 438 251 q 540 252 518 251 q 585 255 563 253 q 631 259 608 257 q 669 263 653 261 q 753 270 706 267 q 838 274 801 274 q 851 273 844 274 q 864 271 857 272 z "},"F":{"ha":921,"x_min":19,"x_max":893,"o":"m 454 -75 q 372 -102 418 -92 q 276 -115 325 -112 q 176 -112 226 -117 q 83 -94 126 -107 q 67 -59 75 -86 q 53 17 60 -32 q 42 140 46 65 q 38 318 38 214 q 33 423 38 357 q 26 567 29 489 q 21 728 22 646 q 26 878 19 810 q 47 996 32 947 q 92 1056 63 1044 q 148 1069 113 1064 q 228 1079 183 1075 q 321 1085 272 1083 q 415 1088 369 1086 q 498 1089 460 1089 q 560 1089 536 1089 q 698 1083 619 1089 q 847 1060 776 1076 q 875 978 864 1026 q 890 876 886 929 q 888 774 893 824 q 869 690 883 725 q 839 677 856 679 q 804 675 822 675 q 720 685 763 675 q 636 708 678 696 q 552 731 594 721 q 467 742 510 742 q 402 731 419 742 q 385 679 385 721 q 400 613 385 639 q 467 588 415 588 q 581 599 521 588 q 693 606 640 610 q 724 553 714 593 q 736 464 735 513 q 728 367 738 415 q 701 290 719 318 q 647 293 676 288 q 588 306 618 299 q 527 319 558 313 q 467 326 496 326 q 422 322 435 326 q 410 286 410 318 q 419 211 410 249 q 437 131 428 174 q 452 38 446 88 q 454 -75 458 -12 z "},"G":{"ha":1144,"x_min":21,"x_max":1122,"o":"m 981 1036 q 1008 965 1000 1006 q 1014 881 1015 924 q 1004 797 1013 838 q 983 726 996 756 q 919 724 953 722 q 849 728 886 725 q 771 736 813 732 q 682 740 729 740 q 517 717 575 740 q 433 656 460 693 q 401 573 406 618 q 396 486 396 528 q 399 415 396 453 q 415 347 401 378 q 457 294 429 315 q 535 274 485 274 q 622 281 581 274 q 693 300 663 288 q 742 331 724 313 q 760 374 760 350 q 704 400 760 400 q 665 395 682 400 q 633 385 649 390 q 603 374 618 379 q 567 369 588 369 l 560 369 q 533 422 543 393 q 518 478 522 450 q 517 533 514 507 q 532 575 521 558 q 603 622 560 603 q 692 651 646 640 q 786 667 739 663 q 869 672 833 672 q 913 670 886 672 q 969 663 940 668 q 1023 648 997 657 q 1061 624 1049 639 q 1092 570 1081 603 q 1111 499 1104 538 q 1120 419 1118 460 q 1122 340 1122 378 q 557 -89 1122 -89 q 303 -45 406 -89 q 138 75 200 -1 q 48 256 75 151 q 21 482 21 361 q 58 720 21 611 q 168 909 94 829 q 353 1034 242 989 q 613 1079 464 1079 q 727 1078 671 1079 q 833 1072 783 1076 q 920 1058 882 1067 q 981 1036 958 1050 z "},"H":{"ha":1171,"x_min":36,"x_max":1136,"o":"m 686 1063 q 726 1074 699 1069 q 788 1082 753 1079 q 863 1085 824 1085 q 938 1082 901 1085 q 1003 1073 974 1079 q 1047 1057 1032 1067 q 1049 1053 1049 1054 q 1051 1050 1050 1053 q 1075 978 1064 1024 q 1095 877 1086 933 q 1111 757 1104 821 q 1123 629 1118 693 q 1131 505 1128 565 q 1133 396 1133 444 q 1135 293 1133 351 q 1135 174 1136 235 q 1131 56 1135 114 q 1118 -46 1128 -1 q 1110 -67 1115 -57 q 1093 -81 1104 -76 q 1013 -85 1063 -87 q 910 -73 963 -82 q 810 -50 858 -64 q 735 -19 763 -36 q 726 17 726 -3 q 726 77 726 42 q 725 149 725 113 q 724 221 725 186 q 724 281 724 256 q 722 320 724 304 q 708 346 719 336 q 676 359 697 356 q 614 363 654 363 q 544 356 569 363 q 505 335 518 349 q 488 299 492 321 q 485 247 485 278 q 488 193 485 224 q 494 130 490 163 q 500 67 497 97 q 503 11 503 36 q 490 -24 503 -11 q 460 -49 478 -36 q 391 -62 436 -56 q 297 -69 346 -68 q 202 -67 247 -71 q 132 -49 157 -62 q 119 -32 124 -40 q 88 80 103 1 q 63 256 74 158 q 45 458 51 354 q 36 646 39 563 q 36 730 36 682 q 38 828 36 778 q 42 926 40 878 q 49 1011 44 975 q 52 1040 50 1026 q 65 1065 54 1054 q 118 1079 85 1074 q 190 1088 151 1085 q 270 1090 229 1090 q 347 1088 311 1090 q 410 1081 383 1086 q 444 1069 436 1076 q 460 1034 457 1054 q 463 988 463 1014 q 461 915 463 956 q 458 833 460 875 q 454 751 456 792 q 453 679 453 711 q 455 631 453 650 q 469 602 457 613 q 506 588 481 592 q 579 585 532 585 q 655 588 628 585 q 696 603 682 592 q 713 638 710 615 q 717 699 717 660 q 714 760 717 726 q 706 830 711 794 q 696 900 701 865 q 686 964 690 935 q 679 1019 682 990 q 686 1063 676 1049 z "},"I":{"ha":629,"x_min":65,"x_max":582,"o":"m 101 768 q 153 782 121 776 q 224 790 185 788 q 303 794 263 793 q 383 794 344 796 q 451 787 421 792 q 497 775 481 782 q 504 760 503 768 q 535 592 522 686 q 558 399 549 499 q 573 199 567 299 q 582 15 579 100 q 571 -25 582 -8 q 480 -54 536 -43 q 360 -68 424 -65 q 233 -66 297 -71 q 118 -47 169 -61 q 103 -21 107 -33 q 86 160 92 32 q 81 475 81 288 q 84 633 81 569 q 97 754 88 697 q 101 768 97 763 m 99 856 q 72 979 79 908 q 76 1111 65 1050 q 172 1131 114 1124 q 292 1141 229 1139 q 412 1139 354 1143 q 507 1121 469 1135 q 511 1054 511 1090 q 508 982 511 1018 q 499 911 506 946 q 486 849 493 876 q 394 837 446 840 q 290 834 343 833 q 188 840 238 835 q 99 856 138 846 z "},"J":{"ha":1015,"x_min":17,"x_max":989,"o":"m 44 -22 q 24 49 31 4 q 17 144 17 94 q 26 240 18 193 q 50 314 35 286 q 113 316 82 321 q 178 302 144 311 q 249 284 211 293 q 331 275 286 275 q 397 283 371 275 q 437 310 422 292 q 456 362 451 329 q 461 442 461 394 q 462 502 461 461 q 462 589 463 543 q 458 678 461 635 q 449 743 456 721 q 431 763 444 757 q 398 769 417 768 q 358 769 379 771 q 315 768 336 768 q 262 767 286 768 q 215 765 238 765 q 167 763 192 764 q 115 761 143 761 q 72 772 88 761 q 59 858 63 811 q 58 949 56 906 q 71 1028 61 993 q 97 1079 81 1063 q 153 1088 122 1088 q 521 1085 343 1088 q 889 1082 699 1082 q 949 1075 918 1082 q 973 1015 964 1050 q 985 942 982 981 q 987 863 989 903 q 979 788 985 822 q 933 776 960 778 q 874 775 907 775 q 835 774 849 775 q 814 771 821 774 q 806 763 807 768 q 804 751 804 758 q 806 710 804 738 q 809 650 807 682 q 815 585 811 618 q 822 528 818 553 q 835 412 833 472 q 838 282 838 351 q 809 115 838 183 q 727 5 781 47 q 599 -56 674 -37 q 432 -75 524 -75 q 319 -73 376 -75 q 210 -65 261 -71 q 115 -48 158 -58 q 44 -22 72 -37 z "},"K":{"ha":1010,"x_min":15,"x_max":978,"o":"m 978 167 q 951 90 972 128 q 898 22 929 53 q 828 -33 867 -10 q 747 -68 789 -57 q 706 -31 729 -57 q 660 26 683 -6 q 616 90 638 57 q 578 147 594 122 q 515 247 539 208 q 474 306 490 285 q 449 334 458 326 q 429 342 439 342 q 409 326 414 342 q 404 285 404 311 q 408 231 404 264 q 415 161 411 199 q 422 83 418 124 q 425 3 425 42 q 414 -32 425 -14 q 334 -54 378 -44 q 246 -69 290 -64 q 160 -74 201 -75 q 89 -67 119 -74 q 54 -22 61 -51 q 38 78 44 19 q 26 202 31 138 q 18 329 21 267 q 15 439 15 392 q 18 588 15 504 q 26 759 21 672 q 42 926 32 846 q 64 1061 51 1006 q 71 1076 67 1069 q 81 1088 75 1082 q 155 1097 110 1093 q 247 1099 200 1100 q 336 1091 294 1097 q 397 1072 378 1085 q 413 1032 413 1058 q 408 971 413 999 q 400 915 404 943 q 392 858 396 888 q 388 789 388 828 q 394 756 388 769 q 415 743 400 743 q 440 758 424 743 q 478 796 457 772 q 522 849 499 819 q 565 907 544 878 q 613 967 585 935 q 669 1028 640 1000 q 726 1077 699 1057 q 772 1099 754 1097 q 835 1067 801 1090 q 900 1011 869 1043 q 953 942 931 979 q 978 868 975 904 q 933 815 961 844 q 874 754 906 785 q 808 694 842 724 q 746 640 775 664 q 706 604 721 619 q 685 578 692 589 q 676 558 678 567 q 675 540 675 549 q 703 490 675 525 q 774 411 731 454 q 834 351 804 379 q 890 294 864 322 q 939 235 917 265 q 978 167 961 204 z "},"L":{"ha":935,"x_min":10,"x_max":924,"o":"m 75 1085 q 172 1104 118 1099 q 278 1108 225 1110 q 378 1097 331 1106 q 456 1072 425 1088 q 473 1012 471 1044 q 475 943 475 979 q 469 812 475 882 q 458 671 464 742 q 446 531 451 600 q 440 401 440 461 q 442 350 440 371 q 452 317 443 329 q 481 299 461 304 q 538 293 501 293 q 615 299 578 293 q 688 313 653 306 q 760 326 724 319 q 833 332 796 332 l 838 332 q 878 270 863 307 q 905 192 894 233 q 919 106 915 150 q 924 25 924 63 q 893 7 911 15 q 799 -35 847 -18 q 689 -62 751 -51 q 541 -78 626 -74 q 333 -83 456 -83 q 177 -70 238 -83 q 75 -21 117 -57 q 34 45 47 3 q 15 152 21 88 q 10 304 10 217 q 11 504 11 392 q 12 585 11 538 q 14 685 13 632 q 19 793 15 738 q 28 899 22 849 q 41 990 33 949 q 58 1054 49 1031 q 66 1070 61 1063 q 75 1085 71 1078 z "},"M":{"ha":1475,"x_min":36,"x_max":1428,"o":"m 239 1075 q 301 1076 267 1075 q 369 1075 335 1076 q 435 1069 403 1074 q 493 1053 468 1064 q 551 1009 524 1040 q 603 940 579 978 q 649 863 628 901 q 683 794 669 824 q 701 755 692 778 q 722 718 711 732 q 764 697 739 697 q 797 713 785 697 q 824 753 813 731 q 847 796 836 776 q 892 867 867 828 q 946 942 917 906 q 1009 1009 975 979 q 1078 1051 1043 1039 q 1131 1061 1097 1058 q 1185 1064 1164 1064 q 1222 1063 1200 1064 q 1266 1057 1243 1061 q 1309 1047 1289 1053 q 1342 1033 1329 1042 q 1381 961 1365 1017 q 1405 829 1396 906 q 1419 665 1414 753 q 1426 494 1424 576 q 1428 346 1428 413 q 1428 246 1428 279 q 1427 181 1428 222 q 1424 94 1426 139 q 1418 10 1422 50 q 1407 -50 1414 -31 q 1304 -72 1358 -65 q 1200 -78 1250 -78 q 1112 -72 1158 -78 q 1026 -49 1065 -67 q 1010 7 1013 -26 q 1008 65 1008 40 l 1008 199 q 1015 321 1008 261 q 1021 442 1021 381 q 1021 457 1021 446 q 1020 479 1021 468 q 1015 499 1019 490 q 1003 507 1011 507 q 960 469 988 507 q 905 381 933 431 q 851 286 876 332 q 814 224 826 240 q 782 213 799 215 q 749 210 765 210 q 707 214 728 210 q 668 229 686 218 q 649 263 661 239 q 620 317 636 286 q 587 380 604 347 q 553 440 569 413 q 523 484 536 467 q 501 501 510 501 q 488 494 492 501 q 482 478 483 488 q 481 458 481 468 q 481 442 481 449 q 486 267 481 354 q 492 90 492 179 q 490 22 492 61 q 481 -44 489 -17 q 402 -58 442 -56 q 322 -60 363 -60 q 260 -58 294 -60 q 192 -53 226 -57 q 125 -42 158 -49 q 67 -26 92 -36 q 63 -1 63 -14 q 68 128 63 63 q 82 258 74 194 q 103 528 99 393 q 124 800 108 664 q 96 819 111 818 q 67 826 81 821 q 45 853 54 832 q 36 932 36 874 q 51 1015 36 986 q 92 1058 65 1044 q 156 1073 118 1071 q 239 1075 193 1075 z "},"N":{"ha":1200,"x_min":4,"x_max":1164,"o":"m 1071 -10 q 1025 -32 1058 -24 q 950 -42 992 -40 q 864 -41 908 -44 q 785 -26 819 -37 q 669 86 718 21 q 581 210 619 151 q 514 310 543 269 q 461 351 485 351 q 434 344 439 351 q 429 310 429 336 q 434 246 429 281 q 445 176 439 211 q 456 106 451 140 q 461 42 461 71 q 458 4 461 22 q 443 -29 456 -14 q 363 -58 411 -49 q 264 -69 315 -67 q 165 -67 213 -71 q 86 -57 118 -64 q 71 -25 74 -40 q 58 40 64 3 q 49 115 53 76 q 44 190 46 153 q 42 256 42 226 q 47 492 42 376 q 75 719 51 608 q 78 735 78 731 q 79 744 79 740 q 72 769 79 761 q 53 783 64 776 q 33 797 43 789 q 15 821 22 804 q 10 842 13 828 q 7 870 8 856 q 5 898 6 885 q 4 919 4 911 q 11 1010 4 978 q 38 1057 18 1042 q 90 1075 57 1072 q 175 1078 124 1078 q 258 1076 217 1078 q 342 1074 300 1074 q 417 1069 378 1074 q 488 1042 457 1065 q 531 983 510 1025 q 572 889 551 942 q 610 778 592 836 q 649 673 629 721 q 687 594 668 625 q 725 564 706 564 q 748 585 744 564 q 751 628 751 606 q 745 790 751 714 q 739 951 739 867 q 742 1008 739 976 q 765 1058 746 1040 q 835 1076 794 1071 q 922 1082 876 1082 q 1010 1075 967 1082 q 1088 1056 1054 1068 q 1121 1008 1111 1036 q 1144 919 1136 969 q 1157 817 1153 869 q 1163 714 1161 765 q 1164 621 1164 663 q 1163 531 1164 583 q 1160 420 1163 479 q 1152 300 1157 361 q 1138 183 1147 239 q 1113 78 1128 126 q 1078 0 1099 31 q 1074 -5 1075 -3 q 1071 -10 1074 -7 z "},"O":{"ha":1242,"x_min":15,"x_max":1221,"o":"m 15 511 q 92 869 15 738 q 299 1053 168 1001 q 375 1074 333 1067 q 460 1086 417 1082 q 547 1092 504 1090 q 628 1093 590 1093 q 704 1092 664 1093 q 786 1085 744 1090 q 867 1073 828 1081 q 939 1053 907 1065 q 1056 981 1004 1026 q 1145 869 1108 936 q 1201 713 1182 803 q 1221 511 1221 624 q 1179 228 1221 344 q 1063 41 1138 113 q 883 -62 988 -31 q 650 -94 778 -94 l 586 -94 q 354 -62 460 -94 q 174 41 249 -31 q 57 228 99 113 q 15 511 15 344 m 618 783 q 535 765 575 783 q 463 714 494 747 q 413 633 432 681 q 394 525 394 585 q 448 341 394 407 q 618 275 501 275 q 790 341 736 275 q 843 525 843 407 q 824 633 843 585 q 774 714 806 681 q 703 765 743 747 q 618 783 663 783 z "},"P":{"ha":1115,"x_min":6,"x_max":1082,"o":"m 438 -47 q 353 -67 401 -60 q 258 -74 306 -74 q 166 -69 210 -74 q 93 -53 122 -64 q 68 -1 76 -31 q 57 64 60 29 q 54 137 54 99 q 54 214 54 175 q 60 460 54 338 q 65 706 65 582 q 66 749 65 728 q 64 793 67 771 q 53 815 63 806 q 33 840 43 825 q 14 878 22 854 q 6 944 6 901 q 9 1012 6 988 q 19 1050 13 1036 q 37 1070 26 1064 q 63 1082 47 1076 q 106 1092 75 1088 q 173 1101 136 1097 q 244 1108 210 1106 q 300 1110 279 1110 q 483 1108 390 1110 q 662 1096 575 1107 q 825 1058 749 1085 q 958 980 901 1031 q 1049 849 1015 929 q 1082 649 1082 768 q 1052 475 1082 544 q 974 362 1022 406 q 865 296 926 318 q 742 265 804 274 q 619 256 679 256 q 515 256 560 256 q 472 253 488 256 q 448 243 456 251 q 438 219 440 235 q 436 178 436 204 q 438 136 436 161 q 440 84 439 111 q 443 32 442 57 q 444 -10 444 7 q 438 -47 444 -33 m 443 658 q 447 594 443 617 q 464 560 451 571 q 499 546 476 549 q 558 543 522 543 q 617 549 585 543 q 678 569 650 554 q 725 609 706 583 q 744 675 744 635 q 736 717 744 696 q 708 756 728 739 q 654 783 688 772 q 571 793 621 793 q 506 788 531 793 q 467 767 481 782 q 448 726 453 751 q 443 658 443 700 z "},"Q":{"ha":1290,"x_min":15,"x_max":1268,"o":"m 15 511 q 28 676 15 593 q 73 831 40 758 q 160 962 106 904 q 299 1053 215 1019 q 376 1075 335 1067 q 461 1088 418 1083 q 547 1092 504 1092 q 628 1093 589 1093 q 703 1092 663 1093 q 785 1086 744 1090 q 866 1074 826 1082 q 939 1053 906 1065 q 1061 971 1008 1025 q 1149 849 1114 917 q 1203 705 1185 781 q 1221 558 1221 629 q 1202 442 1221 494 q 1160 351 1183 390 q 1119 288 1138 313 q 1100 253 1100 263 q 1107 240 1100 244 q 1123 235 1114 236 q 1141 234 1132 233 q 1156 235 1150 235 q 1194 237 1175 235 q 1232 235 1213 239 q 1250 194 1243 217 q 1261 148 1257 172 q 1267 100 1265 124 q 1268 56 1268 76 q 1265 -5 1268 25 q 1253 -62 1261 -35 q 1139 -87 1207 -79 q 997 -97 1071 -94 q 851 -97 922 -99 q 728 -96 781 -96 q 657 -95 692 -96 q 586 -94 622 -94 q 331 -54 439 -94 q 153 63 222 -14 q 49 253 83 140 q 15 511 15 367 m 618 783 q 535 765 575 783 q 463 714 494 747 q 413 633 432 681 q 394 525 394 585 q 449 335 394 407 q 621 263 504 263 q 790 335 736 263 q 843 525 843 407 q 824 633 843 585 q 774 714 806 681 q 703 765 743 747 q 618 783 663 783 z "},"R":{"ha":1167,"x_min":-1,"x_max":1150,"o":"m 1150 7 q 1077 -21 1121 -8 q 985 -41 1033 -33 q 887 -50 936 -49 q 794 -43 838 -51 q 724 28 754 -19 q 672 122 694 75 q 579 269 619 229 q 519 308 539 308 q 492 301 497 308 q 488 278 488 293 q 493 228 488 265 q 503 144 499 190 q 505 53 507 99 q 488 -22 503 7 q 408 -42 454 -33 q 314 -54 363 -50 q 219 -58 265 -58 q 139 -51 172 -58 q 126 -28 132 -44 q 117 0 119 -11 q 107 78 111 29 q 99 189 103 128 q 94 318 96 250 q 90 453 92 386 q 87 580 88 519 q 86 685 86 640 l 86 693 q 85 736 86 717 q 68 763 83 756 q 49 773 60 767 q 27 794 38 779 q 10 834 17 808 q 0 901 3 860 q 0 945 -1 922 q 7 990 1 968 q 23 1030 13 1011 q 50 1061 33 1049 q 169 1092 89 1089 q 367 1096 249 1096 q 532 1095 446 1096 q 700 1086 618 1094 q 856 1059 782 1078 q 985 1003 929 1040 q 1073 908 1040 967 q 1106 763 1106 849 q 1088 661 1106 706 q 1044 583 1071 617 q 988 523 1018 549 q 932 478 958 497 q 888 447 906 460 q 871 424 871 433 q 892 398 871 418 q 943 347 913 378 q 1010 277 974 317 q 1078 194 1047 238 q 1129 102 1108 150 q 1150 7 1150 54 m 428 686 q 431 630 428 653 q 442 592 433 607 q 470 569 451 576 q 521 563 489 563 q 576 572 544 563 q 638 597 608 581 q 689 633 668 613 q 710 678 710 654 q 660 760 710 729 q 535 790 610 790 q 452 771 476 790 q 428 686 428 751 z "},"S":{"ha":1117,"x_min":33,"x_max":1079,"o":"m 522 -87 q 392 -81 463 -87 q 255 -65 321 -75 q 135 -42 189 -54 q 54 -17 81 -29 q 38 85 42 25 q 35 203 33 144 q 45 309 38 261 q 65 375 53 357 q 148 355 99 367 q 253 333 197 343 q 365 317 308 324 q 469 310 422 310 q 572 344 572 310 q 526 389 572 368 q 411 436 479 410 q 294 488 356 457 q 180 561 232 518 q 94 659 128 604 q 60 785 60 714 q 88 925 60 864 q 192 1026 115 986 q 406 1088 269 1067 q 757 1108 542 1108 q 838 1106 796 1108 q 917 1100 879 1104 q 986 1091 956 1096 q 1032 1081 1017 1086 q 1047 1040 1040 1068 q 1058 974 1053 1011 q 1065 894 1063 936 q 1067 812 1067 851 q 1064 739 1067 772 q 1054 686 1061 706 q 940 722 1003 710 q 792 733 876 733 q 652 721 700 733 q 604 685 604 708 q 651 636 604 661 q 764 582 697 611 q 871 528 815 560 q 973 455 926 496 q 1049 363 1019 414 q 1079 253 1079 313 q 522 -87 1079 -87 z "},"T":{"ha":1199,"x_min":21,"x_max":1171,"o":"m 839 -37 q 712 -66 776 -57 q 588 -75 647 -75 q 478 -65 529 -75 q 389 -35 426 -56 q 376 8 376 -14 q 375 60 375 31 q 381 197 375 135 q 396 317 388 258 q 410 435 404 375 q 417 569 417 496 q 415 610 417 590 q 405 645 414 629 q 377 670 396 661 q 324 679 358 679 q 263 674 290 679 q 209 663 235 669 q 156 652 183 657 q 96 647 129 647 q 79 649 85 647 q 43 744 57 690 q 25 853 29 799 q 26 958 21 908 q 46 1038 31 1007 q 176 1071 113 1057 q 308 1094 240 1085 q 449 1107 375 1103 q 607 1111 522 1111 q 763 1107 692 1111 q 899 1093 835 1103 q 1024 1069 964 1083 q 1147 1035 1085 1056 q 1167 835 1171 933 q 1115 628 1164 738 q 1033 640 1069 635 q 967 651 997 646 q 913 660 938 657 q 864 663 888 663 q 824 653 838 663 q 804 629 810 643 q 798 599 799 615 q 797 569 797 583 q 803 428 797 489 q 816 313 808 367 q 831 206 824 258 q 844 90 839 153 q 851 7 849 35 q 839 -37 854 -21 z "},"U":{"ha":1306,"x_min":31,"x_max":1272,"o":"m 769 1032 q 883 1056 818 1047 q 1013 1064 947 1064 q 1138 1054 1079 1064 q 1231 1024 1196 1044 q 1265 870 1258 964 q 1272 663 1272 776 q 1244 317 1272 458 q 1141 88 1215 176 q 938 -40 1067 0 q 607 -79 808 -79 q 417 -62 506 -79 q 259 -5 329 -46 q 138 106 189 36 q 60 279 88 175 q 41 391 47 331 q 33 514 35 451 q 31 637 31 576 q 32 750 32 697 q 38 941 32 858 q 78 1081 43 1024 q 174 1101 117 1094 q 293 1108 231 1108 q 430 1100 364 1108 q 542 1074 496 1092 q 551 1003 551 1050 q 551 889 551 956 q 551 783 551 833 q 550 683 550 732 q 549 584 550 635 q 549 478 549 533 q 554 425 549 451 q 573 377 560 399 q 608 342 586 356 q 661 328 629 328 q 722 344 699 328 q 758 388 744 361 q 775 448 771 414 q 779 517 779 482 q 771 707 779 607 q 763 896 763 807 q 760 965 763 935 q 769 1032 758 994 z "},"V":{"ha":1318,"x_min":10,"x_max":1303,"o":"m 935 1086 q 1027 1103 976 1099 q 1128 1107 1078 1108 q 1222 1097 1178 1106 q 1290 1072 1265 1089 q 1301 1049 1300 1061 q 1303 1024 1303 1038 q 1291 880 1303 963 q 1256 703 1279 797 q 1199 509 1233 608 q 1120 316 1165 410 q 1019 141 1075 222 q 896 0 963 60 q 850 -36 871 -21 q 803 -60 829 -51 q 743 -74 778 -69 q 657 -78 708 -78 q 478 -54 553 -78 q 351 36 403 -31 q 220 248 276 132 q 124 477 164 364 q 61 692 85 590 q 26 863 38 794 q 11 994 13 943 q 32 1081 10 1044 q 117 1097 68 1092 q 219 1103 165 1103 q 324 1098 272 1104 q 418 1076 376 1092 q 444 1052 432 1065 q 463 1022 456 1039 q 490 939 475 996 q 519 812 504 882 q 551 667 535 742 q 585 531 568 593 q 621 430 603 469 q 657 390 639 390 q 688 429 669 390 q 726 528 706 468 q 767 660 746 588 q 806 801 788 733 q 840 922 825 868 q 865 1000 856 976 q 894 1048 876 1026 q 935 1086 911 1069 z "},"W":{"ha":1528,"x_min":22,"x_max":1506,"o":"m 1269 -26 q 1199 -42 1238 -35 q 1118 -53 1160 -50 q 1035 -56 1076 -57 q 956 -46 993 -54 q 921 -1 938 -29 q 888 57 904 26 q 857 118 872 88 q 826 171 842 149 q 808 201 818 185 q 788 233 799 218 q 740 247 768 249 q 690 233 713 244 q 676 198 683 217 q 661 164 669 179 q 639 108 651 142 q 612 39 626 74 q 581 -24 597 4 q 549 -65 565 -53 q 478 -78 519 -74 q 394 -82 438 -82 q 308 -78 350 -82 q 232 -65 265 -74 q 189 -24 204 -50 q 158 36 174 3 q 101 204 126 104 q 58 417 76 304 q 31 645 40 529 q 22 861 22 761 q 31 1042 22 954 q 54 1088 32 1068 q 122 1107 82 1100 q 207 1115 163 1114 q 293 1111 251 1115 q 364 1096 335 1107 q 379 1083 372 1089 q 392 1071 386 1078 q 430 993 415 1042 q 454 890 444 944 q 469 781 464 836 q 478 682 474 726 q 493 577 485 619 q 528 535 501 535 q 570 559 553 535 q 607 619 588 583 q 629 666 618 640 q 651 717 640 692 q 676 767 663 743 q 703 807 689 790 q 763 816 731 819 q 825 799 796 813 q 875 711 853 763 q 913 618 897 660 q 947 538 929 572 q 1000 503 965 503 q 1033 528 1025 503 q 1040 597 1040 554 q 1040 628 1040 613 q 1039 663 1040 644 q 1038 705 1039 683 q 1038 749 1038 726 q 1038 842 1038 790 q 1046 944 1039 894 q 1069 1035 1053 993 q 1115 1100 1085 1078 q 1213 1105 1163 1104 q 1314 1103 1264 1106 q 1409 1093 1364 1100 q 1492 1072 1454 1086 q 1506 1032 1506 1051 q 1501 912 1506 993 q 1485 728 1496 831 q 1456 511 1474 625 q 1413 293 1439 397 q 1351 104 1386 189 q 1269 -26 1315 19 z "},"X":{"ha":1215,"x_min":0,"x_max":1197,"o":"m 1197 163 q 1153 97 1181 129 q 1090 39 1125 65 q 1017 -8 1056 13 q 940 -39 978 -28 q 874 -3 908 -25 q 809 47 840 19 q 749 103 778 74 q 700 163 721 133 q 642 233 668 207 q 597 258 615 258 q 556 231 579 258 q 504 163 532 203 q 455 102 482 132 q 399 46 428 72 q 342 -3 369 19 q 290 -39 314 -25 q 202 -16 247 -31 q 117 19 157 -1 q 46 67 76 40 q 0 126 15 93 l 0 128 q 24 211 0 168 q 83 296 47 254 q 162 376 118 338 q 244 446 206 415 q 283 476 263 461 q 320 503 303 490 q 349 526 338 517 q 360 539 360 535 q 350 554 360 543 q 324 580 340 565 q 288 612 308 594 q 244 646 267 629 q 178 697 215 667 q 107 760 142 726 q 47 827 72 793 q 13 892 21 861 q 48 960 17 922 q 120 1032 79 999 q 202 1088 161 1065 q 264 1108 243 1111 l 272 1108 q 322 1089 294 1108 q 378 1040 350 1069 q 434 978 407 1011 q 482 918 461 944 q 540 852 510 882 q 585 822 569 822 q 626 851 600 822 q 682 917 651 881 q 733 976 704 943 q 791 1038 761 1008 q 849 1087 821 1067 q 900 1108 878 1107 q 994 1090 946 1107 q 1083 1047 1043 1074 q 1153 988 1124 1021 q 1188 921 1182 954 q 1140 856 1174 896 q 1065 774 1106 815 q 985 696 1025 732 q 917 642 944 660 q 851 599 878 617 q 824 575 824 581 q 834 565 824 574 q 860 544 844 556 q 892 517 875 532 q 925 489 910 503 q 1006 417 960 456 q 1094 336 1053 378 q 1166 250 1136 294 q 1197 163 1196 206 z "},"Y":{"ha":971,"x_min":-3,"x_max":972,"o":"m 658 1121 q 744 1115 694 1125 q 842 1085 794 1104 q 926 1040 890 1067 q 971 986 963 1014 q 972 982 971 983 q 971 978 972 981 q 941 890 963 943 q 892 778 919 836 q 835 663 865 719 q 779 568 804 607 q 716 469 743 511 q 689 403 689 426 q 699 199 689 299 q 711 0 710 99 q 616 -30 669 -19 q 508 -42 563 -40 q 404 -35 454 -43 q 321 -11 354 -28 q 310 103 311 51 q 313 199 310 154 q 319 283 315 243 q 324 367 324 324 q 294 433 324 396 q 208 535 264 471 q 130 652 168 582 q 63 794 92 722 q 15 932 33 867 q -3 1033 -3 997 q 54 1064 17 1049 q 136 1090 92 1079 q 227 1106 181 1101 q 311 1103 274 1110 q 340 1051 326 1082 q 367 983 353 1019 q 398 907 382 946 q 432 835 414 868 q 470 778 449 804 q 503 753 492 753 q 520 767 511 753 q 538 803 529 782 q 555 848 546 824 q 572 893 564 872 q 592 948 583 915 q 611 1014 601 981 q 632 1076 621 1047 q 658 1121 643 1106 z "},"Z":{"ha":1108,"x_min":21,"x_max":1093,"o":"m 1011 1008 q 1033 873 1033 942 q 1004 721 1032 804 q 955 681 981 704 q 903 633 929 657 q 853 586 878 610 q 806 546 828 563 q 746 500 779 526 q 681 446 713 474 q 622 392 649 418 q 583 346 596 365 q 596 337 585 338 q 613 336 607 336 q 702 349 657 336 q 792 376 747 361 q 881 403 836 390 q 972 415 926 415 q 1013 408 992 415 q 1079 242 1065 331 q 1086 63 1093 154 q 996 -6 1056 19 q 867 -43 936 -31 q 730 -59 799 -56 q 613 -62 661 -62 q 479 -62 558 -62 q 318 -53 400 -61 q 163 -29 236 -46 q 44 21 89 -12 q 29 84 35 50 q 22 152 24 118 q 24 217 21 186 q 38 274 28 249 q 83 325 57 301 q 137 371 108 349 q 194 415 165 393 q 249 458 224 436 q 304 501 271 476 q 369 555 338 526 q 422 615 400 583 q 444 678 444 647 q 428 714 444 706 q 389 722 413 722 q 260 715 322 722 q 131 707 197 707 q 72 715 100 707 q 44 856 51 776 q 53 1008 38 936 q 242 1087 126 1069 q 508 1104 358 1104 q 670 1101 600 1104 q 799 1089 740 1099 q 908 1060 857 1079 q 1011 1008 958 1040 z "},"[":{"ha":554,"x_min":40,"x_max":486,"o":"m 476 150 q 486 72 486 115 q 478 -10 486 29 q 415 -17 450 -15 q 345 -20 381 -19 q 278 -20 310 -21 q 224 -19 246 -19 q 163 -10 193 -19 q 121 32 132 -1 q 61 296 82 164 q 40 561 40 428 q 60 822 40 688 q 113 1074 79 956 q 153 1115 122 1106 q 214 1124 183 1124 q 275 1124 242 1124 q 343 1123 308 1124 q 412 1119 378 1122 q 475 1108 446 1115 q 485 1036 485 1075 q 475 961 486 997 q 433 969 454 964 q 383 974 413 974 q 356 967 363 974 q 347 953 349 960 q 319 752 326 858 q 311 551 311 646 q 310 455 311 504 q 311 356 310 406 q 318 256 313 306 q 336 161 324 207 q 344 147 339 154 q 368 140 349 140 q 426 144 404 140 q 476 150 449 147 z "},"\\":{"ha":896,"x_min":21,"x_max":869,"o":"m 869 22 q 813 -16 844 4 q 749 -53 782 -36 q 681 -83 715 -71 q 613 -100 646 -96 q 565 -67 585 -89 q 526 -18 546 -46 q 518 -6 522 -11 q 510 6 514 -1 q 367 219 442 97 q 226 475 293 342 q 103 742 158 608 q 21 986 49 875 q 67 1024 39 1007 q 126 1056 94 1042 q 192 1081 158 1071 q 253 1099 225 1092 q 278 1091 265 1096 q 300 1075 290 1086 q 383 959 335 1036 q 488 784 432 882 q 602 576 544 686 q 712 363 660 467 q 806 169 764 260 q 869 22 847 79 z "},"]":{"ha":547,"x_min":47,"x_max":496,"o":"m 56 -1 q 48 73 47 33 q 56 143 49 113 q 74 141 68 143 q 89 137 81 139 q 113 133 97 135 q 161 131 129 131 q 189 138 182 131 q 197 151 196 144 q 222 353 218 251 q 225 550 225 456 q 224 744 225 644 q 208 943 224 844 q 201 957 206 950 q 176 964 196 964 q 115 962 139 964 q 61 958 90 960 q 49 1044 50 1000 q 63 1114 49 1089 q 126 1122 90 1119 q 197 1124 161 1124 q 265 1124 232 1125 q 321 1124 299 1124 q 383 1115 351 1124 q 424 1072 414 1106 q 452 958 439 1017 q 475 834 465 899 q 490 697 485 769 q 496 540 496 624 q 494 411 496 476 q 487 281 493 346 q 468 153 481 217 q 432 31 456 90 q 390 -10 419 -1 q 331 -19 361 -19 q 265 -19 301 -19 q 193 -19 229 -19 q 121 -14 157 -18 q 56 -1 85 -10 z "},"^":{"ha":847,"x_min":60,"x_max":797,"o":"m 797 694 q 753 656 778 674 q 699 624 728 638 q 642 602 671 610 q 586 596 613 594 q 551 660 572 615 q 509 753 531 706 q 467 835 488 800 q 433 871 447 871 q 406 858 419 871 q 378 828 392 846 q 353 789 365 810 q 332 750 342 768 q 310 712 319 729 q 289 676 300 694 q 266 640 278 658 q 238 597 254 621 q 140 644 188 617 q 60 704 92 672 q 90 785 68 739 q 144 879 113 831 q 212 975 175 928 q 287 1059 249 1022 q 362 1118 325 1096 q 428 1140 399 1140 q 504 1117 464 1140 q 585 1057 544 1094 q 664 972 626 1019 q 731 874 701 924 q 778 777 760 824 q 797 694 796 731 z "},"_":{"ha":839,"x_min":78,"x_max":757,"o":"m 729 50 q 753 -53 749 7 q 746 -168 757 -114 q 664 -191 708 -182 q 574 -206 619 -200 q 483 -215 528 -212 q 396 -218 438 -218 q 332 -217 375 -218 q 243 -211 289 -215 q 156 -201 197 -207 q 99 -187 115 -196 q 82 -93 86 -143 q 88 3 78 -43 q 90 4 90 4 q 188 36 128 24 q 315 56 249 49 q 449 67 382 64 q 568 71 517 71 q 663 67 624 71 q 729 50 703 63 z "},"`":{"ha":603,"x_min":79,"x_max":524,"o":"m 79 1356 q 122 1428 90 1393 q 196 1486 154 1463 q 217 1489 210 1489 q 294 1456 256 1489 q 322 1428 308 1444 q 349 1392 335 1411 q 392 1343 369 1364 q 443 1301 415 1322 q 483 1269 461 1288 q 524 1229 506 1251 q 498 1168 514 1197 q 450 1122 482 1139 q 365 1143 410 1126 q 281 1181 321 1160 q 209 1226 242 1203 q 158 1263 176 1249 q 110 1306 133 1283 q 79 1356 88 1328 z "},"a":{"ha":1264,"x_min":-3,"x_max":1261,"o":"m 1260 21 q 1197 -12 1246 1 q 1087 -33 1149 -26 q 962 -39 1025 -40 q 856 -26 899 -37 q 821 58 840 15 q 790 139 801 100 q 773 175 785 163 q 742 194 761 188 q 695 201 724 200 q 626 203 667 203 q 581 203 607 203 q 529 203 554 204 q 483 198 504 201 q 456 186 463 194 q 443 170 449 178 q 432 151 438 163 q 420 124 426 140 q 404 79 414 107 q 390 35 396 54 q 381 1 385 15 q 372 -26 376 -14 q 361 -50 368 -39 q 265 -49 318 -54 q 161 -34 213 -44 q 66 -8 110 -24 q -3 25 22 7 q 1 63 -3 42 q 10 108 6 85 q 21 152 15 131 q 31 190 26 174 q 81 397 51 282 q 151 626 111 511 q 238 842 190 740 q 344 1006 286 943 q 397 1040 364 1026 q 471 1063 429 1054 q 558 1076 513 1072 q 650 1081 604 1081 q 724 1075 682 1081 q 809 1057 767 1069 q 890 1023 851 1044 q 950 968 928 1001 q 1013 858 982 922 q 1072 717 1043 793 q 1126 556 1100 640 q 1176 386 1153 471 q 1217 219 1199 301 q 1251 67 1236 138 q 1258 44 1254 56 q 1260 21 1261 32 m 522 481 q 538 440 515 446 q 585 434 561 433 q 633 435 610 435 q 695 438 671 435 q 732 448 719 442 q 748 462 744 454 q 749 479 751 469 q 736 541 744 497 q 714 631 728 585 q 680 711 700 676 q 632 746 660 746 q 593 713 611 746 q 561 636 575 681 q 537 548 547 592 q 522 481 526 504 z "},"b":{"ha":1172,"x_min":-4,"x_max":1149,"o":"m 568 603 q 621 610 594 603 q 668 634 647 618 q 702 674 689 650 q 715 728 715 697 q 676 800 715 771 q 569 829 636 829 q 520 825 540 829 q 488 809 500 821 q 470 776 475 797 q 465 718 465 754 q 488 626 465 649 q 568 603 511 603 m 561 211 q 609 218 583 211 q 658 237 635 225 q 696 265 681 249 q 711 301 711 282 q 674 392 711 363 q 553 421 636 421 q 482 400 503 421 q 461 314 461 379 q 467 260 461 281 q 484 229 472 240 q 515 215 496 218 q 561 211 533 211 m 107 821 q 11 844 33 818 q -2 922 0 874 q 8 1021 -4 969 q 57 1058 18 1044 q 149 1078 96 1072 q 265 1086 203 1085 q 385 1086 328 1088 q 489 1083 443 1085 q 557 1081 535 1081 l 560 1081 q 740 1065 646 1081 q 913 1011 833 1049 q 1043 913 992 974 q 1094 760 1094 851 q 1044 633 1094 681 q 911 561 994 586 q 863 539 878 550 q 849 525 849 528 q 880 508 849 518 q 951 489 911 497 q 1098 418 1047 468 q 1149 276 1149 368 q 1144 226 1149 254 q 1128 169 1140 199 q 1097 108 1117 139 q 1043 49 1076 78 q 932 -15 999 10 q 786 -53 865 -39 q 618 -72 707 -67 q 439 -78 529 -78 q 355 -72 401 -78 q 264 -55 308 -67 q 183 -24 219 -43 q 132 21 147 -6 q 100 99 108 63 q 91 182 92 135 q 94 294 90 229 q 97 458 97 360 q 101 558 97 500 q 108 672 106 617 q 113 769 111 726 q 107 821 114 811 z "},"c":{"ha":1008,"x_min":15,"x_max":989,"o":"m 958 375 q 978 309 971 357 q 987 203 985 261 q 985 85 989 144 q 968 -17 981 25 q 901 -43 942 -29 q 810 -68 861 -57 q 703 -87 760 -79 q 586 -94 646 -94 q 354 -62 460 -94 q 174 41 249 -31 q 57 228 99 113 q 15 511 15 344 q 58 794 15 682 q 180 974 101 907 q 367 1067 258 1040 q 610 1093 476 1093 q 802 1082 718 1093 q 939 1053 886 1071 q 953 1010 947 1040 q 964 943 960 981 q 971 863 968 906 q 973 780 974 819 q 969 708 972 740 q 961 658 967 676 q 894 697 925 675 q 830 739 864 719 q 751 772 796 758 q 644 785 707 785 q 553 768 599 785 q 473 719 508 751 q 416 638 438 686 q 394 525 394 589 q 453 335 394 396 q 613 275 513 275 q 707 288 660 275 q 799 317 754 300 q 885 350 844 333 q 958 375 925 367 z "},"d":{"ha":1119,"x_min":0,"x_max":1092,"o":"m 519 760 q 473 746 490 760 q 447 702 456 732 q 435 626 438 672 q 432 518 432 581 q 449 327 432 392 q 524 263 467 263 q 598 283 561 263 q 664 340 635 303 q 710 429 693 378 q 728 543 728 481 q 671 705 728 650 q 519 760 614 760 m 76 788 q 35 807 50 786 q 12 857 19 828 q 2 917 4 886 q 0 968 0 949 q 4 1019 0 997 q 22 1056 8 1042 q 60 1078 36 1071 q 124 1086 85 1086 q 234 1085 179 1086 q 344 1076 289 1083 q 519 1060 432 1067 q 693 1033 607 1053 q 879 959 803 1010 q 1003 839 956 908 q 1071 686 1050 769 q 1092 513 1092 603 q 1056 312 1092 400 q 958 156 1019 224 q 817 42 897 89 q 648 -35 736 -6 q 468 -78 560 -64 q 294 -92 376 -92 q 163 -52 214 -92 q 100 54 113 -12 q 87 160 92 100 q 79 286 82 221 q 75 415 76 351 q 74 531 74 479 q 74 599 74 568 q 75 660 75 631 q 76 719 75 689 q 76 788 76 750 z "},"e":{"ha":940,"x_min":44,"x_max":903,"o":"m 864 271 q 888 205 879 247 q 900 115 897 163 q 900 22 903 68 q 886 -54 897 -24 q 797 -77 847 -69 q 692 -88 746 -85 q 585 -92 638 -92 q 486 -93 532 -93 q 245 -87 332 -93 q 117 -59 158 -82 q 65 11 75 -36 q 56 143 56 58 q 55 278 56 208 q 53 413 54 349 q 49 668 49 540 q 48 681 49 674 q 47 697 47 688 q 46 731 46 713 q 46 769 46 750 q 45 853 46 807 q 49 942 44 900 q 67 1018 54 985 q 107 1063 81 1051 q 202 1089 150 1081 q 308 1100 254 1097 q 415 1102 363 1103 q 510 1101 467 1101 q 590 1099 546 1101 q 679 1090 633 1096 q 769 1074 725 1083 q 847 1051 813 1065 q 865 992 860 1029 q 868 913 869 954 q 862 830 867 871 q 850 757 857 789 q 810 749 832 751 q 758 747 789 747 q 683 748 726 747 q 576 749 639 749 l 507 749 q 435 748 463 749 q 393 742 408 747 q 373 725 378 736 q 368 694 368 714 q 371 667 368 681 q 383 643 374 654 q 408 625 392 632 q 453 618 425 618 q 515 619 478 618 q 576 624 553 621 q 623 628 600 626 q 669 629 646 629 q 710 625 692 629 q 722 561 718 599 q 726 486 726 524 q 724 416 726 449 q 717 368 721 383 q 692 361 707 365 q 667 357 676 357 q 631 358 649 357 q 593 363 613 360 q 542 367 574 365 q 489 368 510 368 q 417 351 439 368 q 396 311 396 333 q 417 263 396 274 q 500 251 438 251 q 540 252 518 251 q 585 255 563 253 q 631 259 608 257 q 669 263 653 261 q 753 270 706 267 q 838 274 801 274 q 851 273 844 274 q 864 271 857 272 z "},"f":{"ha":921,"x_min":19,"x_max":893,"o":"m 454 -75 q 372 -102 418 -92 q 276 -115 325 -112 q 176 -112 226 -117 q 83 -94 126 -107 q 67 -59 75 -86 q 53 17 60 -32 q 42 140 46 65 q 38 318 38 214 q 33 423 38 357 q 26 567 29 489 q 21 728 22 646 q 26 878 19 810 q 47 996 32 947 q 92 1056 63 1044 q 148 1069 113 1064 q 228 1079 183 1075 q 321 1085 272 1083 q 415 1088 369 1086 q 498 1089 460 1089 q 560 1089 536 1089 q 698 1083 619 1089 q 847 1060 776 1076 q 875 978 864 1026 q 890 876 886 929 q 888 774 893 824 q 869 690 883 725 q 839 677 856 679 q 804 675 822 675 q 720 685 763 675 q 636 708 678 696 q 552 731 594 721 q 467 742 510 742 q 402 731 419 742 q 385 679 385 721 q 400 613 385 639 q 467 588 415 588 q 581 599 521 588 q 693 606 640 610 q 724 553 714 593 q 736 464 735 513 q 728 367 738 415 q 701 290 719 318 q 647 293 676 288 q 588 306 618 299 q 527 319 558 313 q 467 326 496 326 q 422 322 435 326 q 410 286 410 318 q 419 211 410 249 q 437 131 428 174 q 452 38 446 88 q 454 -75 458 -12 z "},"g":{"ha":1144,"x_min":21,"x_max":1122,"o":"m 981 1036 q 1008 965 1000 1006 q 1014 881 1015 924 q 1004 797 1013 838 q 983 726 996 756 q 919 724 953 722 q 849 728 886 725 q 771 736 813 732 q 682 740 729 740 q 517 717 575 740 q 433 656 460 693 q 401 573 406 618 q 396 486 396 528 q 399 415 396 453 q 415 347 401 378 q 457 294 429 315 q 535 274 485 274 q 622 281 581 274 q 693 300 663 288 q 742 331 724 313 q 760 374 760 350 q 704 400 760 400 q 665 395 682 400 q 633 385 649 390 q 603 374 618 379 q 567 369 588 369 l 560 369 q 533 422 543 393 q 518 478 522 450 q 517 533 514 507 q 532 575 521 558 q 603 622 560 603 q 692 651 646 640 q 786 667 739 663 q 869 672 833 672 q 913 670 886 672 q 969 663 940 668 q 1023 648 997 657 q 1061 624 1049 639 q 1092 570 1081 603 q 1111 499 1104 538 q 1120 419 1118 460 q 1122 340 1122 378 q 557 -89 1122 -89 q 303 -45 406 -89 q 138 75 200 -1 q 48 256 75 151 q 21 482 21 361 q 58 720 21 611 q 168 909 94 829 q 353 1034 242 989 q 613 1079 464 1079 q 727 1078 671 1079 q 833 1072 783 1076 q 920 1058 882 1067 q 981 1036 958 1050 z "},"h":{"ha":1171,"x_min":36,"x_max":1136,"o":"m 686 1063 q 726 1074 699 1069 q 788 1082 753 1079 q 863 1085 824 1085 q 938 1082 901 1085 q 1003 1073 974 1079 q 1047 1057 1032 1067 q 1049 1053 1049 1054 q 1051 1050 1050 1053 q 1075 978 1064 1024 q 1095 877 1086 933 q 1111 757 1104 821 q 1123 629 1118 693 q 1131 505 1128 565 q 1133 396 1133 444 q 1135 293 1133 351 q 1135 174 1136 235 q 1131 56 1135 114 q 1118 -46 1128 -1 q 1110 -67 1115 -57 q 1093 -81 1104 -76 q 1013 -85 1063 -87 q 910 -73 963 -82 q 810 -50 858 -64 q 735 -19 763 -36 q 726 17 726 -3 q 726 77 726 42 q 725 149 725 113 q 724 221 725 186 q 724 281 724 256 q 722 320 724 304 q 708 346 719 336 q 676 359 697 356 q 614 363 654 363 q 544 356 569 363 q 505 335 518 349 q 488 299 492 321 q 485 247 485 278 q 488 193 485 224 q 494 130 490 163 q 500 67 497 97 q 503 11 503 36 q 490 -24 503 -11 q 460 -49 478 -36 q 391 -62 436 -56 q 297 -69 346 -68 q 202 -67 247 -71 q 132 -49 157 -62 q 119 -32 124 -40 q 88 80 103 1 q 63 256 74 158 q 45 458 51 354 q 36 646 39 563 q 36 730 36 682 q 38 828 36 778 q 42 926 40 878 q 49 1011 44 975 q 52 1040 50 1026 q 65 1065 54 1054 q 118 1079 85 1074 q 190 1088 151 1085 q 270 1090 229 1090 q 347 1088 311 1090 q 410 1081 383 1086 q 444 1069 436 1076 q 460 1034 457 1054 q 463 988 463 1014 q 461 915 463 956 q 458 833 460 875 q 454 751 456 792 q 453 679 453 711 q 455 631 453 650 q 469 602 457 613 q 506 588 481 592 q 579 585 532 585 q 655 588 628 585 q 696 603 682 592 q 713 638 710 615 q 717 699 717 660 q 714 760 717 726 q 706 830 711 794 q 696 900 701 865 q 686 964 690 935 q 679 1019 682 990 q 686 1063 676 1049 z "},"i":{"ha":629,"x_min":65,"x_max":582,"o":"m 101 768 q 153 782 121 776 q 224 790 185 788 q 303 794 263 793 q 383 794 344 796 q 451 787 421 792 q 497 775 481 782 q 504 760 503 768 q 535 592 522 686 q 558 399 549 499 q 573 199 567 299 q 582 15 579 100 q 571 -25 582 -8 q 480 -54 536 -43 q 360 -68 424 -65 q 233 -66 297 -71 q 118 -47 169 -61 q 103 -21 107 -33 q 86 160 92 32 q 81 475 81 288 q 84 633 81 569 q 97 754 88 697 q 101 768 97 763 m 99 856 q 72 979 79 908 q 76 1111 65 1050 q 172 1131 114 1124 q 292 1141 229 1139 q 412 1139 354 1143 q 507 1121 469 1135 q 511 1054 511 1090 q 508 982 511 1018 q 499 911 506 946 q 486 849 493 876 q 394 837 446 840 q 290 834 343 833 q 188 840 238 835 q 99 856 138 846 z "},"j":{"ha":1015,"x_min":17,"x_max":989,"o":"m 44 -22 q 24 49 31 4 q 17 144 17 94 q 26 240 18 193 q 50 314 35 286 q 113 316 82 321 q 178 302 144 311 q 249 284 211 293 q 331 275 286 275 q 397 283 371 275 q 437 310 422 292 q 456 362 451 329 q 461 442 461 394 q 462 502 461 461 q 462 589 463 543 q 458 678 461 635 q 449 743 456 721 q 431 763 444 757 q 398 769 417 768 q 358 769 379 771 q 315 768 336 768 q 262 767 286 768 q 215 765 238 765 q 167 763 192 764 q 115 761 143 761 q 72 772 88 761 q 59 858 63 811 q 58 949 56 906 q 71 1028 61 993 q 97 1079 81 1063 q 153 1088 122 1088 q 521 1085 343 1088 q 889 1082 699 1082 q 949 1075 918 1082 q 973 1015 964 1050 q 985 942 982 981 q 987 863 989 903 q 979 788 985 822 q 933 776 960 778 q 874 775 907 775 q 835 774 849 775 q 814 771 821 774 q 806 763 807 768 q 804 751 804 758 q 806 710 804 738 q 809 650 807 682 q 815 585 811 618 q 822 528 818 553 q 835 412 833 472 q 838 282 838 351 q 809 115 838 183 q 727 5 781 47 q 599 -56 674 -37 q 432 -75 524 -75 q 319 -73 376 -75 q 210 -65 261 -71 q 115 -48 158 -58 q 44 -22 72 -37 z "},"k":{"ha":1010,"x_min":15,"x_max":978,"o":"m 978 167 q 951 90 972 128 q 898 22 929 53 q 828 -33 867 -10 q 747 -68 789 -57 q 706 -31 729 -57 q 660 26 683 -6 q 616 90 638 57 q 578 147 594 122 q 515 247 539 208 q 474 306 490 285 q 449 334 458 326 q 429 342 439 342 q 409 326 414 342 q 404 285 404 311 q 408 231 404 264 q 415 161 411 199 q 422 83 418 124 q 425 3 425 42 q 414 -32 425 -14 q 334 -54 378 -44 q 246 -69 290 -64 q 160 -74 201 -75 q 89 -67 119 -74 q 54 -22 61 -51 q 38 78 44 19 q 26 202 31 138 q 18 329 21 267 q 15 439 15 392 q 18 588 15 504 q 26 759 21 672 q 42 926 32 846 q 64 1061 51 1006 q 71 1076 67 1069 q 81 1088 75 1082 q 155 1097 110 1093 q 247 1099 200 1100 q 336 1091 294 1097 q 397 1072 378 1085 q 413 1032 413 1058 q 408 971 413 999 q 400 915 404 943 q 392 858 396 888 q 388 789 388 828 q 394 756 388 769 q 415 743 400 743 q 440 758 424 743 q 478 796 457 772 q 522 849 499 819 q 565 907 544 878 q 613 967 585 935 q 669 1028 640 1000 q 726 1077 699 1057 q 772 1099 754 1097 q 835 1067 801 1090 q 900 1011 869 1043 q 953 942 931 979 q 978 868 975 904 q 933 815 961 844 q 874 754 906 785 q 808 694 842 724 q 746 640 775 664 q 706 604 721 619 q 685 578 692 589 q 676 558 678 567 q 675 540 675 549 q 703 490 675 525 q 774 411 731 454 q 834 351 804 379 q 890 294 864 322 q 939 235 917 265 q 978 167 961 204 z "},"l":{"ha":935,"x_min":10,"x_max":924,"o":"m 75 1085 q 172 1104 118 1099 q 278 1108 225 1110 q 378 1097 331 1106 q 456 1072 425 1088 q 473 1012 471 1044 q 475 943 475 979 q 469 812 475 882 q 458 671 464 742 q 446 531 451 600 q 440 401 440 461 q 442 350 440 371 q 452 317 443 329 q 481 299 461 304 q 538 293 501 293 q 615 299 578 293 q 688 313 653 306 q 760 326 724 319 q 833 332 796 332 l 838 332 q 878 270 863 307 q 905 192 894 233 q 919 106 915 150 q 924 25 924 63 q 893 7 911 15 q 799 -35 847 -18 q 689 -62 751 -51 q 541 -78 626 -74 q 333 -83 456 -83 q 177 -70 238 -83 q 75 -21 117 -57 q 34 45 47 3 q 15 152 21 88 q 10 304 10 217 q 11 504 11 392 q 12 585 11 538 q 14 685 13 632 q 19 793 15 738 q 28 899 22 849 q 41 990 33 949 q 58 1054 49 1031 q 66 1070 61 1063 q 75 1085 71 1078 z "},"m":{"ha":1475,"x_min":36,"x_max":1428,"o":"m 239 1075 q 301 1076 267 1075 q 369 1075 335 1076 q 435 1069 403 1074 q 493 1053 468 1064 q 551 1009 524 1040 q 603 940 579 978 q 649 863 628 901 q 683 794 669 824 q 701 755 692 778 q 722 718 711 732 q 764 697 739 697 q 797 713 785 697 q 824 753 813 731 q 847 796 836 776 q 892 867 867 828 q 946 942 917 906 q 1009 1009 975 979 q 1078 1051 1043 1039 q 1131 1061 1097 1058 q 1185 1064 1164 1064 q 1222 1063 1200 1064 q 1266 1057 1243 1061 q 1309 1047 1289 1053 q 1342 1033 1329 1042 q 1381 961 1365 1017 q 1405 829 1396 906 q 1419 665 1414 753 q 1426 494 1424 576 q 1428 346 1428 413 q 1428 246 1428 279 q 1427 181 1428 222 q 1424 94 1426 139 q 1418 10 1422 50 q 1407 -50 1414 -31 q 1304 -72 1358 -65 q 1200 -78 1250 -78 q 1112 -72 1158 -78 q 1026 -49 1065 -67 q 1010 7 1013 -26 q 1008 65 1008 40 l 1008 199 q 1015 321 1008 261 q 1021 442 1021 381 q 1021 457 1021 446 q 1020 479 1021 468 q 1015 499 1019 490 q 1003 507 1011 507 q 960 469 988 507 q 905 381 933 431 q 851 286 876 332 q 814 224 826 240 q 782 213 799 215 q 749 210 765 210 q 707 214 728 210 q 668 229 686 218 q 649 263 661 239 q 620 317 636 286 q 587 380 604 347 q 553 440 569 413 q 523 484 536 467 q 501 501 510 501 q 488 494 492 501 q 482 478 483 488 q 481 458 481 468 q 481 442 481 449 q 486 267 481 354 q 492 90 492 179 q 490 22 492 61 q 481 -44 489 -17 q 402 -58 442 -56 q 322 -60 363 -60 q 260 -58 294 -60 q 192 -53 226 -57 q 125 -42 158 -49 q 67 -26 92 -36 q 63 -1 63 -14 q 68 128 63 63 q 82 258 74 194 q 103 528 99 393 q 124 800 108 664 q 96 819 111 818 q 67 826 81 821 q 45 853 54 832 q 36 932 36 874 q 51 1015 36 986 q 92 1058 65 1044 q 156 1073 118 1071 q 239 1075 193 1075 z "},"n":{"ha":1200,"x_min":4,"x_max":1164,"o":"m 1071 -10 q 1025 -32 1058 -24 q 950 -42 992 -40 q 864 -41 908 -44 q 785 -26 819 -37 q 669 86 718 21 q 581 210 619 151 q 514 310 543 269 q 461 351 485 351 q 434 344 439 351 q 429 310 429 336 q 434 246 429 281 q 445 176 439 211 q 456 106 451 140 q 461 42 461 71 q 458 4 461 22 q 443 -29 456 -14 q 363 -58 411 -49 q 264 -69 315 -67 q 165 -67 213 -71 q 86 -57 118 -64 q 71 -25 74 -40 q 58 40 64 3 q 49 115 53 76 q 44 190 46 153 q 42 256 42 226 q 47 492 42 376 q 75 719 51 608 q 78 735 78 731 q 79 744 79 740 q 72 769 79 761 q 53 783 64 776 q 33 797 43 789 q 15 821 22 804 q 10 842 13 828 q 7 870 8 856 q 5 898 6 885 q 4 919 4 911 q 11 1010 4 978 q 38 1057 18 1042 q 90 1075 57 1072 q 175 1078 124 1078 q 258 1076 217 1078 q 342 1074 300 1074 q 417 1069 378 1074 q 488 1042 457 1065 q 531 983 510 1025 q 572 889 551 942 q 610 778 592 836 q 649 673 629 721 q 687 594 668 625 q 725 564 706 564 q 748 585 744 564 q 751 628 751 606 q 745 790 751 714 q 739 951 739 867 q 742 1008 739 976 q 765 1058 746 1040 q 835 1076 794 1071 q 922 1082 876 1082 q 1010 1075 967 1082 q 1088 1056 1054 1068 q 1121 1008 1111 1036 q 1144 919 1136 969 q 1157 817 1153 869 q 1163 714 1161 765 q 1164 621 1164 663 q 1163 531 1164 583 q 1160 420 1163 479 q 1152 300 1157 361 q 1138 183 1147 239 q 1113 78 1128 126 q 1078 0 1099 31 q 1074 -5 1075 -3 q 1071 -10 1074 -7 z "},"o":{"ha":1242,"x_min":15,"x_max":1221,"o":"m 15 511 q 92 869 15 738 q 299 1053 168 1001 q 375 1074 333 1067 q 460 1086 417 1082 q 547 1092 504 1090 q 628 1093 590 1093 q 704 1092 664 1093 q 786 1085 744 1090 q 867 1073 828 1081 q 939 1053 907 1065 q 1056 981 1004 1026 q 1145 869 1108 936 q 1201 713 1182 803 q 1221 511 1221 624 q 1179 228 1221 344 q 1063 41 1138 113 q 883 -62 988 -31 q 650 -94 778 -94 l 586 -94 q 354 -62 460 -94 q 174 41 249 -31 q 57 228 99 113 q 15 511 15 344 m 618 783 q 535 765 575 783 q 463 714 494 747 q 413 633 432 681 q 394 525 394 585 q 448 341 394 407 q 618 275 501 275 q 790 341 736 275 q 843 525 843 407 q 824 633 843 585 q 774 714 806 681 q 703 765 743 747 q 618 783 663 783 z "},"p":{"ha":1115,"x_min":6,"x_max":1082,"o":"m 438 -47 q 353 -67 401 -60 q 258 -74 306 -74 q 166 -69 210 -74 q 93 -53 122 -64 q 68 -1 76 -31 q 57 64 60 29 q 54 137 54 99 q 54 214 54 175 q 60 460 54 338 q 65 706 65 582 q 66 749 65 728 q 64 793 67 771 q 53 815 63 806 q 33 840 43 825 q 14 878 22 854 q 6 944 6 901 q 9 1012 6 988 q 19 1050 13 1036 q 37 1070 26 1064 q 63 1082 47 1076 q 106 1092 75 1088 q 173 1101 136 1097 q 244 1108 210 1106 q 300 1110 279 1110 q 483 1108 390 1110 q 662 1096 575 1107 q 825 1058 749 1085 q 958 980 901 1031 q 1049 849 1015 929 q 1082 649 1082 768 q 1052 475 1082 544 q 974 362 1022 406 q 865 296 926 318 q 742 265 804 274 q 619 256 679 256 q 515 256 560 256 q 472 253 488 256 q 448 243 456 251 q 438 219 440 235 q 436 178 436 204 q 438 136 436 161 q 440 84 439 111 q 443 32 442 57 q 444 -10 444 7 q 438 -47 444 -33 m 443 658 q 447 594 443 617 q 464 560 451 571 q 499 546 476 549 q 558 543 522 543 q 617 549 585 543 q 678 569 650 554 q 725 609 706 583 q 744 675 744 635 q 736 717 744 696 q 708 756 728 739 q 654 783 688 772 q 571 793 621 793 q 506 788 531 793 q 467 767 481 782 q 448 726 453 751 q 443 658 443 700 z "},"q":{"ha":1290,"x_min":15,"x_max":1268,"o":"m 15 511 q 28 676 15 593 q 73 831 40 758 q 160 962 106 904 q 299 1053 215 1019 q 376 1075 335 1067 q 461 1088 418 1083 q 547 1092 504 1092 q 628 1093 589 1093 q 703 1092 663 1093 q 785 1086 744 1090 q 866 1074 826 1082 q 939 1053 906 1065 q 1061 971 1008 1025 q 1149 849 1114 917 q 1203 705 1185 781 q 1221 558 1221 629 q 1202 442 1221 494 q 1160 351 1183 390 q 1119 288 1138 313 q 1100 253 1100 263 q 1107 240 1100 244 q 1123 235 1114 236 q 1141 234 1132 233 q 1156 235 1150 235 q 1194 237 1175 235 q 1232 235 1213 239 q 1250 194 1243 217 q 1261 148 1257 172 q 1267 100 1265 124 q 1268 56 1268 76 q 1265 -5 1268 25 q 1253 -62 1261 -35 q 1139 -87 1207 -79 q 997 -97 1071 -94 q 851 -97 922 -99 q 728 -96 781 -96 q 657 -95 692 -96 q 586 -94 622 -94 q 331 -54 439 -94 q 153 63 222 -14 q 49 253 83 140 q 15 511 15 367 m 618 783 q 535 765 575 783 q 463 714 494 747 q 413 633 432 681 q 394 525 394 585 q 449 335 394 407 q 621 263 504 263 q 790 335 736 263 q 843 525 843 407 q 824 633 843 585 q 774 714 806 681 q 703 765 743 747 q 618 783 663 783 z "},"r":{"ha":1167,"x_min":-1,"x_max":1150,"o":"m 1150 7 q 1077 -21 1121 -8 q 985 -41 1033 -33 q 887 -50 936 -49 q 794 -43 838 -51 q 724 28 754 -19 q 672 122 694 75 q 579 269 619 229 q 519 308 539 308 q 492 301 497 308 q 488 278 488 293 q 493 228 488 265 q 503 144 499 190 q 505 53 507 99 q 488 -22 503 7 q 408 -42 454 -33 q 314 -54 363 -50 q 219 -58 265 -58 q 139 -51 172 -58 q 126 -28 132 -44 q 117 0 119 -11 q 107 78 111 29 q 99 189 103 128 q 94 318 96 250 q 90 453 92 386 q 87 580 88 519 q 86 685 86 640 l 86 693 q 85 736 86 717 q 68 763 83 756 q 49 773 60 767 q 27 794 38 779 q 10 834 17 808 q 0 901 3 860 q 0 945 -1 922 q 7 990 1 968 q 23 1030 13 1011 q 50 1061 33 1049 q 169 1092 89 1089 q 367 1096 249 1096 q 532 1095 446 1096 q 700 1086 618 1094 q 856 1059 782 1078 q 985 1003 929 1040 q 1073 908 1040 967 q 1106 763 1106 849 q 1088 661 1106 706 q 1044 583 1071 617 q 988 523 1018 549 q 932 478 958 497 q 888 447 906 460 q 871 424 871 433 q 892 398 871 418 q 943 347 913 378 q 1010 277 974 317 q 1078 194 1047 238 q 1129 102 1108 150 q 1150 7 1150 54 m 428 686 q 431 630 428 653 q 442 592 433 607 q 470 569 451 576 q 521 563 489 563 q 576 572 544 563 q 638 597 608 581 q 689 633 668 613 q 710 678 710 654 q 660 760 710 729 q 535 790 610 790 q 452 771 476 790 q 428 686 428 751 z "},"s":{"ha":1117,"x_min":33,"x_max":1079,"o":"m 522 -87 q 392 -81 463 -87 q 255 -65 321 -75 q 135 -42 189 -54 q 54 -17 81 -29 q 38 85 42 25 q 35 203 33 144 q 45 309 38 261 q 65 375 53 357 q 148 355 99 367 q 253 333 197 343 q 365 317 308 324 q 469 310 422 310 q 572 344 572 310 q 526 389 572 368 q 411 436 479 410 q 294 488 356 457 q 180 561 232 518 q 94 659 128 604 q 60 785 60 714 q 88 925 60 864 q 192 1026 115 986 q 406 1088 269 1067 q 757 1108 542 1108 q 838 1106 796 1108 q 917 1100 879 1104 q 986 1091 956 1096 q 1032 1081 1017 1086 q 1047 1040 1040 1068 q 1058 974 1053 1011 q 1065 894 1063 936 q 1067 812 1067 851 q 1064 739 1067 772 q 1054 686 1061 706 q 940 722 1003 710 q 792 733 876 733 q 652 721 700 733 q 604 685 604 708 q 651 636 604 661 q 764 582 697 611 q 871 528 815 560 q 973 455 926 496 q 1049 363 1019 414 q 1079 253 1079 313 q 522 -87 1079 -87 z "},"t":{"ha":1199,"x_min":21,"x_max":1171,"o":"m 839 -37 q 712 -66 776 -57 q 588 -75 647 -75 q 478 -65 529 -75 q 389 -35 426 -56 q 376 8 376 -14 q 375 60 375 31 q 381 197 375 135 q 396 317 388 258 q 410 435 404 375 q 417 569 417 496 q 415 610 417 590 q 405 645 414 629 q 377 670 396 661 q 324 679 358 679 q 263 674 290 679 q 209 663 235 669 q 156 652 183 657 q 96 647 129 647 q 79 649 85 647 q 43 744 57 690 q 25 853 29 799 q 26 958 21 908 q 46 1038 31 1007 q 176 1071 113 1057 q 308 1094 240 1085 q 449 1107 375 1103 q 607 1111 522 1111 q 763 1107 692 1111 q 899 1093 835 1103 q 1024 1069 964 1083 q 1147 1035 1085 1056 q 1167 835 1171 933 q 1115 628 1164 738 q 1033 640 1069 635 q 967 651 997 646 q 913 660 938 657 q 864 663 888 663 q 824 653 838 663 q 804 629 810 643 q 798 599 799 615 q 797 569 797 583 q 803 428 797 489 q 816 313 808 367 q 831 206 824 258 q 844 90 839 153 q 851 7 849 35 q 839 -37 854 -21 z "},"u":{"ha":1306,"x_min":31,"x_max":1272,"o":"m 769 1032 q 883 1056 818 1047 q 1015 1064 949 1064 q 1138 1054 1081 1064 q 1231 1024 1196 1044 q 1265 870 1258 964 q 1272 663 1272 776 q 1244 317 1272 458 q 1141 88 1215 176 q 938 -40 1067 0 q 607 -79 808 -79 q 417 -62 506 -79 q 259 -5 329 -46 q 138 106 189 36 q 60 279 88 175 q 41 391 47 331 q 33 514 35 451 q 31 637 31 576 q 32 750 32 697 q 38 941 32 858 q 78 1081 43 1024 q 179 1103 118 1096 q 306 1108 240 1110 q 435 1099 372 1107 q 542 1074 499 1090 q 551 1003 551 1050 q 551 889 551 956 q 551 783 551 833 q 550 683 550 732 q 549 584 550 635 q 549 478 549 533 q 554 425 549 451 q 573 377 560 399 q 608 342 586 356 q 661 328 629 328 q 722 344 699 328 q 758 388 744 361 q 775 448 771 414 q 779 517 779 482 q 771 707 779 607 q 763 896 763 807 q 760 965 763 935 q 769 1032 758 994 z "},"v":{"ha":1318,"x_min":10,"x_max":1303,"o":"m 935 1086 q 1027 1103 976 1099 q 1128 1107 1078 1108 q 1222 1097 1178 1106 q 1290 1072 1265 1089 q 1301 1049 1300 1061 q 1303 1024 1303 1038 q 1291 880 1303 963 q 1256 703 1279 797 q 1199 509 1233 608 q 1120 316 1165 410 q 1019 141 1075 222 q 896 0 963 60 q 850 -36 871 -21 q 803 -60 829 -51 q 743 -74 778 -69 q 657 -78 708 -78 q 478 -54 553 -78 q 351 36 403 -31 q 220 248 276 132 q 124 477 164 364 q 61 692 85 590 q 26 863 38 794 q 11 994 13 943 q 32 1081 10 1044 q 117 1097 68 1092 q 219 1103 165 1103 q 324 1098 272 1104 q 418 1076 376 1092 q 444 1052 432 1065 q 463 1022 456 1039 q 490 939 475 996 q 519 812 504 882 q 551 667 535 742 q 585 531 568 593 q 621 430 603 469 q 657 390 639 390 q 688 429 669 390 q 726 528 706 468 q 767 660 746 588 q 806 801 788 733 q 840 922 825 868 q 865 1000 856 976 q 894 1048 876 1026 q 935 1086 911 1069 z "},"w":{"ha":1528,"x_min":22,"x_max":1506,"o":"m 1269 -26 q 1199 -42 1238 -35 q 1118 -53 1160 -50 q 1035 -56 1076 -57 q 956 -46 993 -54 q 921 -1 938 -29 q 888 57 904 26 q 857 118 872 88 q 826 171 842 149 q 808 201 818 185 q 788 233 799 218 q 740 247 768 249 q 690 233 713 244 q 676 198 683 217 q 661 164 669 179 q 639 108 651 142 q 612 39 626 74 q 581 -24 597 4 q 549 -65 565 -53 q 478 -78 519 -74 q 394 -82 438 -82 q 308 -78 350 -82 q 232 -65 265 -74 q 189 -24 204 -50 q 158 36 174 3 q 101 204 126 104 q 58 417 76 304 q 31 645 40 529 q 22 861 22 761 q 31 1042 22 954 q 54 1088 32 1068 q 122 1107 82 1100 q 207 1115 163 1114 q 293 1111 251 1115 q 364 1096 335 1107 q 379 1083 372 1089 q 392 1071 386 1078 q 430 993 415 1042 q 454 890 444 944 q 469 781 464 836 q 478 682 474 726 q 493 577 485 619 q 528 535 501 535 q 570 559 553 535 q 607 619 588 583 q 629 666 618 640 q 651 717 640 692 q 676 767 663 743 q 703 807 689 790 q 763 816 731 819 q 825 799 796 813 q 875 711 853 763 q 913 618 897 660 q 947 538 929 572 q 1000 503 965 503 q 1033 528 1025 503 q 1040 597 1040 554 q 1040 628 1040 613 q 1039 663 1040 644 q 1038 705 1039 683 q 1038 749 1038 726 q 1038 842 1038 790 q 1046 944 1039 894 q 1069 1035 1053 993 q 1115 1100 1085 1078 q 1213 1105 1163 1104 q 1314 1103 1264 1106 q 1409 1093 1364 1100 q 1492 1072 1454 1086 q 1506 1032 1506 1051 q 1501 912 1506 993 q 1485 728 1496 831 q 1456 511 1474 625 q 1413 293 1439 397 q 1351 104 1386 189 q 1269 -26 1315 19 z "},"x":{"ha":1215,"x_min":0,"x_max":1197,"o":"m 1197 163 q 1153 97 1181 129 q 1090 39 1125 65 q 1017 -8 1056 13 q 940 -39 978 -28 q 874 -3 908 -25 q 809 47 840 19 q 749 103 778 74 q 700 163 721 133 q 642 233 668 207 q 597 258 615 258 q 556 231 579 258 q 504 163 532 203 q 455 102 482 132 q 399 46 428 72 q 342 -3 369 19 q 290 -39 314 -25 q 202 -16 247 -31 q 117 19 157 -1 q 46 67 76 40 q 0 126 15 93 l 0 128 q 24 211 0 168 q 83 296 47 254 q 162 376 118 338 q 244 446 206 415 q 283 476 263 461 q 320 503 303 490 q 349 526 338 517 q 360 539 360 535 q 350 554 360 543 q 324 580 340 565 q 288 612 308 594 q 244 646 267 629 q 178 697 215 667 q 107 760 142 726 q 47 827 72 793 q 13 892 21 861 q 48 960 17 922 q 120 1032 79 999 q 202 1088 161 1065 q 264 1108 243 1111 l 272 1108 q 322 1089 294 1108 q 378 1040 350 1069 q 434 978 407 1011 q 482 918 461 944 q 540 852 510 882 q 585 822 569 822 q 626 851 600 822 q 682 917 651 881 q 733 976 704 943 q 791 1038 761 1008 q 849 1087 821 1067 q 900 1108 878 1107 q 994 1090 946 1107 q 1083 1047 1043 1074 q 1153 988 1124 1021 q 1188 921 1182 954 q 1140 856 1174 896 q 1065 774 1106 815 q 985 696 1025 732 q 917 642 944 660 q 851 599 878 617 q 824 575 824 581 q 834 565 824 574 q 860 544 844 556 q 892 517 875 532 q 925 489 910 503 q 1006 417 960 456 q 1094 336 1053 378 q 1166 250 1136 294 q 1197 163 1196 206 z "},"y":{"ha":971,"x_min":-3,"x_max":972,"o":"m 658 1121 q 744 1115 694 1125 q 842 1085 794 1104 q 926 1040 890 1067 q 971 986 963 1014 q 972 982 971 983 q 971 978 972 981 q 941 890 963 943 q 892 778 919 836 q 835 663 865 719 q 779 568 804 607 q 716 469 743 511 q 689 403 689 426 q 699 199 689 299 q 711 0 710 99 q 616 -30 669 -19 q 508 -42 563 -40 q 404 -35 454 -43 q 321 -11 354 -28 q 310 103 311 51 q 313 199 310 154 q 319 283 315 243 q 324 367 324 324 q 294 433 324 396 q 208 535 264 471 q 130 652 168 582 q 63 794 92 722 q 15 932 33 867 q -3 1033 -3 997 q 54 1064 17 1049 q 136 1090 92 1079 q 227 1106 181 1101 q 311 1103 274 1110 q 340 1051 326 1082 q 367 983 353 1019 q 398 907 382 946 q 432 835 414 868 q 470 778 449 804 q 503 753 492 753 q 520 767 511 753 q 538 803 529 782 q 555 848 546 824 q 572 893 564 872 q 592 948 583 915 q 611 1014 601 981 q 632 1076 621 1047 q 658 1121 643 1106 z "},"z":{"ha":1108,"x_min":21,"x_max":1093,"o":"m 1011 1008 q 1033 873 1033 942 q 1004 721 1032 804 q 955 681 981 704 q 903 633 929 657 q 853 586 878 610 q 806 546 828 563 q 746 500 779 526 q 681 446 713 474 q 622 392 649 418 q 583 346 596 365 q 596 337 585 338 q 613 336 607 336 q 702 349 657 336 q 792 376 747 361 q 881 403 836 390 q 972 415 926 415 q 1013 408 992 415 q 1079 242 1065 331 q 1086 63 1093 154 q 996 -6 1056 19 q 867 -43 936 -31 q 730 -59 799 -56 q 613 -62 661 -62 q 479 -62 558 -62 q 318 -53 400 -61 q 163 -29 236 -46 q 44 21 89 -12 q 29 84 35 50 q 22 152 24 118 q 24 217 21 186 q 38 274 28 249 q 83 325 57 301 q 137 371 108 349 q 194 415 165 393 q 249 458 224 436 q 304 501 271 476 q 369 555 338 526 q 422 615 400 583 q 444 678 444 647 q 428 714 444 706 q 389 722 413 722 q 260 715 322 722 q 131 707 197 707 q 72 715 100 707 q 44 856 51 776 q 53 1008 38 936 q 242 1087 126 1069 q 508 1104 358 1104 q 670 1101 600 1104 q 799 1089 740 1099 q 908 1060 857 1079 q 1011 1008 958 1040 z "},"{":{"ha":661,"x_min":39,"x_max":613,"o":"m 351 532 q 344 500 346 518 q 349 467 342 482 q 376 441 361 454 q 405 413 392 428 q 427 381 418 397 q 436 344 436 364 q 433 311 436 328 q 429 278 429 294 q 438 235 429 253 q 459 206 446 218 q 490 183 472 193 q 528 164 508 174 q 532 78 535 119 q 514 -4 529 36 q 466 -19 490 -15 q 417 -22 442 -22 q 326 -9 375 -22 q 235 31 276 4 q 165 95 193 57 q 136 183 136 133 q 138 210 136 197 q 140 238 140 224 q 115 335 140 294 q 50 413 89 375 q 39 476 39 442 q 50 543 39 511 q 85 568 67 556 q 117 597 103 581 q 142 631 132 613 q 151 672 151 650 q 138 738 151 704 q 125 806 125 771 q 153 945 125 889 q 229 1037 181 1001 q 343 1088 278 1072 q 482 1103 408 1103 q 543 1100 513 1103 q 601 1086 574 1097 q 606 1004 613 1042 q 589 926 600 967 q 533 912 564 918 q 474 894 501 906 q 427 864 446 883 q 408 808 408 844 q 414 770 408 789 q 426 733 419 751 q 438 695 432 714 q 443 657 443 676 q 434 619 443 636 q 411 586 425 601 q 381 558 397 571 q 351 532 365 544 z "},"|":{"ha":364,"x_min":85,"x_max":274,"o":"m 108 1078 q 134 1083 121 1082 q 163 1085 147 1085 q 246 1072 208 1085 q 253 994 250 1043 q 260 890 257 946 q 265 775 263 833 q 270 665 268 717 q 273 576 272 614 q 274 524 274 538 q 273 476 274 511 q 271 392 272 440 q 267 286 269 343 q 263 176 265 229 q 257 76 260 122 q 250 3 254 31 q 210 -9 231 -6 q 171 -12 190 -12 q 114 -6 144 -12 q 106 69 110 21 q 98 174 101 117 q 92 293 94 232 q 88 408 90 354 q 85 501 86 461 q 85 554 85 540 q 85 603 85 567 q 88 688 86 639 q 91 794 89 738 q 96 906 93 851 q 102 1006 99 960 q 108 1078 106 1051 z "},"}":{"ha":682,"x_min":85,"x_max":625,"o":"m 610 668 q 610 536 625 607 q 601 531 604 533 q 540 480 569 508 q 510 408 510 451 q 513 390 510 401 q 521 363 517 378 q 531 320 526 343 q 536 275 536 297 q 503 126 536 183 q 419 35 471 68 q 303 -10 367 1 q 179 -22 240 -22 q 90 -14 128 -22 q 88 78 85 31 q 103 163 92 125 q 121 167 114 165 q 170 180 146 174 q 213 198 194 186 q 243 227 232 210 q 254 272 254 244 q 248 312 254 292 q 235 351 242 332 q 223 387 228 369 q 218 424 218 404 q 244 499 218 469 q 292 549 269 529 q 299 581 299 564 q 297 610 300 597 q 249 666 271 636 q 226 736 226 696 q 227 751 226 743 q 229 767 228 760 q 231 785 231 775 q 232 803 232 794 q 208 869 232 847 q 153 907 183 892 q 147 1001 142 951 q 165 1092 153 1051 q 244 1103 201 1103 q 373 1080 319 1103 q 460 1024 426 1057 q 509 956 493 992 q 526 897 525 921 q 526 892 526 894 q 525 888 525 889 q 521 843 521 863 q 529 786 521 813 q 551 739 538 760 q 580 701 564 718 q 610 668 596 683 z "},"~":{"ha":1011,"x_min":51,"x_max":956,"o":"m 207 274 q 106 373 149 318 q 51 486 63 428 q 95 563 65 531 q 165 619 125 596 q 251 653 206 642 q 342 664 297 664 q 432 648 388 664 q 516 612 476 632 q 589 576 556 592 q 647 560 622 560 q 689 572 671 560 q 724 600 707 585 q 756 631 740 615 q 790 653 772 647 q 890 564 851 622 q 956 449 929 506 q 910 370 942 406 q 838 310 878 335 q 751 273 797 286 q 661 260 704 260 q 559 276 601 260 q 483 314 517 293 q 422 351 450 335 q 360 368 393 368 q 310 355 331 368 q 272 325 289 342 q 240 293 256 308 q 207 274 225 278 z "},"":{"ha":553,"x_min":78,"x_max":472,"o":"m 131 585 q 191 610 154 604 q 257 617 228 617 q 301 614 279 617 q 343 603 322 611 q 356 578 350 590 q 365 554 361 567 q 412 419 392 485 q 445 287 432 353 q 465 152 458 221 q 472 8 472 83 q 467 -96 472 -44 q 450 -197 461 -147 q 393 -217 426 -212 q 332 -221 360 -221 q 249 -214 292 -221 q 169 -192 206 -207 q 141 -100 154 -149 q 117 0 128 -51 q 101 101 107 51 q 94 197 94 151 q 96 291 94 240 q 101 393 97 342 q 111 494 104 444 q 131 585 118 544 m 396 792 q 381 731 396 754 q 343 697 367 708 q 290 681 319 685 q 228 678 260 678 q 161 683 189 678 q 115 703 133 689 q 87 744 96 718 q 78 810 78 769 q 112 928 78 893 q 233 963 146 963 q 360 919 324 963 q 396 792 396 876 z "},"":{"ha":1004,"x_min":60,"x_max":907,"o":"m 557 1158 q 606 1163 581 1163 q 669 1153 642 1163 q 679 1110 679 1135 q 679 1063 679 1086 q 685 1063 682 1063 q 692 1063 689 1064 q 739 1059 713 1061 q 793 1053 765 1057 q 847 1042 821 1049 q 893 1022 874 1035 q 901 875 907 951 q 874 731 896 799 q 820 735 846 729 q 770 748 794 740 q 722 762 746 756 q 676 768 699 768 q 669 508 674 638 q 656 247 665 378 q 697 253 672 246 q 749 272 721 261 q 806 295 778 283 q 860 315 835 307 q 880 149 878 236 q 869 -6 882 61 q 808 -30 840 -21 q 743 -42 775 -39 q 681 -46 711 -46 q 625 -44 650 -46 q 626 -72 625 -60 q 626 -99 626 -85 q 618 -135 626 -121 q 537 -136 578 -139 q 464 -124 496 -133 q 460 -106 461 -115 q 458 -87 458 -97 q 459 -60 458 -74 q 461 -33 460 -47 l 450 -33 q 281 8 354 -21 q 158 92 207 36 q 85 238 110 147 q 60 465 60 328 q 183 889 60 740 q 528 1064 307 1038 l 540 1064 q 541 1113 540 1088 q 557 1158 542 1139 m 482 257 q 494 511 489 385 q 508 764 500 638 q 428 709 460 743 q 376 635 396 675 q 349 551 357 594 q 340 465 340 507 q 374 345 340 403 q 482 257 407 288 z "},"":{"ha":865,"x_min":50,"x_max":806,"o":"m 547 563 q 560 492 558 528 q 558 418 561 457 q 497 407 529 411 q 433 400 465 403 l 422 400 q 394 325 411 351 q 364 283 376 299 q 343 254 343 258 q 363 241 343 246 q 414 234 383 236 q 480 231 444 232 q 546 231 515 231 l 588 231 q 654 233 628 231 q 704 239 681 236 q 744 244 724 242 q 790 247 764 246 q 803 126 806 188 q 801 4 801 64 q 702 -12 757 -8 q 588 -17 647 -17 l 525 -17 q 489 -17 507 -17 q 451 -18 471 -18 q 264 -15 339 -18 q 144 3 189 -11 q 80 43 99 17 q 61 114 61 69 q 74 188 61 151 q 101 263 86 225 q 129 332 117 297 q 147 401 142 367 l 135 401 q 72 410 101 406 q 67 411 68 410 q 53 469 56 438 q 56 526 50 500 q 98 537 76 532 q 143 544 119 542 l 154 544 q 178 772 161 678 q 236 925 194 865 q 353 1013 278 985 q 553 1040 428 1040 q 665 1028 614 1040 q 757 994 717 1017 q 766 935 763 967 q 770 871 769 903 q 768 808 771 839 q 757 753 765 778 q 698 756 717 753 q 662 762 679 758 q 619 768 644 765 q 539 771 593 771 q 480 758 503 771 q 444 724 457 746 q 428 675 432 703 q 424 615 424 647 q 424 592 424 604 q 425 569 425 581 l 439 569 q 501 568 474 569 q 547 563 528 567 z "},"":{"ha":1157,"x_min":106,"x_max":1083,"o":"m 286 69 q 197 119 239 89 q 131 179 154 150 q 146 206 136 190 q 165 240 156 222 q 182 275 175 258 q 189 303 189 292 q 149 355 165 332 q 124 402 133 378 q 110 454 114 426 q 106 519 106 482 q 112 584 106 558 q 130 631 118 610 q 158 672 142 651 q 193 722 174 693 q 183 752 193 735 q 160 788 174 769 q 135 826 147 807 q 119 860 124 844 q 148 897 131 879 q 185 928 165 914 q 224 951 204 942 q 261 965 244 961 q 299 950 279 965 q 340 917 319 935 q 377 884 360 899 q 406 869 394 869 q 433 876 417 869 q 472 890 449 882 q 526 903 494 897 q 596 910 557 910 q 662 905 636 910 q 705 894 688 900 q 735 883 722 888 q 763 878 749 878 q 792 889 778 878 q 820 915 806 900 q 849 947 835 931 q 879 972 864 963 q 974 924 925 953 q 1049 853 1024 896 q 1032 824 1043 839 q 1010 795 1021 810 q 990 767 999 781 q 982 742 982 754 q 1023 685 1004 708 q 1055 640 1042 663 q 1076 588 1068 617 q 1083 510 1083 558 q 1076 437 1083 467 q 1056 383 1069 407 q 1025 335 1043 358 q 983 281 1007 311 q 991 255 983 269 q 1009 225 999 240 q 1031 195 1019 210 q 1047 168 1042 181 q 974 85 1014 121 q 885 50 933 50 q 859 74 872 58 q 831 103 846 89 q 801 129 817 118 q 765 140 785 140 q 734 135 751 140 q 696 123 717 129 q 650 111 675 117 q 597 106 625 106 q 540 113 569 106 q 485 127 511 119 q 437 142 460 135 q 399 149 414 149 q 364 140 379 149 q 335 117 349 131 q 309 91 321 104 q 286 69 297 78 m 356 508 q 374 413 356 453 q 426 345 393 372 q 501 305 458 318 q 593 292 544 292 q 685 303 642 292 q 763 342 729 315 q 815 410 796 368 q 835 511 835 451 q 815 611 835 571 q 763 676 796 651 q 686 713 729 701 q 596 724 643 724 q 503 710 547 724 q 427 671 460 697 q 375 604 394 644 q 356 508 356 564 z "},"":{"ha":974,"x_min":7,"x_max":989,"o":"m 825 308 q 830 242 833 276 q 828 176 826 208 q 772 162 804 165 q 717 160 740 158 q 719 114 718 143 q 717 54 719 85 q 710 -5 715 24 q 697 -49 706 -33 q 622 -59 663 -54 q 539 -65 582 -64 q 453 -62 496 -67 q 374 -42 411 -57 q 351 3 358 -22 q 344 53 344 28 q 344 77 344 60 q 345 113 344 94 q 347 149 346 132 q 347 174 347 167 q 283 178 317 171 q 219 192 249 185 q 214 248 217 219 q 208 304 211 276 q 238 312 217 308 q 284 317 260 315 q 331 321 308 319 q 363 322 353 322 l 364 354 q 328 356 351 354 q 281 361 306 357 q 235 371 257 365 q 203 382 214 376 q 189 433 190 406 q 193 486 188 461 q 212 492 197 489 q 243 497 226 494 q 274 501 260 500 q 294 503 289 503 q 219 577 265 535 q 128 666 172 619 q 49 760 83 713 q 7 851 14 808 q 117 974 51 922 q 254 1058 183 1025 q 324 1016 292 1047 q 383 944 356 985 q 431 858 410 903 q 469 777 451 814 q 499 716 486 740 q 519 692 511 692 q 540 716 528 692 q 569 778 553 740 q 603 861 585 815 q 644 951 622 907 q 689 1030 665 994 q 738 1083 713 1065 q 880 1024 811 1067 q 989 924 949 982 q 957 819 989 878 q 881 703 925 761 q 792 594 838 646 q 717 510 746 543 q 740 510 725 510 q 770 510 754 511 q 801 506 786 508 q 822 500 815 504 q 831 440 831 474 q 824 375 831 407 q 750 360 792 367 q 676 356 708 354 q 678 340 678 347 q 681 324 679 332 q 753 320 717 325 q 825 308 790 315 z "},"":{"ha":381,"x_min":79,"x_max":282,"o":"m 258 -37 q 225 -47 246 -44 q 181 -49 204 -50 q 137 -44 158 -47 q 100 -35 115 -40 q 92 31 96 -10 q 87 117 89 71 q 83 214 85 164 q 81 307 82 264 q 80 383 81 350 q 79 429 79 415 l 79 446 q 79 464 79 456 q 82 479 79 472 q 177 492 126 497 q 267 471 228 486 q 274 457 272 463 q 275 440 275 454 q 275 424 275 426 q 275 381 275 413 q 274 306 275 349 q 272 214 274 264 q 269 116 271 164 q 265 28 267 68 q 258 -37 263 -12 m 272 603 q 223 596 250 597 q 169 598 196 594 q 121 607 143 601 q 86 619 99 613 q 85 633 85 624 q 85 682 85 646 q 88 766 86 718 q 92 869 90 814 q 97 974 94 924 q 103 1064 100 1024 q 111 1122 107 1104 q 144 1128 125 1126 q 185 1131 164 1131 q 226 1131 206 1132 q 258 1125 246 1129 q 266 1065 263 1104 q 272 980 269 1026 q 276 884 275 933 q 279 792 278 835 q 281 717 281 749 q 282 675 282 685 q 272 603 282 626 z "},"":{"ha":1163,"x_min":78,"x_max":1089,"o":"m 1075 967 q 954 885 1014 914 q 851 860 894 856 q 822 901 842 882 q 778 935 803 921 q 724 956 753 949 q 665 964 694 964 q 608 958 638 964 q 553 941 578 951 q 513 919 529 931 q 497 896 497 907 q 541 858 497 878 q 651 813 585 838 q 793 759 717 789 q 935 690 869 729 q 1045 601 1001 650 q 1089 488 1089 551 q 1075 425 1089 453 q 1040 376 1061 397 q 994 338 1019 354 q 943 306 968 321 q 874 260 892 274 q 856 240 856 247 q 873 221 856 233 q 918 193 890 208 q 1028 104 994 149 q 1061 3 1061 60 q 949 -171 1061 -108 q 638 -233 836 -233 q 451 -218 542 -233 q 287 -176 361 -203 q 158 -113 213 -150 q 78 -33 103 -76 q 96 40 79 0 q 136 115 113 79 q 188 176 160 150 q 242 208 217 201 q 310 157 278 188 q 381 98 343 126 q 467 50 418 69 q 586 31 517 31 q 689 44 646 31 q 732 78 732 58 q 679 124 732 100 q 544 164 626 149 q 374 215 453 181 q 235 292 294 249 q 141 386 175 336 q 107 486 107 436 q 138 574 107 536 q 206 639 169 613 q 274 682 243 665 q 306 704 306 699 q 284 731 306 710 q 237 783 263 751 q 190 857 211 815 q 168 946 168 899 q 202 1050 168 1003 q 296 1131 236 1097 q 438 1185 356 1165 q 618 1204 521 1204 q 791 1187 711 1204 q 931 1138 871 1169 q 1029 1063 992 1106 q 1075 967 1067 1019 m 543 413 q 585 402 563 406 q 633 399 608 399 q 681 401 658 399 q 722 408 704 404 q 751 417 740 413 q 763 428 763 422 q 731 461 763 440 q 658 502 700 482 q 572 538 615 522 q 501 553 528 553 q 459 539 478 553 q 440 507 440 525 q 469 459 440 486 q 543 413 499 432 z "},"":{"ha":794,"x_min":68,"x_max":736,"o":"m 578 1442 q 657 1427 626 1442 q 705 1390 688 1413 q 729 1340 722 1368 q 736 1285 736 1313 q 701 1174 736 1215 q 579 1132 665 1132 q 508 1144 538 1132 q 460 1177 478 1157 q 433 1222 442 1197 q 425 1272 425 1247 q 431 1331 425 1301 q 454 1386 438 1361 q 501 1426 471 1411 q 578 1442 531 1442 m 221 1425 q 295 1410 265 1425 q 344 1374 325 1396 q 371 1324 363 1351 q 379 1268 379 1296 q 340 1157 379 1199 q 208 1115 301 1115 q 135 1128 163 1115 q 92 1160 107 1140 q 73 1206 78 1181 q 68 1256 68 1231 q 75 1315 68 1285 q 99 1369 82 1344 q 147 1410 117 1394 q 221 1425 176 1425 z "},"":{"ha":1324,"x_min":74,"x_max":1261,"o":"m 74 492 q 117 742 74 638 q 242 914 161 846 q 435 1014 322 982 q 685 1046 547 1046 q 1114 912 967 1046 q 1261 492 1261 778 q 1224 244 1261 347 q 1113 76 1186 142 q 933 -21 1040 10 q 685 -51 825 -51 q 436 -22 549 -51 q 243 74 324 8 q 118 243 163 140 q 74 492 74 346 m 685 104 q 871 123 792 104 q 1001 187 950 142 q 1078 306 1053 232 q 1103 492 1103 381 q 1081 673 1103 597 q 1011 797 1060 749 q 882 867 963 844 q 685 889 801 889 q 497 869 581 889 q 354 802 413 849 q 264 680 296 756 q 232 492 232 604 q 264 305 232 379 q 355 185 296 231 q 497 122 414 140 q 685 104 581 104 m 908 415 q 920 378 915 406 q 926 317 925 350 q 924 249 926 283 q 915 190 922 215 q 824 162 885 176 q 696 147 764 147 q 563 165 624 147 q 460 224 503 183 q 393 331 417 265 q 369 493 369 397 q 394 656 369 592 q 464 758 419 721 q 571 811 508 796 q 710 826 633 826 q 820 821 772 826 q 897 804 868 815 q 910 762 906 793 q 917 694 915 731 q 917 626 918 658 q 911 578 915 593 q 873 600 890 588 q 836 624 856 613 q 791 642 817 635 q 729 650 765 650 q 677 640 703 650 q 631 612 651 631 q 599 565 611 593 q 586 501 586 538 q 619 393 586 428 q 711 358 653 358 q 766 365 739 358 q 818 382 793 372 q 867 401 843 392 q 908 415 890 410 z "},"":{"ha":575,"x_min":26,"x_max":554,"o":"m 554 625 q 476 593 518 607 q 401 583 433 579 q 390 612 399 601 q 374 622 381 622 q 347 616 364 622 q 311 603 331 610 q 270 590 292 596 q 229 583 249 583 q 151 599 188 583 q 86 643 114 615 q 42 708 58 671 q 26 786 26 744 q 42 862 26 828 q 85 919 58 896 q 148 954 113 942 q 224 967 183 967 q 275 962 250 967 q 326 957 300 957 q 355 964 342 957 q 368 985 368 971 q 357 1011 368 1000 q 300 1022 346 1022 q 229 1013 254 1022 q 183 992 204 1003 q 172 984 178 988 q 160 978 167 981 q 91 1029 124 997 q 43 1097 58 1061 q 87 1151 56 1128 q 156 1189 118 1174 q 233 1212 194 1204 q 301 1219 272 1219 q 368 1210 335 1219 q 431 1183 401 1200 q 484 1140 461 1165 q 518 1081 507 1114 q 526 1034 525 1060 q 528 982 528 1008 q 527 906 528 943 q 526 829 526 868 q 540 722 526 778 q 554 625 553 667 m 83 400 q 77 476 75 436 q 90 547 79 515 l 94 547 l 519 542 l 526 542 q 533 467 535 507 q 522 396 531 428 l 100 396 q 83 400 92 396 m 367 781 q 353 799 367 792 q 322 810 340 806 q 285 815 304 814 q 251 817 265 817 q 206 810 224 817 q 189 782 189 803 q 210 752 189 760 q 258 744 231 744 q 291 746 272 744 q 326 751 310 747 q 355 763 343 756 q 367 781 367 769 z "},"":{"ha":1129,"x_min":83,"x_max":971,"o":"m 504 429 q 528 299 521 365 q 519 165 535 232 q 475 151 499 151 q 455 154 464 151 q 436 160 446 157 q 404 178 429 163 q 347 215 379 193 q 276 262 314 236 q 206 310 239 288 q 150 351 174 333 q 119 375 126 368 q 92 417 101 393 q 83 468 83 442 q 103 524 83 490 q 152 598 122 558 q 219 678 182 638 q 290 753 256 718 q 352 812 324 788 q 394 844 381 836 q 420 856 407 851 q 447 861 433 861 q 464 860 456 861 q 479 856 472 858 q 505 724 501 801 q 496 575 508 646 q 466 559 486 569 q 425 537 446 549 q 388 513 404 525 q 372 492 372 500 q 390 474 372 483 q 430 455 407 464 q 474 439 453 446 q 504 429 496 432 m 940 446 q 964 315 957 382 q 956 182 971 249 q 911 168 935 168 q 891 171 900 168 q 871 176 882 174 q 840 194 864 179 q 782 231 815 210 q 712 278 749 253 q 642 327 675 304 q 586 367 610 350 q 556 392 563 385 q 528 434 538 410 q 519 485 519 458 q 539 541 519 507 q 588 615 558 575 q 654 694 618 654 q 725 769 690 735 q 788 829 760 804 q 831 861 817 854 q 856 873 843 868 q 883 878 869 878 q 899 876 892 878 q 915 872 907 875 q 941 740 938 818 q 932 592 944 663 q 902 576 922 586 q 861 553 882 565 q 824 529 840 542 q 808 508 808 517 q 826 490 808 500 q 866 472 843 481 q 910 456 889 463 q 940 446 932 449 z "},"":{"ha":1015,"x_min":135,"x_max":900,"o":"m 882 304 q 833 296 860 300 q 777 291 806 292 q 723 294 749 290 q 679 311 697 299 q 673 350 674 329 q 672 390 672 371 q 667 435 672 422 q 633 447 663 447 q 482 447 557 447 q 332 442 407 446 q 269 439 300 440 q 206 438 238 438 q 151 444 176 438 q 138 502 140 471 q 138 565 135 533 q 148 630 140 597 q 165 690 156 663 q 242 707 197 701 q 338 713 288 713 q 462 714 400 713 q 586 713 524 715 q 710 705 649 711 q 832 682 772 699 q 867 660 853 676 q 888 624 881 644 q 897 580 894 603 q 900 536 900 557 q 899 416 900 475 q 882 304 897 357 z "},"":{"ha":1022,"x_min":44,"x_max":981,"o":"m 44 828 q 77 1019 44 944 q 170 1138 110 1094 q 317 1199 231 1182 q 511 1215 403 1215 q 706 1199 619 1215 q 854 1138 793 1182 q 948 1019 915 1094 q 981 828 981 944 q 947 637 981 711 q 853 519 914 563 q 705 458 792 475 q 511 442 618 442 q 318 458 404 442 q 171 519 232 475 q 77 637 110 563 q 44 828 44 711 m 511 560 q 769 622 678 560 q 860 828 860 685 q 769 1035 860 972 q 511 1097 679 1097 q 253 1034 343 1097 q 164 828 164 971 q 253 622 164 685 q 511 560 343 560 m 740 625 q 712 614 729 619 q 675 606 694 608 q 636 603 656 603 q 600 606 617 603 q 572 633 583 614 q 550 671 560 651 q 513 729 529 714 q 490 744 497 744 q 479 742 481 744 q 478 732 478 739 q 480 713 478 728 q 484 679 482 697 q 485 643 486 661 q 478 614 485 625 q 447 606 465 610 q 408 601 428 603 q 370 599 389 599 q 339 601 351 599 q 333 611 336 604 q 329 622 331 618 q 324 674 326 639 q 321 749 322 708 q 319 828 319 789 q 318 894 318 868 l 318 899 q 318 915 318 908 q 311 925 318 922 q 294 938 304 929 q 283 981 285 947 q 285 1017 282 999 q 303 1044 289 1035 q 350 1057 318 1056 q 429 1058 382 1058 q 528 1057 476 1058 q 624 1044 581 1056 q 695 1005 667 1032 q 724 925 724 978 q 709 869 724 892 q 676 831 694 846 q 644 806 658 815 q 629 790 629 797 q 647 771 629 786 q 685 733 664 756 q 723 681 706 710 q 740 625 740 653 m 453 896 q 459 858 453 869 q 490 846 465 846 q 513 849 500 846 q 537 859 525 853 q 557 874 549 865 q 565 892 565 882 q 546 924 565 913 q 496 936 526 936 q 463 929 472 936 q 453 896 453 922 z "},"":{"ha":686,"x_min":94,"x_max":583,"o":"m 571 1343 q 579 1252 583 1299 q 567 1168 575 1206 q 561 1166 564 1167 q 556 1164 558 1165 q 455 1149 510 1153 q 351 1144 400 1144 q 295 1147 326 1144 q 231 1153 264 1149 q 165 1163 197 1157 q 108 1179 133 1169 q 96 1272 97 1226 q 108 1367 94 1318 q 162 1379 129 1378 q 242 1381 194 1381 q 319 1380 275 1381 q 410 1375 364 1379 q 498 1363 456 1371 q 571 1343 540 1356 z "},"":{"ha":596,"x_min":69,"x_max":508,"o":"m 508 938 q 501 836 508 883 q 470 753 493 789 q 406 697 447 718 q 297 676 364 676 q 186 692 231 676 q 116 738 142 707 q 80 817 90 769 q 69 932 69 865 q 79 1047 69 997 q 114 1131 89 1097 q 183 1181 139 1164 q 297 1197 228 1197 q 408 1177 367 1197 q 472 1122 450 1157 q 501 1039 494 1086 q 508 938 508 992 m 239 935 q 247 897 239 917 q 289 878 254 878 q 338 897 328 878 q 349 938 349 917 q 347 961 349 947 q 340 988 346 975 q 324 1011 335 1001 q 297 1021 314 1021 q 263 1012 275 1021 q 246 990 251 1003 q 240 965 240 978 q 239 942 239 951 l 239 935 z "},"":{"ha":1111,"x_min":64,"x_max":978,"o":"m 919 200 q 926 90 922 146 q 914 -11 931 35 q 903 -15 908 -14 q 890 -19 897 -17 q 809 -32 853 -26 q 719 -41 765 -37 q 628 -47 674 -44 q 544 -49 583 -49 q 444 -46 497 -49 q 337 -36 390 -43 q 233 -18 283 -29 q 138 8 182 -7 l 135 8 q 123 119 119 60 q 144 228 126 179 q 191 240 163 236 q 250 244 219 243 q 310 244 281 244 q 363 243 340 243 l 425 244 q 549 244 482 244 q 682 239 615 243 q 810 226 749 235 q 919 200 872 217 m 703 313 q 638 294 678 301 q 556 286 599 288 q 472 289 514 285 q 401 301 431 293 q 385 339 390 318 q 381 381 381 360 l 381 557 q 369 592 381 583 q 339 600 358 600 q 251 595 293 600 q 164 590 210 590 q 130 592 150 590 q 97 600 110 594 q 67 729 71 658 q 74 863 64 800 q 107 868 85 867 q 156 869 129 869 q 242 865 197 869 q 343 860 286 860 q 364 867 358 860 q 369 896 369 875 q 367 953 369 918 q 363 1025 365 988 q 360 1096 361 1063 q 363 1147 360 1129 q 433 1167 390 1160 q 522 1174 475 1174 q 613 1169 568 1175 q 692 1149 658 1163 q 701 1096 700 1129 q 701 1026 703 1063 q 695 956 699 990 q 692 897 692 921 q 700 867 692 874 q 728 861 708 861 q 775 866 751 861 q 822 876 799 871 q 867 887 844 882 q 914 892 890 892 q 953 883 935 892 q 970 821 964 856 q 977 749 976 786 q 973 673 978 711 q 957 600 968 635 q 921 596 939 596 q 815 599 861 596 q 708 603 769 603 q 692 578 692 603 q 696 517 692 554 q 703 440 700 479 q 708 365 707 400 q 703 313 710 331 z "},"":{"ha":732,"x_min":31,"x_max":703,"o":"m 674 786 q 692 747 686 772 q 701 692 699 721 q 702 635 703 663 q 699 592 701 607 l 697 590 q 640 572 671 579 q 569 561 610 565 q 475 555 528 557 q 351 553 422 553 q 195 556 257 553 q 97 571 133 558 q 45 609 60 583 q 31 681 31 635 q 48 736 31 710 q 92 785 65 763 q 153 830 119 808 q 219 869 188 851 q 304 929 268 897 q 340 988 340 961 q 323 1022 340 1008 q 268 1036 306 1036 q 211 1033 242 1036 q 152 1026 181 1031 q 102 1018 124 1022 q 69 1011 81 1014 q 49 1053 56 1026 q 42 1110 43 1081 q 44 1169 42 1140 q 51 1217 47 1199 q 108 1248 75 1236 q 175 1266 140 1260 q 243 1274 210 1272 q 301 1276 276 1276 q 431 1263 369 1276 q 538 1222 492 1250 q 610 1153 583 1194 q 636 1053 636 1111 q 619 965 636 1001 q 578 903 603 928 q 524 863 553 878 q 472 836 496 847 q 426 815 444 825 q 408 790 408 804 q 422 769 408 775 q 454 764 435 764 q 508 765 479 764 q 561 774 538 767 q 607 785 585 781 q 651 789 629 789 q 663 788 658 789 q 674 786 668 788 z "},"":{"ha":686,"x_min":44,"x_max":668,"o":"m 550 951 q 544 933 544 944 q 551 918 544 922 q 585 900 565 910 q 624 872 606 890 q 655 827 642 854 q 668 757 668 800 q 587 583 668 638 q 331 528 506 528 q 258 532 300 528 q 177 542 217 536 q 104 558 138 549 q 54 576 71 567 q 47 626 49 599 q 47 680 44 653 q 54 733 49 707 q 69 778 60 758 q 121 774 92 779 q 185 760 150 768 q 260 746 221 753 q 343 739 300 739 q 401 753 375 739 q 426 796 426 768 q 403 826 426 819 q 338 839 379 833 q 313 840 331 840 q 276 840 296 840 q 239 840 256 840 q 215 842 222 840 q 201 907 204 871 q 210 971 199 943 q 250 982 221 975 q 309 998 279 989 q 362 1017 339 1007 q 385 1038 385 1028 q 367 1052 385 1047 q 326 1059 350 1057 q 278 1062 303 1061 q 239 1063 254 1063 q 163 1056 203 1063 q 85 1040 124 1050 q 66 1085 75 1060 q 53 1140 57 1111 q 49 1194 49 1168 q 60 1239 50 1221 q 125 1259 85 1251 q 208 1270 165 1267 q 291 1274 251 1274 q 354 1275 331 1275 q 556 1226 479 1275 q 632 1089 632 1176 q 607 997 632 1028 q 550 951 582 965 z "},"":{"ha":610,"x_min":117,"x_max":565,"o":"m 390 1485 q 490 1446 443 1475 q 565 1371 538 1417 q 536 1313 563 1339 q 481 1263 510 1286 q 428 1226 463 1249 q 353 1181 394 1203 q 265 1142 311 1160 q 178 1122 219 1125 q 131 1180 140 1150 q 117 1243 121 1210 q 153 1275 133 1260 q 188 1301 172 1290 q 240 1343 217 1322 q 283 1392 263 1364 q 313 1428 299 1411 q 339 1456 326 1444 q 390 1485 367 1476 z "},"":{"ha":994,"x_min":47,"x_max":915,"o":"m 899 -61 q 835 -69 874 -69 q 764 -61 796 -69 q 757 24 760 -31 q 752 144 754 79 q 749 277 750 208 q 747 405 747 346 q 745 507 746 464 q 744 564 744 550 q 744 613 744 576 q 744 697 744 650 q 745 794 744 744 q 746 883 746 844 q 730 894 746 890 q 696 899 714 899 q 667 896 679 899 q 653 886 654 893 q 649 810 650 849 q 647 735 647 771 q 649 641 647 685 q 651 567 650 597 q 653 541 653 551 q 653 524 653 531 q 653 472 653 511 q 653 379 653 433 q 652 262 653 325 q 650 138 651 199 q 647 24 649 76 q 643 -61 646 -28 q 574 -76 613 -76 q 533 -72 551 -76 q 501 -61 514 -68 q 494 -8 497 -39 q 490 58 492 22 q 485 133 488 94 q 482 210 483 172 q 479 283 481 247 q 475 345 478 318 q 468 390 472 372 q 457 411 464 407 q 445 417 456 413 q 417 419 435 422 q 274 424 342 414 q 157 471 207 435 q 77 572 107 507 q 47 739 47 638 q 69 962 47 875 q 146 1099 90 1049 q 295 1168 201 1149 q 533 1188 389 1188 l 575 1188 q 679 1183 625 1188 q 781 1162 733 1179 q 861 1108 828 1144 q 900 1006 894 1071 q 907 925 904 971 q 911 830 910 879 q 913 731 913 781 q 915 640 914 682 q 915 568 915 599 q 915 526 915 538 q 915 474 915 514 q 913 378 914 433 q 911 258 913 322 q 908 133 910 194 q 904 20 907 72 q 899 -61 901 -32 z "},"":{"ha":614,"x_min":94,"x_max":526,"o":"m 307 661 q 410 647 368 661 q 478 606 453 633 q 515 540 504 579 q 526 449 526 500 q 508 358 526 397 q 458 293 490 319 q 381 253 425 267 q 286 240 338 240 q 138 288 182 240 q 94 444 94 335 q 105 540 94 500 q 140 608 115 581 q 205 648 164 635 q 307 661 246 661 z "},"":{"ha":661,"x_min":147,"x_max":561,"o":"m 167 -331 q 149 -240 150 -286 q 160 -149 147 -194 q 175 -147 167 -147 q 192 -144 183 -146 q 228 -141 211 -143 q 259 -134 246 -139 q 281 -121 272 -129 q 289 -99 289 -112 q 279 -77 289 -87 q 257 -54 269 -67 q 235 -30 246 -43 q 224 7 224 -17 q 244 69 224 40 q 294 115 264 97 q 376 112 335 122 q 449 78 417 101 q 440 51 447 63 q 434 35 438 43 q 431 19 431 26 q 447 -10 431 1 q 486 -32 463 -21 q 512 -47 499 -39 q 536 -68 525 -56 q 554 -100 547 -81 q 561 -149 561 -119 q 530 -244 561 -206 q 451 -306 499 -282 q 345 -339 403 -329 q 235 -349 288 -349 q 167 -331 196 -349 z "},"":{"ha":761,"x_min":43,"x_max":714,"o":"m 683 761 q 697 733 692 750 q 707 697 703 715 q 713 660 711 678 q 714 628 714 642 q 711 588 714 608 q 700 547 708 567 q 600 535 657 539 q 483 531 543 532 q 363 532 422 531 q 258 533 304 533 q 160 535 210 533 q 64 549 111 536 q 47 603 51 572 q 43 658 43 633 q 47 709 43 682 q 61 757 50 736 q 81 760 72 760 q 153 757 117 760 q 225 754 189 754 q 249 755 236 754 q 272 761 261 756 q 289 783 283 767 q 297 819 294 800 q 298 858 299 839 q 297 888 297 878 l 297 936 q 297 956 297 943 q 294 981 296 968 q 286 1002 292 993 q 269 1011 281 1011 q 233 1010 256 1011 q 186 1008 211 1008 q 138 1007 161 1007 q 99 1011 114 1007 q 72 1041 81 1017 q 61 1097 64 1065 q 59 1162 58 1128 q 60 1221 60 1196 q 60 1228 60 1224 q 61 1236 61 1232 q 113 1253 68 1246 q 217 1264 158 1260 q 334 1270 275 1268 q 429 1272 393 1272 q 519 1245 494 1272 q 543 1156 543 1218 q 542 970 543 1060 q 540 785 540 881 q 544 760 540 765 q 571 754 549 754 q 627 756 599 754 q 683 761 656 758 z "},"":{"ha":583,"x_min":60,"x_max":531,"o":"m 531 918 q 520 774 531 838 q 483 666 510 710 q 411 599 457 622 q 296 576 365 576 q 181 596 226 576 q 109 655 136 615 q 71 756 82 694 q 60 900 60 817 q 69 1043 60 983 q 103 1140 78 1103 q 174 1195 129 1178 q 292 1213 219 1213 q 404 1197 358 1213 q 478 1147 450 1182 q 519 1056 507 1113 q 531 918 531 1000 m 304 1018 q 260 1008 278 1018 q 234 984 243 999 q 222 952 225 969 q 218 919 218 935 q 223 885 218 904 q 237 849 228 865 q 260 820 246 832 q 296 808 275 808 q 333 818 317 808 q 360 843 349 828 q 378 878 372 858 q 385 918 385 897 q 368 989 385 960 q 304 1018 351 1018 m 69 400 q 63 476 61 436 q 76 547 65 515 l 81 547 l 506 542 l 513 542 q 517 503 517 525 q 514 458 517 481 q 507 415 511 436 q 499 379 503 394 l 86 396 q 78 397 82 397 q 69 400 74 397 z "},"":{"ha":1064,"x_min":88,"x_max":982,"o":"m 118 429 q 148 439 126 432 q 192 455 169 446 q 233 474 215 464 q 250 492 250 483 q 234 513 250 500 q 197 537 218 525 q 156 559 176 549 q 128 575 136 569 q 118 724 114 646 q 144 856 122 801 q 159 860 151 858 q 175 861 167 861 q 203 856 189 861 q 228 844 217 851 q 270 813 242 838 q 333 753 299 788 q 405 678 368 718 q 472 598 442 638 q 521 524 501 558 q 540 468 540 490 q 531 417 540 442 q 503 375 522 393 q 472 351 496 369 q 416 310 449 333 q 347 262 383 288 q 276 215 310 236 q 219 178 243 193 q 188 160 194 163 q 168 154 178 157 q 147 151 158 151 q 103 165 126 151 q 94 299 88 232 q 118 429 101 365 m 560 414 q 590 424 568 417 q 634 440 611 431 q 674 458 657 449 q 692 476 692 468 q 676 497 692 485 q 639 522 660 510 q 598 545 618 535 q 569 561 578 556 q 560 634 563 596 q 559 709 557 672 q 568 780 561 746 q 586 840 575 814 q 617 846 599 846 q 644 841 631 846 q 669 829 658 836 q 712 797 683 822 q 775 738 740 772 q 847 663 810 704 q 913 583 883 622 q 963 510 943 544 q 982 453 982 475 q 973 403 982 428 q 944 360 964 379 q 914 336 938 354 q 858 295 890 318 q 788 247 825 272 q 718 199 751 221 q 660 163 685 178 q 629 144 636 147 q 609 139 618 142 q 589 136 600 136 q 544 150 565 136 q 536 283 529 217 q 560 414 543 350 z "},"":{"ha":1871,"x_min":64,"x_max":1831,"o":"m 751 21 q 622 58 682 31 q 531 119 561 86 q 599 251 553 171 q 701 424 644 331 q 819 615 757 517 q 936 797 881 713 q 1035 946 992 882 q 1097 1035 1078 1010 q 1143 1072 1117 1058 q 1256 1051 1200 1072 q 1358 990 1313 1031 q 1296 853 1342 938 q 1190 672 1250 768 q 1067 478 1131 576 q 951 301 1004 381 q 894 215 919 253 q 853 153 868 176 q 817 99 835 125 q 778 46 799 74 q 751 21 764 31 m 1410 758 q 1466 765 1431 763 q 1540 765 1501 767 q 1613 759 1578 764 q 1669 743 1649 754 q 1689 660 1686 713 q 1692 543 1692 607 q 1691 508 1692 529 q 1690 465 1690 488 q 1688 422 1689 443 q 1688 386 1688 400 q 1692 363 1688 371 q 1721 354 1696 354 q 1764 358 1744 354 q 1806 364 1783 363 q 1828 258 1825 314 q 1821 161 1831 201 q 1778 158 1801 154 q 1733 161 1754 161 q 1716 160 1724 161 q 1708 153 1708 158 q 1711 140 1708 146 q 1717 123 1714 133 q 1724 96 1721 113 q 1726 51 1726 79 q 1710 13 1726 29 q 1651 -1 1685 4 q 1583 -7 1617 -6 q 1517 -6 1549 -8 q 1465 6 1486 -3 q 1460 33 1460 17 q 1463 87 1460 63 q 1465 139 1465 111 q 1456 157 1465 153 q 1426 161 1446 161 q 1276 158 1347 161 q 1124 161 1206 154 q 1103 233 1106 196 q 1111 318 1101 271 q 1114 326 1113 322 q 1117 333 1115 329 q 1165 438 1132 375 q 1238 563 1197 500 q 1323 681 1278 626 q 1410 758 1368 735 m 1357 364 q 1365 349 1357 354 q 1394 343 1372 343 q 1433 347 1418 343 q 1454 360 1447 351 q 1463 383 1461 369 q 1465 417 1465 397 q 1464 486 1465 467 q 1443 506 1463 506 q 1419 488 1433 506 q 1390 447 1404 471 q 1367 400 1376 424 q 1357 364 1357 376 m 665 675 q 679 649 674 665 q 688 615 685 633 q 693 580 692 597 q 694 550 694 563 q 692 511 694 531 q 682 474 689 492 q 588 462 642 465 q 476 458 533 458 q 365 459 419 458 q 265 460 310 460 q 174 461 221 460 q 83 475 126 463 q 67 525 71 496 q 64 578 64 554 q 67 626 64 600 q 79 672 69 653 q 88 673 83 672 q 97 674 93 674 q 166 672 132 674 q 235 669 200 669 q 257 669 246 669 q 278 675 268 669 q 294 696 289 681 q 301 730 300 711 q 303 767 303 749 q 303 794 303 785 l 303 840 q 302 859 303 847 q 299 883 301 871 q 292 903 297 894 q 276 911 286 911 q 242 910 264 911 q 197 908 221 908 q 151 907 174 907 q 115 911 129 907 q 90 939 99 917 q 80 990 82 961 q 78 1051 78 1019 q 79 1108 79 1083 l 79 1124 q 128 1138 86 1132 q 226 1149 171 1144 q 337 1155 281 1153 q 426 1157 393 1157 q 511 1131 488 1157 q 535 1047 535 1106 q 533 872 535 957 q 531 697 531 788 q 535 674 531 678 q 560 669 540 669 q 613 671 586 669 q 665 675 640 672 z "},"":{"ha":1885,"x_min":64,"x_max":1808,"o":"m 751 21 q 622 58 682 31 q 531 119 561 86 q 599 251 553 171 q 701 424 644 331 q 819 615 757 517 q 936 797 881 713 q 1035 946 992 882 q 1097 1035 1078 1010 q 1143 1072 1117 1058 q 1256 1051 1200 1072 q 1358 990 1313 1031 q 1296 853 1342 938 q 1190 672 1250 768 q 1067 478 1131 576 q 951 301 1004 381 q 894 215 919 253 q 853 153 868 176 q 817 99 835 125 q 778 46 799 74 q 751 21 764 31 m 665 675 q 679 649 674 665 q 688 615 685 633 q 693 580 692 597 q 694 550 694 563 q 692 511 694 531 q 682 474 689 492 q 588 462 642 465 q 476 458 533 458 q 365 459 419 458 q 265 460 310 460 q 174 461 221 460 q 83 475 126 463 q 67 525 71 496 q 64 578 64 554 q 67 626 64 600 q 79 672 69 653 q 88 673 83 672 q 97 674 93 674 q 166 672 132 674 q 235 669 200 669 q 257 669 246 669 q 278 675 268 669 q 294 696 289 681 q 301 730 300 711 q 303 767 303 749 q 303 794 303 785 l 303 840 q 302 859 303 847 q 299 883 301 871 q 292 903 297 894 q 276 911 286 911 q 242 910 264 911 q 197 908 221 908 q 151 907 174 907 q 115 911 129 907 q 90 939 99 917 q 80 990 82 961 q 78 1051 78 1019 q 79 1108 79 1083 l 79 1124 q 128 1138 86 1132 q 226 1149 171 1144 q 337 1155 281 1153 q 426 1157 393 1157 q 511 1131 488 1157 q 535 1047 535 1106 q 533 872 535 957 q 531 697 531 788 q 535 674 531 678 q 560 669 540 669 q 613 671 586 669 q 665 675 640 672 m 1781 194 q 1798 156 1792 182 q 1806 101 1804 131 q 1808 46 1808 72 q 1806 4 1808 19 l 1803 4 q 1747 -14 1778 -7 q 1677 -25 1717 -21 q 1586 -31 1638 -29 q 1465 -33 1535 -33 q 1313 -31 1374 -33 q 1217 -15 1253 -28 q 1167 22 1182 -3 q 1153 92 1153 47 q 1169 146 1153 121 q 1213 194 1186 171 q 1273 238 1240 217 q 1338 276 1306 258 q 1419 335 1385 304 q 1454 392 1454 367 q 1438 425 1454 411 q 1385 439 1421 439 q 1331 435 1358 439 q 1279 425 1303 431 q 1237 415 1256 419 q 1207 407 1218 410 q 1188 449 1194 422 q 1181 506 1182 476 q 1182 563 1179 535 q 1189 608 1185 590 q 1242 640 1213 628 q 1301 660 1271 653 q 1362 671 1332 668 q 1417 674 1392 674 q 1542 660 1483 674 q 1647 621 1601 647 q 1717 553 1692 594 q 1743 456 1743 513 q 1726 369 1743 406 q 1685 309 1710 333 q 1633 269 1661 285 q 1583 243 1606 254 q 1538 222 1556 232 q 1521 200 1521 213 q 1533 178 1521 185 q 1565 172 1546 172 q 1619 174 1590 172 q 1671 182 1647 176 q 1715 194 1693 189 q 1758 199 1738 199 q 1781 194 1771 199 z "},"":{"ha":1838,"x_min":68,"x_max":1808,"o":"m 729 21 q 599 58 660 31 q 508 119 539 86 q 576 251 531 171 q 678 424 622 331 q 797 615 735 517 q 914 797 858 713 q 1013 946 969 882 q 1075 1035 1056 1010 q 1121 1072 1094 1058 q 1234 1051 1178 1072 q 1336 990 1290 1031 q 1274 853 1319 938 q 1168 672 1228 768 q 1045 478 1108 576 q 929 301 982 381 q 872 215 897 253 q 831 153 846 176 q 794 99 813 125 q 756 46 776 74 q 729 21 742 31 m 1388 758 q 1444 765 1408 763 q 1517 765 1479 767 q 1591 759 1556 764 q 1647 743 1626 754 q 1667 660 1664 713 q 1669 543 1669 607 q 1669 508 1669 529 q 1667 465 1668 488 q 1666 422 1667 443 q 1665 386 1665 400 q 1669 363 1665 371 q 1699 354 1674 354 q 1742 358 1722 354 q 1783 364 1761 363 q 1806 258 1803 314 q 1799 161 1808 201 q 1756 158 1779 154 q 1711 161 1732 161 q 1694 160 1701 161 q 1686 153 1686 158 q 1689 140 1686 146 q 1695 123 1692 133 q 1701 96 1699 113 q 1704 51 1704 79 q 1688 13 1704 29 q 1628 -1 1663 4 q 1560 -7 1594 -6 q 1495 -6 1526 -8 q 1443 6 1464 -3 q 1438 33 1438 17 q 1440 87 1438 63 q 1443 139 1443 111 q 1433 157 1443 153 q 1404 161 1424 161 q 1254 158 1325 161 q 1101 161 1183 154 q 1081 233 1083 196 q 1089 318 1079 271 q 1092 326 1090 322 q 1094 333 1093 329 q 1142 438 1110 375 q 1215 563 1175 500 q 1301 681 1256 626 q 1388 758 1346 735 m 1335 364 q 1342 349 1335 354 q 1372 343 1350 343 q 1410 347 1396 343 q 1432 360 1425 351 q 1441 383 1439 369 q 1443 417 1443 397 q 1442 486 1443 467 q 1421 506 1440 506 q 1397 488 1411 506 q 1368 447 1382 471 q 1344 400 1354 424 q 1335 364 1335 376 m 568 782 q 563 765 563 776 q 569 750 563 754 q 603 732 583 742 q 642 705 624 722 q 672 660 660 688 q 685 590 685 632 q 605 418 685 472 q 351 364 525 364 q 280 367 321 364 q 199 377 239 371 q 126 392 160 383 q 78 411 93 401 q 70 460 72 433 q 70 513 68 486 q 78 566 72 540 q 93 611 83 592 q 143 607 114 613 q 208 594 172 601 q 283 579 243 586 q 364 572 322 572 q 420 587 394 572 q 446 628 446 601 q 422 659 446 651 q 358 671 399 667 q 334 672 351 672 q 297 672 317 672 q 260 672 278 672 q 236 674 243 672 q 222 739 225 703 q 231 803 219 775 q 272 814 243 807 q 329 829 300 821 q 381 848 358 838 q 404 868 404 858 q 388 883 404 878 q 347 890 371 888 q 299 892 324 892 q 260 893 275 893 q 185 887 225 893 q 107 871 146 881 q 89 915 97 889 q 76 969 81 942 q 73 1024 72 997 q 82 1068 74 1050 q 147 1088 107 1081 q 230 1098 188 1094 q 312 1102 272 1101 q 374 1103 351 1103 q 574 1054 499 1103 q 649 918 649 1006 q 624 828 649 860 q 568 782 600 797 z "},"":{"ha":813,"x_min":43,"x_max":726,"o":"m 254 546 q 297 572 272 561 q 349 588 322 582 q 404 595 376 593 q 454 597 432 597 q 522 594 485 597 q 586 575 558 590 q 613 522 606 551 q 621 464 621 493 q 599 370 621 407 q 545 308 578 333 q 475 267 513 283 q 405 236 438 251 q 351 203 372 221 q 329 160 329 186 q 352 99 329 115 q 415 82 375 82 q 542 97 482 82 q 664 125 601 111 q 713 22 699 81 q 726 -93 726 -37 q 724 -140 726 -117 q 715 -186 722 -162 q 648 -223 686 -210 q 569 -242 610 -236 q 486 -250 528 -249 q 408 -251 444 -251 q 265 -235 332 -251 q 149 -183 199 -219 q 72 -87 100 -146 q 43 57 43 -29 q 60 176 43 129 q 101 253 76 222 q 153 303 125 283 q 206 339 182 322 q 247 374 231 356 q 264 422 264 393 q 258 475 264 451 q 251 528 251 499 q 254 546 251 540 m 256 832 q 265 894 256 871 q 294 931 275 918 q 340 949 313 944 q 401 953 367 953 q 520 923 481 953 q 560 810 560 893 q 526 701 560 735 q 417 667 492 667 q 297 710 338 667 q 256 832 256 753 z "},"":{"ha":1264,"x_min":-3,"x_max":1261,"o":"m 1260 21 q 1197 -12 1246 1 q 1087 -33 1149 -26 q 962 -39 1025 -40 q 856 -26 899 -37 q 821 58 840 15 q 790 139 801 100 q 773 175 785 163 q 742 194 761 188 q 695 201 724 200 q 626 203 667 203 q 581 203 607 203 q 529 203 554 204 q 483 198 504 201 q 456 186 463 194 q 443 170 449 178 q 432 151 438 163 q 420 124 426 140 q 404 79 414 107 q 390 35 396 54 q 381 1 385 15 q 372 -26 376 -14 q 361 -50 368 -39 q 265 -49 318 -54 q 161 -34 213 -44 q 66 -8 110 -24 q -3 25 22 7 q 1 63 -3 42 q 10 108 6 85 q 21 152 15 131 q 31 190 26 174 q 81 397 51 282 q 151 626 111 511 q 238 842 190 740 q 344 1006 286 943 q 397 1040 364 1026 q 471 1063 429 1054 q 558 1076 513 1072 q 650 1081 604 1081 q 724 1075 682 1081 q 809 1057 767 1069 q 890 1023 851 1044 q 950 968 928 1001 q 1013 858 982 922 q 1072 717 1043 793 q 1126 556 1100 640 q 1176 386 1153 471 q 1217 219 1199 301 q 1251 67 1236 138 q 1258 44 1254 56 q 1260 21 1261 32 m 522 481 q 538 440 515 446 q 585 434 561 433 q 633 435 610 435 q 695 438 671 435 q 732 448 719 442 q 748 462 744 454 q 749 479 751 469 q 736 541 744 497 q 714 631 728 585 q 680 711 700 676 q 632 746 660 746 q 593 713 611 746 q 561 636 575 681 q 537 548 547 592 q 522 481 526 504 m 410 1356 q 453 1428 421 1393 q 526 1486 485 1463 q 547 1489 540 1489 q 625 1456 586 1489 q 652 1428 639 1444 q 679 1392 665 1411 q 723 1343 700 1364 q 774 1301 746 1322 q 814 1269 792 1288 q 854 1229 836 1251 q 828 1168 844 1197 q 781 1122 813 1139 q 696 1143 740 1126 q 612 1181 651 1160 q 540 1226 572 1203 q 489 1263 507 1249 q 441 1306 464 1283 q 410 1356 418 1328 z "},"":{"ha":1264,"x_min":-3,"x_max":1261,"o":"m 1260 21 q 1197 -12 1246 1 q 1087 -33 1149 -26 q 962 -39 1025 -40 q 856 -26 899 -37 q 821 58 840 15 q 790 139 801 100 q 773 175 785 163 q 742 194 761 188 q 695 201 724 200 q 626 203 667 203 q 581 203 607 203 q 529 203 554 204 q 483 198 504 201 q 456 186 463 194 q 443 170 449 178 q 432 151 438 163 q 420 124 426 140 q 404 79 414 107 q 390 35 396 54 q 381 1 385 15 q 372 -26 376 -14 q 361 -50 368 -39 q 265 -49 318 -54 q 161 -34 213 -44 q 66 -8 110 -24 q -3 25 22 7 q 1 63 -3 42 q 10 108 6 85 q 21 152 15 131 q 31 190 26 174 q 81 397 51 282 q 151 626 111 511 q 238 842 190 740 q 344 1006 286 943 q 397 1040 364 1026 q 471 1063 429 1054 q 558 1076 513 1072 q 650 1081 604 1081 q 724 1075 682 1081 q 809 1057 767 1069 q 890 1023 851 1044 q 950 968 928 1001 q 1013 858 982 922 q 1072 717 1043 793 q 1126 556 1100 640 q 1176 386 1153 471 q 1217 219 1199 301 q 1251 67 1236 138 q 1258 44 1254 56 q 1260 21 1261 32 m 522 481 q 538 440 515 446 q 585 434 561 433 q 633 435 610 435 q 695 438 671 435 q 732 448 719 442 q 748 462 744 454 q 749 479 751 469 q 736 541 744 497 q 714 631 728 585 q 680 711 700 676 q 632 746 660 746 q 593 713 611 746 q 561 636 575 681 q 537 548 547 592 q 522 481 526 504 m 681 1485 q 781 1446 733 1475 q 856 1371 828 1417 q 826 1313 853 1339 q 771 1263 800 1286 q 719 1226 753 1249 q 643 1181 685 1203 q 556 1142 601 1160 q 468 1122 510 1125 q 421 1180 431 1150 q 407 1243 411 1210 q 443 1275 424 1260 q 478 1301 463 1290 q 530 1343 507 1322 q 574 1392 553 1364 q 603 1428 589 1411 q 629 1456 617 1444 q 681 1485 657 1476 z "},"":{"ha":1264,"x_min":-3,"x_max":1261,"o":"m 1260 21 q 1197 -12 1246 1 q 1087 -33 1149 -26 q 962 -39 1025 -40 q 856 -26 899 -37 q 821 58 840 15 q 790 139 801 100 q 773 175 785 163 q 742 194 761 188 q 695 201 724 200 q 626 203 667 203 q 581 203 607 203 q 529 203 554 204 q 483 198 504 201 q 456 186 463 194 q 443 170 449 178 q 432 151 438 163 q 420 124 426 140 q 404 79 414 107 q 390 35 396 54 q 381 1 385 15 q 372 -26 376 -14 q 361 -50 368 -39 q 265 -49 318 -54 q 161 -34 213 -44 q 66 -8 110 -24 q -3 25 22 7 q 1 63 -3 42 q 10 108 6 85 q 21 152 15 131 q 31 190 26 174 q 81 397 51 282 q 151 626 111 511 q 238 842 190 740 q 344 1006 286 943 q 397 1040 364 1026 q 471 1063 429 1054 q 558 1076 513 1072 q 650 1081 604 1081 q 724 1075 682 1081 q 809 1057 767 1069 q 890 1023 851 1044 q 950 968 928 1001 q 1013 858 982 922 q 1072 717 1043 793 q 1126 556 1100 640 q 1176 386 1153 471 q 1217 219 1199 301 q 1251 67 1236 138 q 1258 44 1254 56 q 1260 21 1261 32 m 522 481 q 538 440 515 446 q 585 434 561 433 q 633 435 610 435 q 695 438 671 435 q 732 448 719 442 q 748 462 744 454 q 749 479 751 469 q 736 541 744 497 q 714 631 728 585 q 680 711 700 676 q 632 746 660 746 q 593 713 611 746 q 561 636 575 681 q 537 548 547 592 q 522 481 526 504 m 976 1214 q 889 1151 940 1178 q 790 1122 838 1125 q 755 1156 772 1138 q 722 1194 738 1175 q 681 1238 700 1219 q 638 1257 661 1257 q 602 1242 618 1257 q 567 1208 586 1228 q 514 1153 543 1182 q 451 1110 485 1125 q 356 1131 401 1111 q 286 1181 310 1150 l 286 1186 q 303 1237 286 1208 q 350 1295 321 1265 q 416 1354 379 1325 q 490 1406 453 1383 q 565 1443 528 1429 q 629 1457 601 1457 q 685 1445 653 1457 q 753 1414 718 1433 q 824 1369 789 1394 q 890 1317 860 1344 q 944 1263 921 1290 q 976 1214 967 1236 z "},"":{"ha":1264,"x_min":-3,"x_max":1261,"o":"m 1260 21 q 1197 -12 1246 1 q 1087 -33 1149 -26 q 962 -39 1025 -40 q 856 -26 899 -37 q 821 58 840 15 q 790 139 801 100 q 773 175 785 163 q 742 194 761 188 q 695 201 724 200 q 626 203 667 203 q 581 203 607 203 q 529 203 554 204 q 483 198 504 201 q 456 186 463 194 q 443 170 449 178 q 432 151 438 163 q 420 124 426 140 q 404 79 414 107 q 390 35 396 54 q 381 1 385 15 q 372 -26 376 -14 q 361 -50 368 -39 q 265 -49 318 -54 q 161 -34 213 -44 q 66 -8 110 -24 q -3 25 22 7 q 1 63 -3 42 q 10 108 6 85 q 21 152 15 131 q 31 190 26 174 q 81 397 51 282 q 151 626 111 511 q 238 842 190 740 q 344 1006 286 943 q 397 1040 364 1026 q 471 1063 429 1054 q 558 1076 513 1072 q 650 1081 604 1081 q 724 1075 682 1081 q 809 1057 767 1069 q 890 1023 851 1044 q 950 968 928 1001 q 1013 858 982 922 q 1072 717 1043 793 q 1126 556 1100 640 q 1176 386 1153 471 q 1217 219 1199 301 q 1251 67 1236 138 q 1258 44 1254 56 q 1260 21 1261 32 m 522 481 q 538 440 515 446 q 585 434 561 433 q 633 435 610 435 q 695 438 671 435 q 732 448 719 442 q 748 462 744 454 q 749 479 751 469 q 736 541 744 497 q 714 631 728 585 q 680 711 700 676 q 632 746 660 746 q 593 713 611 746 q 561 636 575 681 q 537 548 547 592 q 522 481 526 504 m 390 1086 q 338 1110 361 1094 q 296 1144 315 1126 q 262 1182 276 1163 q 235 1218 247 1201 q 259 1312 239 1267 q 313 1392 279 1357 q 390 1449 346 1428 q 486 1471 435 1471 q 581 1452 544 1471 q 645 1410 618 1433 q 693 1369 672 1388 q 740 1350 714 1350 q 781 1361 761 1350 q 817 1389 800 1372 q 849 1424 835 1406 q 875 1454 864 1442 q 923 1434 899 1447 q 968 1405 947 1421 q 1006 1371 989 1389 q 1031 1335 1022 1353 q 1006 1242 1028 1285 q 951 1167 985 1199 q 872 1116 917 1135 q 776 1097 826 1097 q 684 1113 724 1097 q 613 1149 644 1129 q 557 1184 582 1168 q 508 1200 532 1200 q 471 1191 486 1200 q 442 1167 456 1182 q 417 1131 429 1151 q 390 1086 406 1110 z "},"":{"ha":1264,"x_min":-3,"x_max":1261,"o":"m 1260 21 q 1197 -12 1246 1 q 1087 -33 1149 -26 q 962 -39 1025 -40 q 856 -26 899 -37 q 821 58 840 15 q 790 139 801 100 q 773 175 785 163 q 742 194 761 188 q 695 201 724 200 q 626 203 667 203 q 581 203 607 203 q 529 203 554 204 q 483 198 504 201 q 456 186 463 194 q 443 170 449 178 q 432 151 438 163 q 420 124 426 140 q 404 79 414 107 q 390 35 396 54 q 381 1 385 15 q 372 -26 376 -14 q 361 -50 368 -39 q 265 -49 318 -54 q 161 -34 213 -44 q 66 -8 110 -24 q -3 25 22 7 q 1 63 -3 42 q 10 108 6 85 q 21 152 15 131 q 31 190 26 174 q 81 397 51 282 q 151 626 111 511 q 238 842 190 740 q 344 1006 286 943 q 397 1040 364 1026 q 471 1063 429 1054 q 558 1076 513 1072 q 650 1081 604 1081 q 724 1075 682 1081 q 809 1057 767 1069 q 890 1023 851 1044 q 950 968 928 1001 q 1013 858 982 922 q 1072 717 1043 793 q 1126 556 1100 640 q 1176 386 1153 471 q 1217 219 1199 301 q 1251 67 1236 138 q 1258 44 1254 56 q 1260 21 1261 32 m 522 481 q 538 440 515 446 q 585 434 561 433 q 633 435 610 435 q 695 438 671 435 q 732 448 719 442 q 748 462 744 454 q 749 479 751 469 q 736 541 744 497 q 714 631 728 585 q 680 711 700 676 q 632 746 660 746 q 593 713 611 746 q 561 636 575 681 q 537 548 547 592 q 522 481 526 504 m 808 1442 q 888 1427 857 1442 q 935 1390 918 1413 q 960 1340 953 1368 q 967 1285 967 1313 q 931 1174 967 1215 q 810 1132 896 1132 q 738 1144 768 1132 q 690 1177 708 1157 q 664 1222 672 1197 q 656 1272 656 1247 q 662 1331 656 1301 q 685 1386 668 1361 q 731 1426 701 1411 q 808 1442 761 1442 m 451 1425 q 526 1410 496 1425 q 574 1374 556 1396 q 601 1324 593 1351 q 610 1268 610 1296 q 571 1157 610 1199 q 439 1115 532 1115 q 365 1128 393 1115 q 323 1160 338 1140 q 303 1206 308 1181 q 299 1256 299 1231 q 306 1315 299 1285 q 330 1369 313 1344 q 377 1410 347 1394 q 451 1425 407 1425 z "},"":{"ha":1264,"x_min":-3,"x_max":1261,"o":"m 1260 21 q 1197 -12 1246 1 q 1087 -33 1149 -26 q 962 -39 1025 -40 q 856 -26 899 -37 q 821 58 840 15 q 790 139 801 100 q 773 175 785 163 q 742 194 761 188 q 695 201 724 200 q 626 203 667 203 q 581 203 607 203 q 529 203 554 204 q 483 198 504 201 q 456 186 463 194 q 443 170 449 178 q 432 151 438 163 q 420 124 426 140 q 404 79 414 107 q 390 35 396 54 q 381 1 385 15 q 372 -26 376 -14 q 361 -50 368 -39 q 265 -49 318 -54 q 161 -34 213 -44 q 66 -8 110 -24 q -3 25 22 7 q 1 63 -3 42 q 10 108 6 85 q 21 152 15 131 q 31 190 26 174 q 81 397 51 282 q 151 626 111 511 q 238 842 190 740 q 344 1006 286 943 q 397 1040 364 1026 q 471 1063 429 1054 q 558 1076 513 1072 q 650 1081 604 1081 q 724 1075 682 1081 q 809 1057 767 1069 q 890 1023 851 1044 q 950 968 928 1001 q 1013 858 982 922 q 1072 717 1043 793 q 1126 556 1100 640 q 1176 386 1153 471 q 1217 219 1199 301 q 1251 67 1236 138 q 1258 44 1254 56 q 1260 21 1261 32 m 522 481 q 538 440 515 446 q 585 434 561 433 q 633 435 610 435 q 695 438 671 435 q 732 448 719 442 q 748 462 744 454 q 749 479 751 469 q 736 541 744 497 q 714 631 728 585 q 680 711 700 676 q 632 746 660 746 q 593 713 611 746 q 561 636 575 681 q 537 548 547 592 q 522 481 526 504 m 633 1121 q 505 1129 560 1121 q 414 1159 450 1138 q 360 1218 378 1181 q 342 1313 342 1256 q 350 1395 342 1357 q 385 1460 358 1433 q 461 1503 411 1488 q 594 1518 511 1518 q 740 1510 678 1518 q 842 1478 801 1501 q 903 1415 883 1456 q 924 1313 924 1375 q 906 1212 924 1250 q 851 1153 888 1174 q 761 1127 815 1133 q 633 1121 707 1121 m 631 1350 q 604 1349 618 1350 q 578 1346 590 1349 q 558 1337 565 1343 q 550 1319 550 1331 q 577 1287 550 1293 q 633 1281 604 1281 q 665 1281 646 1281 q 701 1285 683 1282 q 732 1295 719 1289 q 744 1313 744 1301 q 733 1334 744 1326 q 704 1345 721 1342 q 669 1349 688 1349 q 638 1350 650 1350 l 631 1350 z "},"":{"ha":1732,"x_min":-3,"x_max":1694,"o":"m 1260 21 q 1197 -12 1246 1 q 1087 -33 1149 -26 q 962 -39 1025 -40 q 856 -26 899 -37 q 821 58 840 15 q 790 139 801 100 q 773 175 785 163 q 742 194 761 188 q 695 201 724 200 q 626 203 667 203 q 581 203 607 203 q 529 203 554 204 q 483 198 504 201 q 456 186 463 194 q 443 170 449 178 q 432 151 438 163 q 420 124 426 140 q 404 79 414 107 q 390 35 396 54 q 381 1 385 15 q 372 -26 376 -14 q 361 -50 368 -39 q 265 -49 318 -54 q 161 -34 213 -44 q 66 -8 110 -24 q -3 25 22 7 q 1 63 -3 42 q 10 108 6 85 q 21 152 15 131 q 31 190 26 174 q 81 397 51 282 q 151 626 111 511 q 238 842 190 740 q 344 1006 286 943 q 397 1040 364 1026 q 471 1063 429 1054 q 558 1076 513 1072 q 650 1081 604 1081 q 724 1075 682 1081 q 809 1057 767 1069 q 890 1023 851 1044 q 950 968 928 1001 q 1013 858 982 922 q 1072 717 1043 793 q 1126 556 1100 640 q 1176 386 1153 471 q 1217 219 1199 301 q 1251 67 1236 138 q 1258 44 1254 56 q 1260 21 1261 32 m 522 481 q 538 440 515 446 q 585 434 561 433 q 633 435 610 435 q 695 438 671 435 q 732 448 719 442 q 748 462 744 454 q 749 479 751 469 q 736 541 744 497 q 714 631 728 585 q 680 711 700 676 q 632 746 660 746 q 593 713 611 746 q 561 636 575 681 q 537 548 547 592 q 522 481 526 504 m 1656 271 q 1680 205 1671 247 q 1692 115 1689 163 q 1692 22 1694 68 q 1678 -54 1689 -24 q 1588 -77 1639 -69 q 1483 -88 1538 -85 q 1376 -92 1429 -92 q 1278 -93 1324 -93 q 1037 -87 1124 -93 q 908 -59 950 -82 q 857 11 867 -36 q 847 143 847 58 q 847 278 847 208 q 844 413 846 349 q 840 668 840 540 q 840 681 840 674 q 839 697 839 688 q 838 731 838 713 q 838 769 838 750 q 837 853 838 807 q 841 942 836 900 q 859 1018 846 985 q 899 1063 872 1051 q 994 1089 942 1081 q 1100 1100 1046 1097 q 1206 1102 1154 1103 q 1301 1101 1258 1101 q 1381 1099 1338 1101 q 1471 1090 1425 1096 q 1560 1074 1517 1083 q 1639 1051 1604 1065 q 1656 992 1651 1029 q 1660 913 1661 954 q 1653 830 1658 871 q 1642 757 1649 789 q 1602 749 1624 751 q 1549 747 1581 747 q 1474 748 1518 747 q 1368 749 1431 749 l 1299 749 q 1227 748 1254 749 q 1185 742 1200 747 q 1165 725 1169 736 q 1160 694 1160 714 q 1163 667 1160 681 q 1174 643 1165 654 q 1200 625 1183 632 q 1244 618 1217 618 q 1307 619 1269 618 q 1368 624 1344 621 q 1415 628 1392 626 q 1461 629 1438 629 q 1501 625 1483 629 q 1514 561 1510 599 q 1518 486 1518 524 q 1515 416 1518 449 q 1508 368 1513 383 q 1483 361 1499 365 q 1458 357 1468 357 q 1422 358 1440 357 q 1385 363 1404 360 q 1333 367 1365 365 q 1281 368 1301 368 q 1209 351 1231 368 q 1188 311 1188 333 q 1208 263 1188 274 q 1292 251 1229 251 q 1332 252 1310 251 q 1377 255 1354 253 q 1422 259 1400 257 q 1461 263 1444 261 q 1545 270 1497 267 q 1629 274 1593 274 q 1642 273 1636 274 q 1656 271 1649 272 z "},"":{"ha":1008,"x_min":15,"x_max":989,"o":"m 958 375 q 978 309 971 357 q 987 203 985 261 q 985 85 989 144 q 968 -17 981 25 q 901 -43 942 -29 q 810 -68 861 -57 q 703 -87 760 -79 q 586 -94 646 -94 q 354 -62 460 -94 q 174 41 249 -31 q 57 228 99 113 q 15 511 15 344 q 58 794 15 682 q 180 974 101 907 q 367 1067 258 1040 q 610 1093 476 1093 q 802 1082 718 1093 q 939 1053 886 1071 q 953 1010 947 1040 q 964 943 960 981 q 971 863 968 906 q 973 780 974 819 q 969 708 972 740 q 961 658 967 676 q 894 697 925 675 q 830 739 864 719 q 751 772 796 758 q 644 785 707 785 q 553 768 599 785 q 473 719 508 751 q 416 638 438 686 q 394 525 394 589 q 453 335 394 396 q 613 275 513 275 q 707 288 660 275 q 799 317 754 300 q 885 350 844 333 q 958 375 925 367 m 317 -331 q 299 -240 300 -286 q 310 -149 297 -194 q 325 -147 317 -147 q 342 -144 333 -146 q 378 -141 361 -143 q 409 -134 396 -139 q 431 -121 422 -129 q 439 -99 439 -112 q 429 -77 439 -87 q 407 -54 419 -67 q 385 -30 396 -43 q 374 7 374 -17 q 394 69 374 40 q 444 115 414 97 q 526 112 485 122 q 599 78 567 101 q 590 51 597 63 q 584 35 588 43 q 581 19 581 26 q 597 -10 581 1 q 636 -32 613 -21 q 662 -47 649 -39 q 686 -68 675 -56 q 704 -100 697 -81 q 711 -149 711 -119 q 680 -244 711 -206 q 601 -306 649 -282 q 495 -339 553 -329 q 385 -349 438 -349 q 317 -331 346 -349 z "},"":{"ha":940,"x_min":44,"x_max":903,"o":"m 864 271 q 888 205 879 247 q 900 115 897 163 q 900 22 903 68 q 886 -54 897 -24 q 797 -77 847 -69 q 692 -88 746 -85 q 585 -92 638 -92 q 486 -93 532 -93 q 245 -87 332 -93 q 117 -59 158 -82 q 65 11 75 -36 q 56 143 56 58 q 55 278 56 208 q 53 413 54 349 q 49 668 49 540 q 48 681 49 674 q 47 697 47 688 q 46 731 46 713 q 46 769 46 750 q 45 853 46 807 q 49 942 44 900 q 67 1018 54 985 q 107 1063 81 1051 q 202 1089 150 1081 q 308 1100 254 1097 q 415 1102 363 1103 q 510 1101 467 1101 q 590 1099 546 1101 q 679 1090 633 1096 q 769 1074 725 1083 q 847 1051 813 1065 q 865 992 860 1029 q 868 913 869 954 q 862 830 867 871 q 850 757 857 789 q 810 749 832 751 q 758 747 789 747 q 683 748 726 747 q 576 749 639 749 l 507 749 q 435 748 463 749 q 393 742 408 747 q 373 725 378 736 q 368 694 368 714 q 371 667 368 681 q 383 643 374 654 q 408 625 392 632 q 453 618 425 618 q 515 619 478 618 q 576 624 553 621 q 623 628 600 626 q 669 629 646 629 q 710 625 692 629 q 722 561 718 599 q 726 486 726 524 q 724 416 726 449 q 717 368 721 383 q 692 361 707 365 q 667 357 676 357 q 631 358 649 357 q 593 363 613 360 q 542 367 574 365 q 489 368 510 368 q 417 351 439 368 q 396 311 396 333 q 417 263 396 274 q 500 251 438 251 q 540 252 518 251 q 585 255 563 253 q 631 259 608 257 q 669 263 653 261 q 753 270 706 267 q 838 274 801 274 q 851 273 844 274 q 864 271 857 272 m 249 1356 q 292 1428 260 1393 q 365 1486 324 1463 q 386 1489 379 1489 q 464 1456 425 1489 q 491 1428 478 1444 q 518 1392 504 1411 q 562 1343 539 1364 q 613 1301 585 1322 q 653 1269 631 1288 q 693 1229 675 1251 q 667 1168 683 1197 q 619 1122 651 1139 q 535 1143 579 1126 q 451 1181 490 1160 q 378 1226 411 1203 q 328 1263 346 1249 q 280 1306 303 1283 q 249 1356 257 1328 z "},"":{"ha":940,"x_min":44,"x_max":903,"o":"m 864 271 q 888 205 879 247 q 900 115 897 163 q 900 22 903 68 q 886 -54 897 -24 q 797 -77 847 -69 q 692 -88 746 -85 q 585 -92 638 -92 q 486 -93 532 -93 q 245 -87 332 -93 q 117 -59 158 -82 q 65 11 75 -36 q 56 143 56 58 q 55 278 56 208 q 53 413 54 349 q 49 668 49 540 q 48 681 49 674 q 47 697 47 688 q 46 731 46 713 q 46 769 46 750 q 45 853 46 807 q 49 942 44 900 q 67 1018 54 985 q 107 1063 81 1051 q 202 1089 150 1081 q 308 1100 254 1097 q 415 1102 363 1103 q 510 1101 467 1101 q 590 1099 546 1101 q 679 1090 633 1096 q 769 1074 725 1083 q 847 1051 813 1065 q 865 992 860 1029 q 868 913 869 954 q 862 830 867 871 q 850 757 857 789 q 810 749 832 751 q 758 747 789 747 q 683 748 726 747 q 576 749 639 749 l 507 749 q 435 748 463 749 q 393 742 408 747 q 373 725 378 736 q 368 694 368 714 q 371 667 368 681 q 383 643 374 654 q 408 625 392 632 q 453 618 425 618 q 515 619 478 618 q 576 624 553 621 q 623 628 600 626 q 669 629 646 629 q 710 625 692 629 q 722 561 718 599 q 726 486 726 524 q 724 416 726 449 q 717 368 721 383 q 692 361 707 365 q 667 357 676 357 q 631 358 649 357 q 593 363 613 360 q 542 367 574 365 q 489 368 510 368 q 417 351 439 368 q 396 311 396 333 q 417 263 396 274 q 500 251 438 251 q 540 252 518 251 q 585 255 563 253 q 631 259 608 257 q 669 263 653 261 q 753 270 706 267 q 838 274 801 274 q 851 273 844 274 q 864 271 857 272 m 519 1485 q 619 1446 572 1475 q 694 1371 667 1417 q 665 1313 692 1339 q 610 1263 639 1286 q 558 1226 592 1249 q 482 1181 524 1203 q 394 1142 440 1160 q 307 1122 349 1125 q 260 1180 269 1150 q 246 1243 250 1210 q 282 1275 263 1260 q 317 1301 301 1290 q 369 1343 346 1322 q 413 1392 392 1364 q 442 1428 428 1411 q 468 1456 456 1444 q 519 1485 496 1476 z "},"":{"ha":940,"x_min":44,"x_max":903,"o":"m 864 271 q 888 205 879 247 q 900 115 897 163 q 900 22 903 68 q 886 -54 897 -24 q 797 -77 847 -69 q 692 -88 746 -85 q 585 -92 638 -92 q 486 -93 532 -93 q 245 -87 332 -93 q 117 -59 158 -82 q 65 11 75 -36 q 56 143 56 58 q 55 278 56 208 q 53 413 54 349 q 49 668 49 540 q 48 681 49 674 q 47 697 47 688 q 46 731 46 713 q 46 769 46 750 q 45 853 46 807 q 49 942 44 900 q 67 1018 54 985 q 107 1063 81 1051 q 202 1089 150 1081 q 308 1100 254 1097 q 415 1102 363 1103 q 510 1101 467 1101 q 590 1099 546 1101 q 679 1090 633 1096 q 769 1074 725 1083 q 847 1051 813 1065 q 865 992 860 1029 q 868 913 869 954 q 862 830 867 871 q 850 757 857 789 q 810 749 832 751 q 758 747 789 747 q 683 748 726 747 q 576 749 639 749 l 507 749 q 435 748 463 749 q 393 742 408 747 q 373 725 378 736 q 368 694 368 714 q 371 667 368 681 q 383 643 374 654 q 408 625 392 632 q 453 618 425 618 q 515 619 478 618 q 576 624 553 621 q 623 628 600 626 q 669 629 646 629 q 710 625 692 629 q 722 561 718 599 q 726 486 726 524 q 724 416 726 449 q 717 368 721 383 q 692 361 707 365 q 667 357 676 357 q 631 358 649 357 q 593 363 613 360 q 542 367 574 365 q 489 368 510 368 q 417 351 439 368 q 396 311 396 333 q 417 263 396 274 q 500 251 438 251 q 540 252 518 251 q 585 255 563 253 q 631 259 608 257 q 669 263 653 261 q 753 270 706 267 q 838 274 801 274 q 851 273 844 274 q 864 271 857 272 m 815 1214 q 728 1151 779 1178 q 629 1122 676 1125 q 594 1156 611 1138 q 561 1194 576 1175 q 519 1238 539 1219 q 476 1257 500 1257 q 441 1242 457 1257 q 406 1208 425 1228 q 353 1153 382 1182 q 290 1110 324 1125 q 194 1131 240 1111 q 125 1181 149 1150 l 125 1186 q 142 1237 125 1208 q 189 1295 160 1265 q 255 1354 218 1325 q 329 1406 292 1383 q 403 1443 367 1429 q 468 1457 440 1457 q 524 1445 492 1457 q 592 1414 557 1433 q 663 1369 628 1394 q 729 1317 699 1344 q 783 1263 760 1290 q 815 1214 806 1236 z "},"":{"ha":940,"x_min":44,"x_max":903,"o":"m 864 271 q 888 205 879 247 q 900 115 897 163 q 900 22 903 68 q 886 -54 897 -24 q 797 -77 847 -69 q 692 -88 746 -85 q 585 -92 638 -92 q 486 -93 532 -93 q 245 -87 332 -93 q 117 -59 158 -82 q 65 11 75 -36 q 56 143 56 58 q 55 278 56 208 q 53 413 54 349 q 49 668 49 540 q 48 681 49 674 q 47 697 47 688 q 46 731 46 713 q 46 769 46 750 q 45 853 46 807 q 49 942 44 900 q 67 1018 54 985 q 107 1063 81 1051 q 202 1089 150 1081 q 308 1100 254 1097 q 415 1102 363 1103 q 510 1101 467 1101 q 590 1099 546 1101 q 679 1090 633 1096 q 769 1074 725 1083 q 847 1051 813 1065 q 865 992 860 1029 q 868 913 869 954 q 862 830 867 871 q 850 757 857 789 q 810 749 832 751 q 758 747 789 747 q 683 748 726 747 q 576 749 639 749 l 507 749 q 435 748 463 749 q 393 742 408 747 q 373 725 378 736 q 368 694 368 714 q 371 667 368 681 q 383 643 374 654 q 408 625 392 632 q 453 618 425 618 q 515 619 478 618 q 576 624 553 621 q 623 628 600 626 q 669 629 646 629 q 710 625 692 629 q 722 561 718 599 q 726 486 726 524 q 724 416 726 449 q 717 368 721 383 q 692 361 707 365 q 667 357 676 357 q 631 358 649 357 q 593 363 613 360 q 542 367 574 365 q 489 368 510 368 q 417 351 439 368 q 396 311 396 333 q 417 263 396 274 q 500 251 438 251 q 540 252 518 251 q 585 255 563 253 q 631 259 608 257 q 669 263 653 261 q 753 270 706 267 q 838 274 801 274 q 851 273 844 274 q 864 271 857 272 m 646 1442 q 725 1427 694 1442 q 773 1390 756 1413 q 797 1340 790 1368 q 804 1285 804 1313 q 769 1174 804 1215 q 647 1132 733 1132 q 576 1144 606 1132 q 528 1177 546 1157 q 501 1222 510 1197 q 493 1272 493 1247 q 499 1331 493 1301 q 522 1386 506 1361 q 569 1426 539 1411 q 646 1442 599 1442 m 289 1425 q 363 1410 333 1425 q 412 1374 393 1396 q 439 1324 431 1351 q 447 1268 447 1296 q 408 1157 447 1199 q 276 1115 369 1115 q 203 1128 231 1115 q 160 1160 175 1140 q 141 1206 146 1181 q 136 1256 136 1231 q 143 1315 136 1285 q 167 1369 150 1344 q 215 1410 185 1394 q 289 1425 244 1425 z "},"":{"ha":629,"x_min":78,"x_max":582,"o":"m 97 1024 q 192 1044 129 1038 q 321 1050 254 1050 q 424 1046 376 1050 q 493 1031 471 1042 q 510 972 501 1017 q 526 861 518 926 q 540 715 533 796 q 553 549 547 635 q 563 380 558 464 q 572 224 568 296 q 578 97 576 151 q 582 15 581 42 q 571 -25 582 -8 q 459 -58 529 -47 q 313 -69 389 -69 q 210 -64 260 -69 q 118 -47 160 -58 q 103 -21 107 -33 q 95 42 99 -4 q 89 150 92 88 q 84 288 86 213 q 81 440 82 363 q 78 593 79 518 q 78 731 78 668 q 81 889 78 825 q 93 1010 83 953 q 97 1024 93 1018 m 93 1356 q 136 1428 104 1393 q 210 1486 168 1463 q 231 1489 224 1489 q 308 1456 269 1489 q 335 1428 322 1444 q 363 1392 349 1411 q 406 1343 383 1364 q 457 1301 429 1322 q 497 1269 475 1288 q 538 1229 519 1251 q 512 1168 528 1197 q 464 1122 496 1139 q 379 1143 424 1126 q 295 1181 335 1160 q 223 1226 256 1203 q 172 1263 190 1249 q 124 1306 147 1283 q 93 1356 101 1328 z "},"":{"ha":629,"x_min":78,"x_max":582,"o":"m 97 1024 q 192 1044 129 1038 q 321 1050 254 1050 q 424 1046 376 1050 q 493 1031 471 1042 q 510 972 501 1017 q 526 861 518 926 q 540 715 533 796 q 553 549 547 635 q 563 380 558 464 q 572 224 568 296 q 578 97 576 151 q 582 15 581 42 q 571 -25 582 -8 q 459 -58 529 -47 q 313 -69 389 -69 q 210 -64 260 -69 q 118 -47 160 -58 q 103 -21 107 -33 q 95 42 99 -4 q 89 150 92 88 q 84 288 86 213 q 81 440 82 363 q 78 593 79 518 q 78 731 78 668 q 81 889 78 825 q 93 1010 83 953 q 97 1024 93 1018 m 364 1485 q 464 1446 417 1475 q 539 1371 511 1417 q 510 1313 536 1339 q 454 1263 483 1286 q 402 1226 436 1249 q 326 1181 368 1203 q 239 1142 285 1160 q 151 1122 193 1125 q 104 1180 114 1150 q 90 1243 94 1210 q 126 1275 107 1260 q 161 1301 146 1290 q 213 1343 190 1322 q 257 1392 236 1364 q 286 1428 272 1411 q 313 1456 300 1444 q 364 1485 340 1476 z "},"":{"ha":629,"x_min":-32,"x_max":660,"o":"m 97 1024 q 192 1044 129 1038 q 321 1050 254 1050 q 424 1046 376 1050 q 493 1031 471 1042 q 510 972 501 1017 q 526 861 518 926 q 540 715 533 796 q 553 549 547 635 q 563 380 558 464 q 572 224 568 296 q 578 97 576 151 q 582 15 581 42 q 571 -25 582 -8 q 459 -58 529 -47 q 313 -69 389 -69 q 210 -64 260 -69 q 118 -47 160 -58 q 103 -21 107 -33 q 95 42 99 -4 q 89 150 92 88 q 84 288 86 213 q 81 440 82 363 q 78 593 79 518 q 78 731 78 668 q 81 889 78 825 q 93 1010 83 953 q 97 1024 93 1018 m 660 1214 q 572 1151 624 1178 q 474 1122 521 1125 q 438 1156 456 1138 q 406 1194 421 1175 q 364 1238 383 1219 q 321 1257 344 1257 q 285 1242 301 1257 q 250 1208 269 1228 q 197 1153 226 1182 q 135 1110 168 1125 q 39 1131 85 1111 q -31 1181 -7 1150 l -31 1186 q -13 1237 -31 1208 q 33 1295 4 1265 q 99 1354 63 1325 q 174 1406 136 1383 q 248 1443 211 1429 q 313 1457 285 1457 q 369 1445 336 1457 q 437 1414 401 1433 q 508 1369 472 1394 q 574 1317 543 1344 q 627 1263 604 1290 q 660 1214 650 1236 z "},"":{"ha":629,"x_min":-19,"x_max":650,"o":"m 97 1024 q 192 1044 129 1038 q 321 1050 254 1050 q 424 1046 376 1050 q 493 1031 471 1042 q 510 972 501 1017 q 526 861 518 926 q 540 715 533 796 q 553 549 547 635 q 563 380 558 464 q 572 224 568 296 q 578 97 576 151 q 582 15 581 42 q 571 -25 582 -8 q 459 -58 529 -47 q 313 -69 389 -69 q 210 -64 260 -69 q 118 -47 160 -58 q 103 -21 107 -33 q 95 42 99 -4 q 89 150 92 88 q 84 288 86 213 q 81 440 82 363 q 78 593 79 518 q 78 731 78 668 q 81 889 78 825 q 93 1010 83 953 q 97 1024 93 1018 m 490 1442 q 569 1427 539 1442 q 617 1390 600 1413 q 642 1340 635 1368 q 649 1285 649 1313 q 613 1174 649 1215 q 492 1132 578 1132 q 420 1144 450 1132 q 372 1177 390 1157 q 346 1222 354 1197 q 338 1272 338 1247 q 344 1331 338 1301 q 367 1386 350 1361 q 413 1426 383 1411 q 490 1442 443 1442 m 133 1425 q 208 1410 178 1425 q 256 1374 238 1396 q 283 1324 275 1351 q 292 1268 292 1296 q 253 1157 292 1199 q 121 1115 214 1115 q 47 1128 75 1115 q 5 1160 19 1140 q -15 1206 -10 1181 q -19 1256 -19 1231 q -12 1315 -19 1285 q 12 1369 -6 1344 q 59 1410 29 1394 q 133 1425 89 1425 z "},"":{"ha":1119,"x_min":-3,"x_max":1092,"o":"m 519 760 q 473 746 490 760 q 447 702 456 732 q 435 626 438 672 q 432 518 432 581 q 449 327 432 392 q 524 263 467 263 q 598 283 561 263 q 664 340 635 303 q 710 429 693 378 q 728 543 728 481 q 671 705 728 650 q 519 760 614 760 m 76 788 q 35 807 50 786 q 12 857 19 828 q 2 917 4 886 q 0 968 0 949 q 4 1019 0 997 q 22 1056 8 1042 q 60 1078 36 1071 q 124 1086 85 1086 q 234 1085 179 1086 q 344 1076 289 1083 q 519 1060 432 1067 q 693 1033 607 1053 q 879 959 803 1010 q 1003 839 956 908 q 1071 686 1050 769 q 1092 513 1092 603 q 1056 312 1092 400 q 958 156 1019 224 q 817 42 897 89 q 648 -35 736 -6 q 468 -78 560 -64 q 294 -92 376 -92 q 163 -52 214 -92 q 100 54 113 -12 q 87 160 92 100 q 79 286 82 221 q 75 415 76 351 q 74 531 74 479 q 74 599 74 568 q 75 660 75 631 q 76 719 75 689 q 76 788 76 750 m 475 644 q 483 553 488 600 q 471 469 479 507 q 465 467 468 468 q 460 465 463 467 q 359 450 414 454 q 256 446 304 446 q 199 448 231 446 q 135 454 168 450 q 69 465 101 458 q 13 481 38 471 q 0 574 1 528 q 13 668 -1 619 q 66 681 33 679 q 146 682 99 682 q 224 681 179 682 q 314 676 268 681 q 402 665 360 672 q 475 644 444 657 z "},"":{"ha":1200,"x_min":4,"x_max":1164,"o":"m 1071 -10 q 1025 -32 1058 -24 q 950 -42 992 -40 q 864 -41 908 -44 q 785 -26 819 -37 q 669 86 718 21 q 581 210 619 151 q 514 310 543 269 q 461 351 485 351 q 434 344 439 351 q 429 310 429 336 q 434 246 429 281 q 445 176 439 211 q 456 106 451 140 q 461 42 461 71 q 458 4 461 22 q 443 -29 456 -14 q 363 -58 411 -49 q 264 -69 315 -67 q 165 -67 213 -71 q 86 -57 118 -64 q 71 -25 74 -40 q 58 40 64 3 q 49 115 53 76 q 44 190 46 153 q 42 256 42 226 q 47 492 42 376 q 75 719 51 608 q 78 735 78 731 q 79 744 79 740 q 72 769 79 761 q 53 783 64 776 q 33 797 43 789 q 15 821 22 804 q 10 842 13 828 q 7 870 8 856 q 5 898 6 885 q 4 919 4 911 q 11 1010 4 978 q 38 1057 18 1042 q 90 1075 57 1072 q 175 1078 124 1078 q 258 1076 217 1078 q 342 1074 300 1074 q 417 1069 378 1074 q 488 1042 457 1065 q 531 983 510 1025 q 572 889 551 942 q 610 778 592 836 q 649 673 629 721 q 687 594 668 625 q 725 564 706 564 q 748 585 744 564 q 751 628 751 606 q 745 790 751 714 q 739 951 739 867 q 742 1008 739 976 q 765 1058 746 1040 q 835 1076 794 1071 q 922 1082 876 1082 q 1010 1075 967 1082 q 1088 1056 1054 1068 q 1121 1008 1111 1036 q 1144 919 1136 969 q 1157 817 1153 869 q 1163 714 1161 765 q 1164 621 1164 663 q 1163 531 1164 583 q 1160 420 1163 479 q 1152 300 1157 361 q 1138 183 1147 239 q 1113 78 1128 126 q 1078 0 1099 31 q 1074 -5 1075 -3 q 1071 -10 1074 -7 m 358 1086 q 306 1110 329 1094 q 264 1144 283 1126 q 230 1182 244 1163 q 203 1218 215 1201 q 227 1312 207 1267 q 281 1392 247 1357 q 358 1449 314 1428 q 454 1471 403 1471 q 549 1452 513 1471 q 613 1410 586 1433 q 661 1369 640 1388 q 708 1350 682 1350 q 749 1361 729 1350 q 785 1389 768 1372 q 817 1424 803 1406 q 843 1454 832 1442 q 891 1434 867 1447 q 936 1405 915 1421 q 974 1371 957 1389 q 999 1335 990 1353 q 974 1242 996 1285 q 919 1167 953 1199 q 840 1116 885 1135 q 744 1097 794 1097 q 652 1113 692 1097 q 581 1149 613 1129 q 525 1184 550 1168 q 476 1200 500 1200 q 439 1191 454 1200 q 410 1167 424 1182 q 385 1131 397 1151 q 358 1086 374 1110 z "},"":{"ha":1242,"x_min":15,"x_max":1221,"o":"m 15 511 q 92 869 15 738 q 299 1053 168 1001 q 375 1074 333 1067 q 460 1086 417 1082 q 547 1092 504 1090 q 628 1093 590 1093 q 704 1092 664 1093 q 786 1085 744 1090 q 867 1073 828 1081 q 939 1053 907 1065 q 1056 981 1004 1026 q 1145 869 1108 936 q 1201 713 1182 803 q 1221 511 1221 624 q 1179 228 1221 344 q 1063 41 1138 113 q 883 -62 988 -31 q 650 -94 778 -94 l 586 -94 q 354 -62 460 -94 q 174 41 249 -31 q 57 228 99 113 q 15 511 15 344 m 618 783 q 535 765 575 783 q 463 714 494 747 q 413 633 432 681 q 394 525 394 585 q 448 341 394 407 q 618 275 501 275 q 790 341 736 275 q 843 525 843 407 q 824 633 843 585 q 774 714 806 681 q 703 765 743 747 q 618 783 663 783 m 399 1356 q 442 1428 410 1393 q 515 1486 474 1463 q 536 1489 529 1489 q 614 1456 575 1489 q 641 1428 628 1444 q 668 1392 654 1411 q 712 1343 689 1364 q 763 1301 735 1322 q 803 1269 781 1288 q 843 1229 825 1251 q 817 1168 833 1197 q 769 1122 801 1139 q 685 1143 729 1126 q 601 1181 640 1160 q 528 1226 561 1203 q 478 1263 496 1249 q 430 1306 453 1283 q 399 1356 407 1328 z "},"":{"ha":1242,"x_min":15,"x_max":1221,"o":"m 15 511 q 92 869 15 738 q 299 1053 168 1001 q 375 1074 333 1067 q 460 1086 417 1082 q 547 1092 504 1090 q 628 1093 590 1093 q 704 1092 664 1093 q 786 1085 744 1090 q 867 1073 828 1081 q 939 1053 907 1065 q 1056 981 1004 1026 q 1145 869 1108 936 q 1201 713 1182 803 q 1221 511 1221 624 q 1179 228 1221 344 q 1063 41 1138 113 q 883 -62 988 -31 q 650 -94 778 -94 l 586 -94 q 354 -62 460 -94 q 174 41 249 -31 q 57 228 99 113 q 15 511 15 344 m 618 783 q 535 765 575 783 q 463 714 494 747 q 413 633 432 681 q 394 525 394 585 q 448 341 394 407 q 618 275 501 275 q 790 341 736 275 q 843 525 843 407 q 824 633 843 585 q 774 714 806 681 q 703 765 743 747 q 618 783 663 783 m 669 1485 q 769 1446 722 1475 q 844 1371 817 1417 q 815 1313 842 1339 q 760 1263 789 1286 q 708 1226 742 1249 q 632 1181 674 1203 q 544 1142 590 1160 q 457 1122 499 1125 q 410 1180 419 1150 q 396 1243 400 1210 q 432 1275 413 1260 q 467 1301 451 1290 q 519 1343 496 1322 q 563 1392 542 1364 q 592 1428 578 1411 q 618 1456 606 1444 q 669 1485 646 1476 z "},"":{"ha":1242,"x_min":15,"x_max":1221,"o":"m 15 511 q 92 869 15 738 q 299 1053 168 1001 q 375 1074 333 1067 q 460 1086 417 1082 q 547 1092 504 1090 q 628 1093 590 1093 q 704 1092 664 1093 q 786 1085 744 1090 q 867 1073 828 1081 q 939 1053 907 1065 q 1056 981 1004 1026 q 1145 869 1108 936 q 1201 713 1182 803 q 1221 511 1221 624 q 1179 228 1221 344 q 1063 41 1138 113 q 883 -62 988 -31 q 650 -94 778 -94 l 586 -94 q 354 -62 460 -94 q 174 41 249 -31 q 57 228 99 113 q 15 511 15 344 m 618 783 q 535 765 575 783 q 463 714 494 747 q 413 633 432 681 q 394 525 394 585 q 448 341 394 407 q 618 275 501 275 q 790 341 736 275 q 843 525 843 407 q 824 633 843 585 q 774 714 806 681 q 703 765 743 747 q 618 783 663 783 m 965 1214 q 878 1151 929 1178 q 779 1122 826 1125 q 744 1156 761 1138 q 711 1194 726 1175 q 669 1238 689 1219 q 626 1257 650 1257 q 591 1242 607 1257 q 556 1208 575 1228 q 503 1153 532 1182 q 440 1110 474 1125 q 344 1131 390 1111 q 275 1181 299 1150 l 275 1186 q 292 1237 275 1208 q 339 1295 310 1265 q 405 1354 368 1325 q 479 1406 442 1383 q 553 1443 517 1429 q 618 1457 590 1457 q 674 1445 642 1457 q 742 1414 707 1433 q 813 1369 778 1394 q 879 1317 849 1344 q 933 1263 910 1290 q 965 1214 956 1236 z "},"":{"ha":1242,"x_min":15,"x_max":1221,"o":"m 15 511 q 92 869 15 738 q 299 1053 168 1001 q 375 1074 333 1067 q 460 1086 417 1082 q 547 1092 504 1090 q 628 1093 590 1093 q 704 1092 664 1093 q 786 1085 744 1090 q 867 1073 828 1081 q 939 1053 907 1065 q 1056 981 1004 1026 q 1145 869 1108 936 q 1201 713 1182 803 q 1221 511 1221 624 q 1179 228 1221 344 q 1063 41 1138 113 q 883 -62 988 -31 q 650 -94 778 -94 l 586 -94 q 354 -62 460 -94 q 174 41 249 -31 q 57 228 99 113 q 15 511 15 344 m 618 783 q 535 765 575 783 q 463 714 494 747 q 413 633 432 681 q 394 525 394 585 q 448 341 394 407 q 618 275 501 275 q 790 341 736 275 q 843 525 843 407 q 824 633 843 585 q 774 714 806 681 q 703 765 743 747 q 618 783 663 783 m 379 1086 q 327 1110 350 1094 q 285 1144 304 1126 q 251 1182 265 1163 q 224 1218 236 1201 q 248 1312 228 1267 q 301 1392 268 1357 q 379 1449 335 1428 q 475 1471 424 1471 q 570 1452 533 1471 q 634 1410 607 1433 q 682 1369 661 1388 q 729 1350 703 1350 q 769 1361 750 1350 q 806 1389 789 1372 q 838 1424 824 1406 q 864 1454 853 1442 q 912 1434 888 1447 q 957 1405 936 1421 q 994 1371 978 1389 q 1019 1335 1011 1353 q 995 1242 1017 1285 q 940 1167 974 1199 q 860 1116 906 1135 q 765 1097 815 1097 q 673 1113 713 1097 q 602 1149 633 1129 q 546 1184 571 1168 q 497 1200 521 1200 q 460 1191 475 1200 q 431 1167 444 1182 q 406 1131 418 1151 q 379 1086 394 1110 z "},"":{"ha":1242,"x_min":15,"x_max":1221,"o":"m 15 511 q 92 869 15 738 q 299 1053 168 1001 q 375 1074 333 1067 q 460 1086 417 1082 q 547 1092 504 1090 q 628 1093 590 1093 q 704 1092 664 1093 q 786 1085 744 1090 q 867 1073 828 1081 q 939 1053 907 1065 q 1056 981 1004 1026 q 1145 869 1108 936 q 1201 713 1182 803 q 1221 511 1221 624 q 1179 228 1221 344 q 1063 41 1138 113 q 883 -62 988 -31 q 650 -94 778 -94 l 586 -94 q 354 -62 460 -94 q 174 41 249 -31 q 57 228 99 113 q 15 511 15 344 m 618 783 q 535 765 575 783 q 463 714 494 747 q 413 633 432 681 q 394 525 394 585 q 448 341 394 407 q 618 275 501 275 q 790 341 736 275 q 843 525 843 407 q 824 633 843 585 q 774 714 806 681 q 703 765 743 747 q 618 783 663 783 m 797 1442 q 876 1427 846 1442 q 924 1390 907 1413 q 949 1340 942 1368 q 956 1285 956 1313 q 920 1174 956 1215 q 799 1132 885 1132 q 727 1144 757 1132 q 679 1177 697 1157 q 653 1222 661 1197 q 644 1272 644 1247 q 651 1331 644 1301 q 674 1386 657 1361 q 720 1426 690 1411 q 797 1442 750 1442 m 440 1425 q 515 1410 485 1425 q 563 1374 544 1396 q 590 1324 582 1351 q 599 1268 599 1296 q 560 1157 599 1199 q 428 1115 521 1115 q 354 1128 382 1115 q 312 1160 326 1140 q 292 1206 297 1181 q 288 1256 288 1231 q 294 1315 288 1285 q 319 1369 301 1344 q 366 1410 336 1394 q 440 1425 396 1425 z "},"":{"ha":982,"x_min":104,"x_max":915,"o":"m 104 696 q 133 750 115 721 q 173 807 150 779 q 225 859 196 835 q 290 899 254 883 q 341 842 311 878 q 401 772 371 807 q 458 713 432 738 q 499 688 485 688 q 531 710 513 688 q 571 766 550 733 q 614 833 592 799 q 656 893 636 868 q 718 860 685 883 q 784 806 751 836 q 847 739 817 775 q 899 667 876 703 q 846 622 876 644 q 787 578 815 599 q 739 543 758 558 q 719 519 719 528 q 740 497 719 511 q 789 466 760 483 q 852 428 818 449 q 915 389 886 408 q 847 251 892 321 q 739 136 803 181 q 676 191 710 157 q 612 258 643 225 q 556 315 581 290 q 521 339 532 339 q 491 315 510 339 q 449 256 472 290 q 399 186 425 222 q 346 126 372 150 q 213 210 268 151 q 118 332 158 268 q 172 385 139 357 q 235 438 204 413 q 290 484 267 464 q 313 514 313 504 q 288 543 313 524 q 228 588 263 563 q 159 642 194 614 q 104 696 124 669 z "},"":{"ha":1242,"x_min":15,"x_max":1221,"o":"m 824 1253 q 943 1208 883 1239 q 1051 1133 1003 1176 q 1038 1079 1047 1110 q 1017 1011 1029 1049 q 1167 824 1113 946 q 1221 511 1221 701 q 1179 228 1221 344 q 1063 41 1138 113 q 883 -62 988 -31 q 650 -94 778 -94 l 586 -94 q 548 -94 567 -94 q 511 -92 529 -93 q 454 -180 479 -144 q 413 -229 429 -215 q 288 -159 350 -203 q 186 -57 226 -115 q 197 -26 190 -43 q 210 11 203 -8 q 67 202 118 81 q 15 511 15 324 q 92 869 15 738 q 299 1053 168 1001 q 375 1074 333 1067 q 460 1086 417 1082 q 547 1092 504 1090 q 628 1093 590 1093 q 665 1093 646 1093 q 704 1092 685 1093 q 774 1202 743 1160 q 824 1253 804 1244 m 618 783 q 535 765 575 783 q 463 714 494 747 q 413 633 432 681 q 394 525 394 585 q 448 341 394 407 q 618 275 501 275 q 790 341 736 275 q 843 525 843 407 q 824 633 843 585 q 774 714 806 681 q 703 765 743 747 q 618 783 663 783 z "},"":{"ha":1306,"x_min":31,"x_max":1272,"o":"m 769 1032 q 883 1056 818 1047 q 1015 1064 949 1064 q 1138 1054 1081 1064 q 1231 1024 1196 1044 q 1265 870 1258 964 q 1272 663 1272 776 q 1244 317 1272 458 q 1141 88 1215 176 q 938 -40 1067 0 q 607 -79 808 -79 q 417 -62 506 -79 q 259 -5 329 -46 q 138 106 189 36 q 60 279 88 175 q 41 391 47 331 q 33 514 35 451 q 31 637 31 576 q 32 750 32 697 q 38 941 32 858 q 78 1081 43 1024 q 179 1103 118 1096 q 306 1108 240 1110 q 435 1099 372 1107 q 542 1074 499 1090 q 551 1003 551 1050 q 551 889 551 956 q 551 783 551 833 q 550 683 550 732 q 549 584 550 635 q 549 478 549 533 q 554 425 549 451 q 573 377 560 399 q 608 342 586 356 q 661 328 629 328 q 722 344 699 328 q 758 388 744 361 q 775 448 771 414 q 779 517 779 482 q 771 707 779 607 q 763 896 763 807 q 760 965 763 935 q 769 1032 758 994 m 431 1356 q 474 1428 442 1393 q 547 1486 506 1463 q 568 1489 561 1489 q 646 1456 607 1489 q 673 1428 660 1444 q 700 1392 686 1411 q 744 1343 721 1364 q 794 1301 767 1322 q 835 1269 813 1288 q 875 1229 857 1251 q 849 1168 865 1197 q 801 1122 833 1139 q 717 1143 761 1126 q 633 1181 672 1160 q 560 1226 593 1203 q 510 1263 528 1249 q 462 1306 485 1283 q 431 1356 439 1328 z "},"":{"ha":1306,"x_min":31,"x_max":1272,"o":"m 769 1032 q 883 1056 818 1047 q 1015 1064 949 1064 q 1138 1054 1081 1064 q 1231 1024 1196 1044 q 1265 870 1258 964 q 1272 663 1272 776 q 1244 317 1272 458 q 1141 88 1215 176 q 938 -40 1067 0 q 607 -79 808 -79 q 417 -62 506 -79 q 259 -5 329 -46 q 138 106 189 36 q 60 279 88 175 q 41 391 47 331 q 33 514 35 451 q 31 637 31 576 q 32 750 32 697 q 38 941 32 858 q 78 1081 43 1024 q 179 1103 118 1096 q 306 1108 240 1110 q 435 1099 372 1107 q 542 1074 499 1090 q 551 1003 551 1050 q 551 889 551 956 q 551 783 551 833 q 550 683 550 732 q 549 584 550 635 q 549 478 549 533 q 554 425 549 451 q 573 377 560 399 q 608 342 586 356 q 661 328 629 328 q 722 344 699 328 q 758 388 744 361 q 775 448 771 414 q 779 517 779 482 q 771 707 779 607 q 763 896 763 807 q 760 965 763 935 q 769 1032 758 994 m 701 1485 q 801 1446 754 1475 q 876 1371 849 1417 q 847 1313 874 1339 q 792 1263 821 1286 q 740 1226 774 1249 q 664 1181 706 1203 q 576 1142 622 1160 q 489 1122 531 1125 q 442 1180 451 1150 q 428 1243 432 1210 q 464 1275 444 1260 q 499 1301 483 1290 q 551 1343 528 1322 q 594 1392 574 1364 q 624 1428 610 1411 q 650 1456 638 1444 q 701 1485 678 1476 z "},"":{"ha":1306,"x_min":31,"x_max":1272,"o":"m 769 1032 q 883 1056 818 1047 q 1015 1064 949 1064 q 1138 1054 1081 1064 q 1231 1024 1196 1044 q 1265 870 1258 964 q 1272 663 1272 776 q 1244 317 1272 458 q 1141 88 1215 176 q 938 -40 1067 0 q 607 -79 808 -79 q 417 -62 506 -79 q 259 -5 329 -46 q 138 106 189 36 q 60 279 88 175 q 41 391 47 331 q 33 514 35 451 q 31 637 31 576 q 32 750 32 697 q 38 941 32 858 q 78 1081 43 1024 q 179 1103 118 1096 q 306 1108 240 1110 q 435 1099 372 1107 q 542 1074 499 1090 q 551 1003 551 1050 q 551 889 551 956 q 551 783 551 833 q 550 683 550 732 q 549 584 550 635 q 549 478 549 533 q 554 425 549 451 q 573 377 560 399 q 608 342 586 356 q 661 328 629 328 q 722 344 699 328 q 758 388 744 361 q 775 448 771 414 q 779 517 779 482 q 771 707 779 607 q 763 896 763 807 q 760 965 763 935 q 769 1032 758 994 m 997 1214 q 910 1151 961 1178 q 811 1122 858 1125 q 776 1156 793 1138 q 743 1194 758 1175 q 701 1238 721 1219 q 658 1257 682 1257 q 623 1242 639 1257 q 588 1208 607 1228 q 535 1153 564 1182 q 472 1110 506 1125 q 376 1131 422 1111 q 307 1181 331 1150 l 307 1186 q 324 1237 307 1208 q 371 1295 342 1265 q 437 1354 400 1325 q 511 1406 474 1383 q 585 1443 549 1429 q 650 1457 622 1457 q 706 1445 674 1457 q 774 1414 739 1433 q 845 1369 810 1394 q 911 1317 881 1344 q 965 1263 942 1290 q 997 1214 988 1236 z "},"":{"ha":1306,"x_min":31,"x_max":1272,"o":"m 769 1032 q 883 1056 818 1047 q 1015 1064 949 1064 q 1138 1054 1081 1064 q 1231 1024 1196 1044 q 1265 870 1258 964 q 1272 663 1272 776 q 1244 317 1272 458 q 1141 88 1215 176 q 938 -40 1067 0 q 607 -79 808 -79 q 417 -62 506 -79 q 259 -5 329 -46 q 138 106 189 36 q 60 279 88 175 q 41 391 47 331 q 33 514 35 451 q 31 637 31 576 q 32 750 32 697 q 38 941 32 858 q 78 1081 43 1024 q 179 1103 118 1096 q 306 1108 240 1110 q 435 1099 372 1107 q 542 1074 499 1090 q 551 1003 551 1050 q 551 889 551 956 q 551 783 551 833 q 550 683 550 732 q 549 584 550 635 q 549 478 549 533 q 554 425 549 451 q 573 377 560 399 q 608 342 586 356 q 661 328 629 328 q 722 344 699 328 q 758 388 744 361 q 775 448 771 414 q 779 517 779 482 q 771 707 779 607 q 763 896 763 807 q 760 965 763 935 q 769 1032 758 994 m 829 1442 q 908 1427 878 1442 q 956 1390 939 1413 q 981 1340 974 1368 q 988 1285 988 1313 q 952 1174 988 1215 q 831 1132 917 1132 q 759 1144 789 1132 q 711 1177 729 1157 q 685 1222 693 1197 q 676 1272 676 1247 q 683 1331 676 1301 q 706 1386 689 1361 q 752 1426 722 1411 q 829 1442 782 1442 m 472 1425 q 547 1410 517 1425 q 595 1374 576 1396 q 622 1324 614 1351 q 631 1268 631 1296 q 592 1157 631 1199 q 460 1115 553 1115 q 386 1128 414 1115 q 344 1160 358 1140 q 324 1206 329 1181 q 319 1256 319 1231 q 326 1315 319 1285 q 351 1369 333 1344 q 398 1410 368 1394 q 472 1425 428 1425 z "},"":{"ha":971,"x_min":-3,"x_max":972,"o":"m 658 1121 q 744 1115 694 1125 q 842 1085 794 1104 q 926 1040 890 1067 q 971 986 963 1014 q 972 982 971 983 q 971 978 972 981 q 941 890 963 943 q 892 778 919 836 q 835 663 865 719 q 779 568 804 607 q 716 469 743 511 q 689 403 689 426 q 699 199 689 299 q 711 0 710 99 q 616 -30 669 -19 q 508 -42 563 -40 q 404 -35 454 -43 q 321 -11 354 -28 q 310 103 311 51 q 313 199 310 154 q 319 283 315 243 q 324 367 324 324 q 294 433 324 396 q 208 535 264 471 q 130 652 168 582 q 63 794 92 722 q 15 932 33 867 q -3 1033 -3 997 q 54 1064 17 1049 q 136 1090 92 1079 q 227 1106 181 1101 q 311 1103 274 1110 q 340 1051 326 1082 q 367 983 353 1019 q 398 907 382 946 q 432 835 414 868 q 470 778 449 804 q 503 753 492 753 q 520 767 511 753 q 538 803 529 782 q 555 848 546 824 q 572 893 564 872 q 592 948 583 915 q 611 1014 601 981 q 632 1076 621 1047 q 658 1121 643 1106 m 661 1442 q 740 1427 710 1442 q 788 1390 771 1413 q 813 1340 806 1368 q 819 1285 819 1313 q 784 1174 819 1215 q 663 1132 749 1132 q 591 1144 621 1132 q 543 1177 561 1157 q 517 1222 525 1197 q 508 1272 508 1247 q 515 1331 508 1301 q 538 1386 521 1361 q 584 1426 554 1411 q 661 1442 614 1442 m 304 1425 q 378 1410 349 1425 q 427 1374 408 1396 q 454 1324 446 1351 q 463 1268 463 1296 q 424 1157 463 1199 q 292 1115 385 1115 q 218 1128 246 1115 q 176 1160 190 1140 q 156 1206 161 1181 q 151 1256 151 1231 q 158 1315 151 1285 q 183 1369 165 1344 q 230 1410 200 1394 q 304 1425 260 1425 z "},"":{"ha":1079,"x_min":22,"x_max":1038,"o":"m 414 -74 q 324 -90 372 -86 q 229 -92 276 -94 q 139 -83 182 -90 q 64 -65 96 -76 q 47 -7 54 -44 q 35 76 40 31 q 28 173 31 122 q 24 272 25 224 q 22 359 22 319 q 22 424 22 399 q 22 516 22 461 q 24 633 22 571 q 33 762 26 696 q 51 887 39 828 q 82 993 63 946 q 129 1065 101 1040 q 201 1078 163 1075 q 281 1078 240 1081 q 359 1070 321 1076 q 428 1053 397 1064 q 449 1011 442 1033 q 457 969 457 989 q 485 917 457 932 q 553 899 513 901 q 639 901 593 897 q 721 906 685 906 q 851 889 793 906 q 951 833 910 872 q 1015 729 993 793 q 1038 571 1038 665 q 1030 392 1038 476 q 994 246 1022 308 q 913 147 967 183 q 767 110 858 110 q 713 115 746 110 q 641 125 679 119 q 565 133 603 131 q 495 133 526 136 q 444 118 464 131 q 425 79 425 106 q 425 1 425 35 q 414 -74 425 -33 m 450 514 q 453 466 450 488 q 469 430 457 444 q 503 407 481 415 q 565 399 526 399 q 628 405 604 399 q 667 424 653 411 q 686 459 681 438 q 692 510 692 481 q 667 579 692 553 q 588 606 643 606 q 535 601 560 606 q 491 585 510 596 q 461 558 472 575 q 450 514 450 540 z "},"":{"ha":1014,"x_min":38,"x_max":975,"o":"m 508 -65 q 467 28 474 -25 q 472 135 460 81 q 519 143 488 136 q 583 161 551 150 q 639 188 615 172 q 663 219 663 203 q 640 265 663 247 q 591 301 618 283 q 542 342 564 319 q 519 404 519 365 q 538 493 519 458 q 579 555 557 528 q 620 607 601 582 q 639 667 639 632 q 628 722 639 701 q 597 754 617 743 q 552 769 578 765 q 497 772 526 772 q 455 766 479 772 q 408 748 431 760 q 371 719 386 736 q 356 681 356 703 q 358 522 356 601 q 367 363 361 442 q 370 313 368 342 q 376 253 372 283 q 383 194 379 222 q 393 144 388 165 q 408 82 401 113 q 415 18 415 51 q 408 -25 415 -1 q 299 -62 358 -49 q 185 -76 240 -76 q 94 -64 136 -76 l 78 -47 q 60 -9 68 -36 q 49 53 53 18 q 42 128 44 89 q 39 205 40 168 q 38 272 38 242 q 38 318 38 301 q 44 536 38 428 q 50 754 50 644 q 80 935 50 868 q 170 1035 110 1001 q 323 1079 231 1069 q 540 1089 415 1089 q 742 1060 665 1089 q 862 978 819 1031 q 919 851 904 925 q 933 689 933 778 q 918 608 933 646 q 884 538 903 569 q 850 479 865 506 q 835 432 835 453 q 857 375 835 401 q 905 321 879 349 q 953 260 931 293 q 975 186 975 228 q 949 76 975 125 q 882 -7 924 28 q 787 -60 840 -42 q 676 -78 733 -78 q 643 -77 667 -78 q 593 -75 619 -76 q 543 -72 567 -74 q 508 -65 519 -69 z "},"":{"ha":1264,"x_min":-3,"x_max":1261,"o":"m 1260 21 q 1197 -12 1246 1 q 1087 -33 1149 -26 q 962 -39 1025 -40 q 856 -26 899 -37 q 821 58 840 15 q 790 139 801 100 q 773 175 785 163 q 742 194 761 188 q 695 201 724 200 q 626 203 667 203 q 581 203 607 203 q 529 203 554 204 q 483 198 504 201 q 456 186 463 194 q 443 170 449 178 q 432 151 438 163 q 420 124 426 140 q 404 79 414 107 q 390 35 396 54 q 381 1 385 15 q 372 -26 376 -14 q 361 -50 368 -39 q 265 -49 318 -54 q 161 -34 213 -44 q 66 -8 110 -24 q -3 25 22 7 q 1 63 -3 42 q 10 108 6 85 q 21 152 15 131 q 31 190 26 174 q 81 397 51 282 q 151 626 111 511 q 238 842 190 740 q 344 1006 286 943 q 397 1040 364 1026 q 471 1063 429 1054 q 558 1076 513 1072 q 650 1081 604 1081 q 724 1075 682 1081 q 809 1057 767 1069 q 890 1023 851 1044 q 950 968 928 1001 q 1013 858 982 922 q 1072 717 1043 793 q 1126 556 1100 640 q 1176 386 1153 471 q 1217 219 1199 301 q 1251 67 1236 138 q 1258 44 1254 56 q 1260 21 1261 32 m 522 481 q 538 440 515 446 q 585 434 561 433 q 633 435 610 435 q 695 438 671 435 q 732 448 719 442 q 748 462 744 454 q 749 479 751 469 q 736 541 744 497 q 714 631 728 585 q 680 711 700 676 q 632 746 660 746 q 593 713 611 746 q 561 636 575 681 q 537 548 547 592 q 522 481 526 504 m 410 1356 q 453 1428 421 1393 q 526 1486 485 1463 q 547 1489 540 1489 q 625 1456 586 1489 q 652 1428 639 1444 q 679 1392 665 1411 q 723 1343 700 1364 q 774 1301 746 1322 q 814 1269 792 1288 q 854 1229 836 1251 q 828 1168 844 1197 q 781 1122 813 1139 q 696 1143 740 1126 q 612 1181 651 1160 q 540 1226 572 1203 q 489 1263 507 1249 q 441 1306 464 1283 q 410 1356 418 1328 z "},"":{"ha":1264,"x_min":-3,"x_max":1261,"o":"m 1260 21 q 1197 -12 1246 1 q 1087 -33 1149 -26 q 962 -39 1025 -40 q 856 -26 899 -37 q 821 58 840 15 q 790 139 801 100 q 773 175 785 163 q 742 194 761 188 q 695 201 724 200 q 626 203 667 203 q 581 203 607 203 q 529 203 554 204 q 483 198 504 201 q 456 186 463 194 q 443 170 449 178 q 432 151 438 163 q 420 124 426 140 q 404 79 414 107 q 390 35 396 54 q 381 1 385 15 q 372 -26 376 -14 q 361 -50 368 -39 q 265 -49 318 -54 q 161 -34 213 -44 q 66 -8 110 -24 q -3 25 22 7 q 1 63 -3 42 q 10 108 6 85 q 21 152 15 131 q 31 190 26 174 q 81 397 51 282 q 151 626 111 511 q 238 842 190 740 q 344 1006 286 943 q 397 1040 364 1026 q 471 1063 429 1054 q 558 1076 513 1072 q 650 1081 604 1081 q 724 1075 682 1081 q 809 1057 767 1069 q 890 1023 851 1044 q 950 968 928 1001 q 1013 858 982 922 q 1072 717 1043 793 q 1126 556 1100 640 q 1176 386 1153 471 q 1217 219 1199 301 q 1251 67 1236 138 q 1258 44 1254 56 q 1260 21 1261 32 m 522 481 q 538 440 515 446 q 585 434 561 433 q 633 435 610 435 q 695 438 671 435 q 732 448 719 442 q 748 462 744 454 q 749 479 751 469 q 736 541 744 497 q 714 631 728 585 q 680 711 700 676 q 632 746 660 746 q 593 713 611 746 q 561 636 575 681 q 537 548 547 592 q 522 481 526 504 m 681 1485 q 781 1446 733 1475 q 856 1371 828 1417 q 826 1313 853 1339 q 771 1263 800 1286 q 719 1226 753 1249 q 643 1181 685 1203 q 556 1142 601 1160 q 468 1122 510 1125 q 421 1180 431 1150 q 407 1243 411 1210 q 443 1275 424 1260 q 478 1301 463 1290 q 530 1343 507 1322 q 574 1392 553 1364 q 603 1428 589 1411 q 629 1456 617 1444 q 681 1485 657 1476 z "},"":{"ha":1264,"x_min":-3,"x_max":1261,"o":"m 1260 21 q 1197 -12 1246 1 q 1087 -33 1149 -26 q 962 -39 1025 -40 q 856 -26 899 -37 q 821 58 840 15 q 790 139 801 100 q 773 175 785 163 q 742 194 761 188 q 695 201 724 200 q 626 203 667 203 q 581 203 607 203 q 529 203 554 204 q 483 198 504 201 q 456 186 463 194 q 443 170 449 178 q 432 151 438 163 q 420 124 426 140 q 404 79 414 107 q 390 35 396 54 q 381 1 385 15 q 372 -26 376 -14 q 361 -50 368 -39 q 265 -49 318 -54 q 161 -34 213 -44 q 66 -8 110 -24 q -3 25 22 7 q 1 63 -3 42 q 10 108 6 85 q 21 152 15 131 q 31 190 26 174 q 81 397 51 282 q 151 626 111 511 q 238 842 190 740 q 344 1006 286 943 q 397 1040 364 1026 q 471 1063 429 1054 q 558 1076 513 1072 q 650 1081 604 1081 q 724 1075 682 1081 q 809 1057 767 1069 q 890 1023 851 1044 q 950 968 928 1001 q 1013 858 982 922 q 1072 717 1043 793 q 1126 556 1100 640 q 1176 386 1153 471 q 1217 219 1199 301 q 1251 67 1236 138 q 1258 44 1254 56 q 1260 21 1261 32 m 522 481 q 538 440 515 446 q 585 434 561 433 q 633 435 610 435 q 695 438 671 435 q 732 448 719 442 q 748 462 744 454 q 749 479 751 469 q 736 541 744 497 q 714 631 728 585 q 680 711 700 676 q 632 746 660 746 q 593 713 611 746 q 561 636 575 681 q 537 548 547 592 q 522 481 526 504 m 976 1214 q 889 1151 940 1178 q 790 1122 838 1125 q 755 1156 772 1138 q 722 1194 738 1175 q 681 1238 700 1219 q 638 1257 661 1257 q 602 1242 618 1257 q 567 1208 586 1228 q 514 1153 543 1182 q 451 1110 485 1125 q 356 1131 401 1111 q 286 1181 310 1150 l 286 1186 q 303 1237 286 1208 q 350 1295 321 1265 q 416 1354 379 1325 q 490 1406 453 1383 q 565 1443 528 1429 q 629 1457 601 1457 q 685 1445 653 1457 q 753 1414 718 1433 q 824 1369 789 1394 q 890 1317 860 1344 q 944 1263 921 1290 q 976 1214 967 1236 z "},"":{"ha":1264,"x_min":-3,"x_max":1261,"o":"m 1260 21 q 1197 -12 1246 1 q 1087 -33 1149 -26 q 962 -39 1025 -40 q 856 -26 899 -37 q 821 58 840 15 q 790 139 801 100 q 773 175 785 163 q 742 194 761 188 q 695 201 724 200 q 626 203 667 203 q 581 203 607 203 q 529 203 554 204 q 483 198 504 201 q 456 186 463 194 q 443 170 449 178 q 432 151 438 163 q 420 124 426 140 q 404 79 414 107 q 390 35 396 54 q 381 1 385 15 q 372 -26 376 -14 q 361 -50 368 -39 q 265 -49 318 -54 q 161 -34 213 -44 q 66 -8 110 -24 q -3 25 22 7 q 1 63 -3 42 q 10 108 6 85 q 21 152 15 131 q 31 190 26 174 q 81 397 51 282 q 151 626 111 511 q 238 842 190 740 q 344 1006 286 943 q 397 1040 364 1026 q 471 1063 429 1054 q 558 1076 513 1072 q 650 1081 604 1081 q 724 1075 682 1081 q 809 1057 767 1069 q 890 1023 851 1044 q 950 968 928 1001 q 1013 858 982 922 q 1072 717 1043 793 q 1126 556 1100 640 q 1176 386 1153 471 q 1217 219 1199 301 q 1251 67 1236 138 q 1258 44 1254 56 q 1260 21 1261 32 m 522 481 q 538 440 515 446 q 585 434 561 433 q 633 435 610 435 q 695 438 671 435 q 732 448 719 442 q 748 462 744 454 q 749 479 751 469 q 736 541 744 497 q 714 631 728 585 q 680 711 700 676 q 632 746 660 746 q 593 713 611 746 q 561 636 575 681 q 537 548 547 592 q 522 481 526 504 m 390 1086 q 338 1110 361 1094 q 296 1144 315 1126 q 262 1182 276 1163 q 235 1218 247 1201 q 259 1312 239 1267 q 313 1392 279 1357 q 390 1449 346 1428 q 486 1471 435 1471 q 581 1452 544 1471 q 645 1410 618 1433 q 693 1369 672 1388 q 740 1350 714 1350 q 781 1361 761 1350 q 817 1389 800 1372 q 849 1424 835 1406 q 875 1454 864 1442 q 923 1434 899 1447 q 968 1405 947 1421 q 1006 1371 989 1389 q 1031 1335 1022 1353 q 1006 1242 1028 1285 q 951 1167 985 1199 q 872 1116 917 1135 q 776 1097 826 1097 q 684 1113 724 1097 q 613 1149 644 1129 q 557 1184 582 1168 q 508 1200 532 1200 q 471 1191 486 1200 q 442 1167 456 1182 q 417 1131 429 1151 q 390 1086 406 1110 z "},"":{"ha":1264,"x_min":-3,"x_max":1261,"o":"m 1260 21 q 1197 -12 1246 1 q 1087 -33 1149 -26 q 962 -39 1025 -40 q 856 -26 899 -37 q 821 58 840 15 q 790 139 801 100 q 773 175 785 163 q 742 194 761 188 q 695 201 724 200 q 626 203 667 203 q 581 203 607 203 q 529 203 554 204 q 483 198 504 201 q 456 186 463 194 q 443 170 449 178 q 432 151 438 163 q 420 124 426 140 q 404 79 414 107 q 390 35 396 54 q 381 1 385 15 q 372 -26 376 -14 q 361 -50 368 -39 q 265 -49 318 -54 q 161 -34 213 -44 q 66 -8 110 -24 q -3 25 22 7 q 1 63 -3 42 q 10 108 6 85 q 21 152 15 131 q 31 190 26 174 q 81 397 51 282 q 151 626 111 511 q 238 842 190 740 q 344 1006 286 943 q 397 1040 364 1026 q 471 1063 429 1054 q 558 1076 513 1072 q 650 1081 604 1081 q 724 1075 682 1081 q 809 1057 767 1069 q 890 1023 851 1044 q 950 968 928 1001 q 1013 858 982 922 q 1072 717 1043 793 q 1126 556 1100 640 q 1176 386 1153 471 q 1217 219 1199 301 q 1251 67 1236 138 q 1258 44 1254 56 q 1260 21 1261 32 m 522 481 q 538 440 515 446 q 585 434 561 433 q 633 435 610 435 q 695 438 671 435 q 732 448 719 442 q 748 462 744 454 q 749 479 751 469 q 736 541 744 497 q 714 631 728 585 q 680 711 700 676 q 632 746 660 746 q 593 713 611 746 q 561 636 575 681 q 537 548 547 592 q 522 481 526 504 m 808 1442 q 888 1427 857 1442 q 935 1390 918 1413 q 960 1340 953 1368 q 967 1285 967 1313 q 931 1174 967 1215 q 810 1132 896 1132 q 738 1144 768 1132 q 690 1177 708 1157 q 664 1222 672 1197 q 656 1272 656 1247 q 662 1331 656 1301 q 685 1386 668 1361 q 731 1426 701 1411 q 808 1442 761 1442 m 451 1425 q 526 1410 496 1425 q 574 1374 556 1396 q 601 1324 593 1351 q 610 1268 610 1296 q 571 1157 610 1199 q 439 1115 532 1115 q 365 1128 393 1115 q 323 1160 338 1140 q 303 1206 308 1181 q 299 1256 299 1231 q 306 1315 299 1285 q 330 1369 313 1344 q 377 1410 347 1394 q 451 1425 407 1425 z "},"":{"ha":1264,"x_min":-3,"x_max":1261,"o":"m 1260 21 q 1197 -12 1246 1 q 1087 -33 1149 -26 q 962 -39 1025 -40 q 856 -26 899 -37 q 821 58 840 15 q 790 139 801 100 q 773 175 785 163 q 742 194 761 188 q 695 201 724 200 q 626 203 667 203 q 581 203 607 203 q 529 203 554 204 q 483 198 504 201 q 456 186 463 194 q 443 170 449 178 q 432 151 438 163 q 420 124 426 140 q 404 79 414 107 q 390 35 396 54 q 381 1 385 15 q 372 -26 376 -14 q 361 -50 368 -39 q 265 -49 318 -54 q 161 -34 213 -44 q 66 -8 110 -24 q -3 25 22 7 q 1 63 -3 42 q 10 108 6 85 q 21 152 15 131 q 31 190 26 174 q 81 397 51 282 q 151 626 111 511 q 238 842 190 740 q 344 1006 286 943 q 397 1040 364 1026 q 471 1063 429 1054 q 558 1076 513 1072 q 650 1081 604 1081 q 724 1075 682 1081 q 809 1057 767 1069 q 890 1023 851 1044 q 950 968 928 1001 q 1013 858 982 922 q 1072 717 1043 793 q 1126 556 1100 640 q 1176 386 1153 471 q 1217 219 1199 301 q 1251 67 1236 138 q 1258 44 1254 56 q 1260 21 1261 32 m 522 481 q 538 440 515 446 q 585 434 561 433 q 633 435 610 435 q 695 438 671 435 q 732 448 719 442 q 748 462 744 454 q 749 479 751 469 q 736 541 744 497 q 714 631 728 585 q 680 711 700 676 q 632 746 660 746 q 593 713 611 746 q 561 636 575 681 q 537 548 547 592 q 522 481 526 504 m 633 1121 q 505 1129 560 1121 q 414 1159 450 1138 q 360 1218 378 1181 q 342 1313 342 1256 q 350 1395 342 1357 q 385 1460 358 1433 q 461 1503 411 1488 q 594 1518 511 1518 q 740 1510 678 1518 q 842 1478 801 1501 q 903 1415 883 1456 q 924 1313 924 1375 q 906 1212 924 1250 q 851 1153 888 1174 q 761 1127 815 1133 q 633 1121 707 1121 m 631 1350 q 604 1349 618 1350 q 578 1346 590 1349 q 558 1337 565 1343 q 550 1319 550 1331 q 577 1287 550 1293 q 633 1281 604 1281 q 665 1281 646 1281 q 701 1285 683 1282 q 732 1295 719 1289 q 744 1313 744 1301 q 733 1334 744 1326 q 704 1345 721 1342 q 669 1349 688 1349 q 638 1350 650 1350 l 631 1350 z "},"":{"ha":1732,"x_min":-3,"x_max":1696,"o":"m 1260 21 q 1197 -12 1246 1 q 1087 -33 1149 -26 q 962 -39 1025 -40 q 856 -26 899 -37 q 821 58 840 15 q 790 139 801 100 q 773 175 785 163 q 742 194 761 188 q 695 201 724 200 q 626 203 667 203 q 581 203 607 203 q 529 203 554 204 q 483 198 504 201 q 456 186 463 194 q 443 170 449 178 q 432 151 438 163 q 420 124 426 140 q 404 79 414 107 q 390 35 396 54 q 381 1 385 15 q 372 -26 376 -14 q 361 -50 368 -39 q 265 -49 318 -54 q 161 -34 213 -44 q 66 -8 110 -24 q -3 25 22 7 q 1 63 -3 42 q 10 108 6 85 q 21 152 15 131 q 31 190 26 174 q 81 397 51 282 q 151 626 111 511 q 238 842 190 740 q 344 1006 286 943 q 397 1040 364 1026 q 471 1063 429 1054 q 558 1076 513 1072 q 650 1081 604 1081 q 724 1075 682 1081 q 809 1057 767 1069 q 890 1023 851 1044 q 950 968 928 1001 q 1013 858 982 922 q 1072 717 1043 793 q 1126 556 1100 640 q 1176 386 1153 471 q 1217 219 1199 301 q 1251 67 1236 138 q 1258 44 1254 56 q 1260 21 1261 32 m 522 481 q 538 440 515 446 q 585 434 561 433 q 633 435 610 435 q 695 438 671 435 q 732 448 719 442 q 748 462 744 454 q 749 479 751 469 q 736 541 744 497 q 714 631 728 585 q 680 711 700 676 q 632 746 660 746 q 593 713 611 746 q 561 636 575 681 q 537 548 547 592 q 522 481 526 504 m 1656 271 q 1680 205 1671 247 q 1692 115 1689 163 q 1692 22 1694 68 q 1678 -54 1689 -24 q 1588 -77 1639 -69 q 1483 -88 1538 -85 q 1376 -92 1429 -92 q 1278 -93 1324 -93 q 1037 -87 1124 -93 q 908 -59 950 -82 q 857 11 867 -36 q 847 143 847 58 q 847 278 847 208 q 844 413 846 349 q 840 668 840 540 q 840 681 840 674 q 839 697 839 688 q 838 731 838 713 q 838 769 838 750 q 837 853 838 807 q 841 942 836 900 q 859 1018 846 985 q 899 1063 872 1051 q 994 1089 942 1081 q 1100 1100 1046 1097 q 1206 1102 1154 1103 q 1301 1101 1258 1101 q 1381 1099 1338 1101 q 1471 1090 1425 1096 q 1560 1074 1517 1083 q 1639 1051 1604 1065 q 1656 992 1651 1029 q 1660 913 1661 954 q 1653 830 1658 871 q 1642 757 1649 789 q 1602 749 1624 751 q 1549 747 1581 747 q 1474 748 1518 747 q 1368 749 1431 749 l 1299 749 q 1227 748 1254 749 q 1185 742 1200 747 q 1165 725 1169 736 q 1160 694 1160 714 q 1163 667 1160 681 q 1174 643 1165 654 q 1200 625 1183 632 q 1244 618 1217 618 q 1307 619 1269 618 q 1368 624 1344 621 q 1415 628 1392 626 q 1461 629 1438 629 q 1501 625 1483 629 q 1514 561 1510 599 q 1518 486 1518 524 q 1515 416 1518 449 q 1508 368 1513 383 q 1483 361 1499 365 q 1458 357 1468 357 q 1422 358 1440 357 q 1385 363 1404 360 q 1333 367 1365 365 q 1281 368 1301 368 q 1209 351 1231 368 q 1188 311 1188 333 q 1208 263 1188 274 q 1292 251 1229 251 q 1332 252 1310 251 q 1377 255 1354 253 q 1422 259 1400 257 q 1461 263 1444 261 q 1545 270 1497 267 q 1629 274 1593 274 q 1642 273 1636 274 q 1656 271 1649 272 z "},"":{"ha":1008,"x_min":15,"x_max":989,"o":"m 958 375 q 978 309 971 357 q 987 203 985 261 q 985 85 989 144 q 968 -17 981 25 q 901 -43 942 -29 q 810 -68 861 -57 q 703 -87 760 -79 q 586 -94 646 -94 q 354 -62 460 -94 q 174 41 249 -31 q 57 228 99 113 q 15 511 15 344 q 58 794 15 682 q 180 974 101 907 q 367 1067 258 1040 q 610 1093 476 1093 q 802 1082 718 1093 q 939 1053 886 1071 q 953 1010 947 1040 q 964 943 960 981 q 971 863 968 906 q 973 780 974 819 q 969 708 972 740 q 961 658 967 676 q 894 697 925 675 q 830 739 864 719 q 751 772 796 758 q 644 785 707 785 q 553 768 599 785 q 473 719 508 751 q 416 638 438 686 q 394 525 394 589 q 453 335 394 396 q 613 275 513 275 q 707 288 660 275 q 799 317 754 300 q 885 350 844 333 q 958 375 925 367 m 317 -331 q 299 -240 300 -286 q 310 -149 297 -194 q 325 -147 317 -147 q 342 -144 333 -146 q 378 -141 361 -143 q 409 -134 396 -139 q 431 -121 422 -129 q 439 -99 439 -112 q 429 -77 439 -87 q 407 -54 419 -67 q 385 -30 396 -43 q 374 7 374 -17 q 394 69 374 40 q 444 115 414 97 q 526 112 485 122 q 599 78 567 101 q 590 51 597 63 q 584 35 588 43 q 581 19 581 26 q 597 -10 581 1 q 636 -32 613 -21 q 662 -47 649 -39 q 686 -68 675 -56 q 704 -100 697 -81 q 711 -149 711 -119 q 680 -244 711 -206 q 601 -306 649 -282 q 495 -339 553 -329 q 385 -349 438 -349 q 317 -331 346 -349 z "},"":{"ha":940,"x_min":44,"x_max":903,"o":"m 864 271 q 888 205 879 247 q 900 115 897 163 q 900 22 903 68 q 886 -54 897 -24 q 797 -77 847 -69 q 692 -88 746 -85 q 585 -92 638 -92 q 486 -93 532 -93 q 245 -87 332 -93 q 117 -59 158 -82 q 65 11 75 -36 q 56 143 56 58 q 55 278 56 208 q 53 413 54 349 q 49 668 49 540 q 48 681 49 674 q 47 697 47 688 q 46 731 46 713 q 46 769 46 750 q 45 853 46 807 q 49 942 44 900 q 67 1018 54 985 q 107 1063 81 1051 q 202 1089 150 1081 q 308 1100 254 1097 q 415 1102 363 1103 q 510 1101 467 1101 q 590 1099 546 1101 q 679 1090 633 1096 q 769 1074 725 1083 q 847 1051 813 1065 q 865 992 860 1029 q 868 913 869 954 q 862 830 867 871 q 850 757 857 789 q 810 749 832 751 q 758 747 789 747 q 683 748 726 747 q 576 749 639 749 l 507 749 q 435 748 463 749 q 393 742 408 747 q 373 725 378 736 q 368 694 368 714 q 371 667 368 681 q 383 643 374 654 q 408 625 392 632 q 453 618 425 618 q 515 619 478 618 q 576 624 553 621 q 623 628 600 626 q 669 629 646 629 q 710 625 692 629 q 722 561 718 599 q 726 486 726 524 q 724 416 726 449 q 717 368 721 383 q 692 361 707 365 q 667 357 676 357 q 631 358 649 357 q 593 363 613 360 q 542 367 574 365 q 489 368 510 368 q 417 351 439 368 q 396 311 396 333 q 417 263 396 274 q 500 251 438 251 q 540 252 518 251 q 585 255 563 253 q 631 259 608 257 q 669 263 653 261 q 753 270 706 267 q 838 274 801 274 q 851 273 844 274 q 864 271 857 272 m 249 1356 q 292 1428 260 1393 q 365 1486 324 1463 q 386 1489 379 1489 q 464 1456 425 1489 q 491 1428 478 1444 q 518 1392 504 1411 q 562 1343 539 1364 q 613 1301 585 1322 q 653 1269 631 1288 q 693 1229 675 1251 q 667 1168 683 1197 q 619 1122 651 1139 q 535 1143 579 1126 q 451 1181 490 1160 q 378 1226 411 1203 q 328 1263 346 1249 q 280 1306 303 1283 q 249 1356 257 1328 z "},"":{"ha":940,"x_min":44,"x_max":903,"o":"m 864 271 q 888 205 879 247 q 900 115 897 163 q 900 22 903 68 q 886 -54 897 -24 q 797 -77 847 -69 q 692 -88 746 -85 q 585 -92 638 -92 q 486 -93 532 -93 q 245 -87 332 -93 q 117 -59 158 -82 q 65 11 75 -36 q 56 143 56 58 q 55 278 56 208 q 53 413 54 349 q 49 668 49 540 q 48 681 49 674 q 47 697 47 688 q 46 731 46 713 q 46 769 46 750 q 45 853 46 807 q 49 942 44 900 q 67 1018 54 985 q 107 1063 81 1051 q 202 1089 150 1081 q 308 1100 254 1097 q 415 1102 363 1103 q 510 1101 467 1101 q 590 1099 546 1101 q 679 1090 633 1096 q 769 1074 725 1083 q 847 1051 813 1065 q 865 992 860 1029 q 868 913 869 954 q 862 830 867 871 q 850 757 857 789 q 810 749 832 751 q 758 747 789 747 q 683 748 726 747 q 576 749 639 749 l 507 749 q 435 748 463 749 q 393 742 408 747 q 373 725 378 736 q 368 694 368 714 q 371 667 368 681 q 383 643 374 654 q 408 625 392 632 q 453 618 425 618 q 515 619 478 618 q 576 624 553 621 q 623 628 600 626 q 669 629 646 629 q 710 625 692 629 q 722 561 718 599 q 726 486 726 524 q 724 416 726 449 q 717 368 721 383 q 692 361 707 365 q 667 357 676 357 q 631 358 649 357 q 593 363 613 360 q 542 367 574 365 q 489 368 510 368 q 417 351 439 368 q 396 311 396 333 q 417 263 396 274 q 500 251 438 251 q 540 252 518 251 q 585 255 563 253 q 631 259 608 257 q 669 263 653 261 q 753 270 706 267 q 838 274 801 274 q 851 273 844 274 q 864 271 857 272 m 519 1485 q 619 1446 572 1475 q 694 1371 667 1417 q 665 1313 692 1339 q 610 1263 639 1286 q 558 1226 592 1249 q 482 1181 524 1203 q 394 1142 440 1160 q 307 1122 349 1125 q 260 1180 269 1150 q 246 1243 250 1210 q 282 1275 263 1260 q 317 1301 301 1290 q 369 1343 346 1322 q 413 1392 392 1364 q 442 1428 428 1411 q 468 1456 456 1444 q 519 1485 496 1476 z "},"":{"ha":940,"x_min":44,"x_max":903,"o":"m 864 271 q 888 205 879 247 q 900 115 897 163 q 900 22 903 68 q 886 -54 897 -24 q 797 -77 847 -69 q 692 -88 746 -85 q 585 -92 638 -92 q 486 -93 532 -93 q 245 -87 332 -93 q 117 -59 158 -82 q 65 11 75 -36 q 56 143 56 58 q 55 278 56 208 q 53 413 54 349 q 49 668 49 540 q 48 681 49 674 q 47 697 47 688 q 46 731 46 713 q 46 769 46 750 q 45 853 46 807 q 49 942 44 900 q 67 1018 54 985 q 107 1063 81 1051 q 202 1089 150 1081 q 308 1100 254 1097 q 415 1102 363 1103 q 510 1101 467 1101 q 590 1099 546 1101 q 679 1090 633 1096 q 769 1074 725 1083 q 847 1051 813 1065 q 865 992 860 1029 q 868 913 869 954 q 862 830 867 871 q 850 757 857 789 q 810 749 832 751 q 758 747 789 747 q 683 748 726 747 q 576 749 639 749 l 507 749 q 435 748 463 749 q 393 742 408 747 q 373 725 378 736 q 368 694 368 714 q 371 667 368 681 q 383 643 374 654 q 408 625 392 632 q 453 618 425 618 q 515 619 478 618 q 576 624 553 621 q 623 628 600 626 q 669 629 646 629 q 710 625 692 629 q 722 561 718 599 q 726 486 726 524 q 724 416 726 449 q 717 368 721 383 q 692 361 707 365 q 667 357 676 357 q 631 358 649 357 q 593 363 613 360 q 542 367 574 365 q 489 368 510 368 q 417 351 439 368 q 396 311 396 333 q 417 263 396 274 q 500 251 438 251 q 540 252 518 251 q 585 255 563 253 q 631 259 608 257 q 669 263 653 261 q 753 270 706 267 q 838 274 801 274 q 851 273 844 274 q 864 271 857 272 m 815 1214 q 728 1151 779 1178 q 629 1122 676 1125 q 594 1156 611 1138 q 561 1194 576 1175 q 519 1238 539 1219 q 476 1257 500 1257 q 441 1242 457 1257 q 406 1208 425 1228 q 353 1153 382 1182 q 290 1110 324 1125 q 194 1131 240 1111 q 125 1181 149 1150 l 125 1186 q 142 1237 125 1208 q 189 1295 160 1265 q 255 1354 218 1325 q 329 1406 292 1383 q 403 1443 367 1429 q 468 1457 440 1457 q 524 1445 492 1457 q 592 1414 557 1433 q 663 1369 628 1394 q 729 1317 699 1344 q 783 1263 760 1290 q 815 1214 806 1236 z "},"":{"ha":940,"x_min":44,"x_max":903,"o":"m 864 271 q 888 205 879 247 q 900 115 897 163 q 900 22 903 68 q 886 -54 897 -24 q 797 -77 847 -69 q 692 -88 746 -85 q 585 -92 638 -92 q 486 -93 532 -93 q 245 -87 332 -93 q 117 -59 158 -82 q 65 11 75 -36 q 56 143 56 58 q 55 278 56 208 q 53 413 54 349 q 49 668 49 540 q 48 681 49 674 q 47 697 47 688 q 46 731 46 713 q 46 769 46 750 q 45 853 46 807 q 49 942 44 900 q 67 1018 54 985 q 107 1063 81 1051 q 202 1089 150 1081 q 308 1100 254 1097 q 415 1102 363 1103 q 510 1101 467 1101 q 590 1099 546 1101 q 679 1090 633 1096 q 769 1074 725 1083 q 847 1051 813 1065 q 865 992 860 1029 q 868 913 869 954 q 862 830 867 871 q 850 757 857 789 q 810 749 832 751 q 758 747 789 747 q 683 748 726 747 q 576 749 639 749 l 507 749 q 435 748 463 749 q 393 742 408 747 q 373 725 378 736 q 368 694 368 714 q 371 667 368 681 q 383 643 374 654 q 408 625 392 632 q 453 618 425 618 q 515 619 478 618 q 576 624 553 621 q 623 628 600 626 q 669 629 646 629 q 710 625 692 629 q 722 561 718 599 q 726 486 726 524 q 724 416 726 449 q 717 368 721 383 q 692 361 707 365 q 667 357 676 357 q 631 358 649 357 q 593 363 613 360 q 542 367 574 365 q 489 368 510 368 q 417 351 439 368 q 396 311 396 333 q 417 263 396 274 q 500 251 438 251 q 540 252 518 251 q 585 255 563 253 q 631 259 608 257 q 669 263 653 261 q 753 270 706 267 q 838 274 801 274 q 851 273 844 274 q 864 271 857 272 m 646 1442 q 725 1427 694 1442 q 773 1390 756 1413 q 797 1340 790 1368 q 804 1285 804 1313 q 769 1174 804 1215 q 647 1132 733 1132 q 576 1144 606 1132 q 528 1177 546 1157 q 501 1222 510 1197 q 493 1272 493 1247 q 499 1331 493 1301 q 522 1386 506 1361 q 569 1426 539 1411 q 646 1442 599 1442 m 289 1425 q 363 1410 333 1425 q 412 1374 393 1396 q 439 1324 431 1351 q 447 1268 447 1296 q 408 1157 447 1199 q 276 1115 369 1115 q 203 1128 231 1115 q 160 1160 175 1140 q 141 1206 146 1181 q 136 1256 136 1231 q 143 1315 136 1285 q 167 1369 150 1344 q 215 1410 185 1394 q 289 1425 244 1425 z "},"":{"ha":629,"x_min":78,"x_max":582,"o":"m 97 1024 q 192 1044 129 1038 q 321 1050 254 1050 q 424 1046 376 1050 q 493 1031 471 1042 q 510 972 501 1017 q 526 861 518 926 q 540 715 533 796 q 553 549 547 635 q 563 380 558 464 q 572 224 568 296 q 578 97 576 151 q 582 15 581 42 q 571 -25 582 -8 q 459 -58 529 -47 q 313 -69 389 -69 q 210 -64 260 -69 q 118 -47 160 -58 q 103 -21 107 -33 q 95 42 99 -4 q 89 150 92 88 q 84 288 86 213 q 81 440 82 363 q 78 593 79 518 q 78 731 78 668 q 81 889 78 825 q 93 1010 83 953 q 97 1024 93 1018 m 93 1356 q 136 1428 104 1393 q 210 1486 168 1463 q 231 1489 224 1489 q 308 1456 269 1489 q 335 1428 322 1444 q 363 1392 349 1411 q 406 1343 383 1364 q 457 1301 429 1322 q 497 1269 475 1288 q 538 1229 519 1251 q 512 1168 528 1197 q 464 1122 496 1139 q 379 1143 424 1126 q 295 1181 335 1160 q 223 1226 256 1203 q 172 1263 190 1249 q 124 1306 147 1283 q 93 1356 101 1328 z "},"":{"ha":629,"x_min":78,"x_max":582,"o":"m 97 1024 q 192 1044 129 1038 q 321 1050 254 1050 q 424 1046 376 1050 q 493 1031 471 1042 q 510 972 501 1017 q 526 861 518 926 q 540 715 533 796 q 553 549 547 635 q 563 380 558 464 q 572 224 568 296 q 578 97 576 151 q 582 15 581 42 q 571 -25 582 -8 q 459 -58 529 -47 q 313 -69 389 -69 q 210 -64 260 -69 q 118 -47 160 -58 q 103 -21 107 -33 q 95 42 99 -4 q 89 150 92 88 q 84 288 86 213 q 81 440 82 363 q 78 593 79 518 q 78 731 78 668 q 81 889 78 825 q 93 1010 83 953 q 97 1024 93 1018 m 364 1485 q 464 1446 417 1475 q 539 1371 511 1417 q 510 1313 536 1339 q 454 1263 483 1286 q 402 1226 436 1249 q 326 1181 368 1203 q 239 1142 285 1160 q 151 1122 193 1125 q 104 1180 114 1150 q 90 1243 94 1210 q 126 1275 107 1260 q 161 1301 146 1290 q 213 1343 190 1322 q 257 1392 236 1364 q 286 1428 272 1411 q 313 1456 300 1444 q 364 1485 340 1476 z "},"":{"ha":629,"x_min":-32,"x_max":660,"o":"m 97 1024 q 192 1044 129 1038 q 321 1050 254 1050 q 424 1046 376 1050 q 493 1031 471 1042 q 510 972 501 1017 q 526 861 518 926 q 540 715 533 796 q 553 549 547 635 q 563 380 558 464 q 572 224 568 296 q 578 97 576 151 q 582 15 581 42 q 571 -25 582 -8 q 459 -58 529 -47 q 313 -69 389 -69 q 210 -64 260 -69 q 118 -47 160 -58 q 103 -21 107 -33 q 95 42 99 -4 q 89 150 92 88 q 84 288 86 213 q 81 440 82 363 q 78 593 79 518 q 78 731 78 668 q 81 889 78 825 q 93 1010 83 953 q 97 1024 93 1018 m 660 1214 q 572 1151 624 1178 q 474 1122 521 1125 q 438 1156 456 1138 q 406 1194 421 1175 q 364 1238 383 1219 q 321 1257 344 1257 q 285 1242 301 1257 q 250 1208 269 1228 q 197 1153 226 1182 q 135 1110 168 1125 q 39 1131 85 1111 q -31 1181 -7 1150 l -31 1186 q -13 1237 -31 1208 q 33 1295 4 1265 q 99 1354 63 1325 q 174 1406 136 1383 q 248 1443 211 1429 q 313 1457 285 1457 q 369 1445 336 1457 q 437 1414 401 1433 q 508 1369 472 1394 q 574 1317 543 1344 q 627 1263 604 1290 q 660 1214 650 1236 z "},"":{"ha":629,"x_min":-19,"x_max":650,"o":"m 97 1024 q 192 1044 129 1038 q 321 1050 254 1050 q 424 1046 376 1050 q 493 1031 471 1042 q 510 972 501 1017 q 526 861 518 926 q 540 715 533 796 q 553 549 547 635 q 563 380 558 464 q 572 224 568 296 q 578 97 576 151 q 582 15 581 42 q 571 -25 582 -8 q 459 -58 529 -47 q 313 -69 389 -69 q 210 -64 260 -69 q 118 -47 160 -58 q 103 -21 107 -33 q 95 42 99 -4 q 89 150 92 88 q 84 288 86 213 q 81 440 82 363 q 78 593 79 518 q 78 731 78 668 q 81 889 78 825 q 93 1010 83 953 q 97 1024 93 1018 m 490 1442 q 569 1427 539 1442 q 617 1390 600 1413 q 642 1340 635 1368 q 649 1285 649 1313 q 613 1174 649 1215 q 492 1132 578 1132 q 420 1144 450 1132 q 372 1177 390 1157 q 346 1222 354 1197 q 338 1272 338 1247 q 344 1331 338 1301 q 367 1386 350 1361 q 413 1426 383 1411 q 490 1442 443 1442 m 133 1425 q 208 1410 178 1425 q 256 1374 238 1396 q 283 1324 275 1351 q 292 1268 292 1296 q 253 1157 292 1199 q 121 1115 214 1115 q 47 1128 75 1115 q 5 1160 19 1140 q -15 1206 -10 1181 q -19 1256 -19 1231 q -12 1315 -19 1285 q 12 1369 -6 1344 q 59 1410 29 1394 q 133 1425 89 1425 z "},"":{"ha":942,"x_min":18,"x_max":908,"o":"m 133 861 q 140 924 133 890 q 159 990 146 957 q 192 1049 172 1022 q 238 1093 211 1076 q 249 1094 243 1094 q 260 1094 254 1094 q 292 1090 272 1094 q 332 1078 311 1085 q 376 1066 354 1071 q 429 1061 399 1061 q 476 1070 465 1061 q 492 1090 486 1079 q 503 1113 499 1101 q 531 1106 518 1114 q 554 1086 544 1097 q 549 1069 553 1075 q 543 1058 546 1063 q 536 1042 535 1050 q 549 1029 538 1033 q 715 950 647 993 q 826 847 783 907 q 889 704 869 786 q 908 508 908 622 q 884 297 908 394 q 805 128 860 200 q 663 17 750 57 q 451 -24 576 -24 q 257 -4 339 -24 q 122 60 175 15 q 43 177 68 106 q 18 353 18 249 q 40 459 18 406 q 101 556 61 513 q 197 627 140 600 q 322 654 253 654 q 486 657 425 654 q 547 685 547 660 q 530 715 547 701 q 488 736 513 728 q 435 749 463 744 q 385 754 407 754 q 349 737 361 754 q 325 708 336 719 q 276 747 292 717 q 285 764 278 760 q 298 781 292 774 q 304 789 304 788 q 290 794 303 789 q 258 808 276 800 q 221 823 240 815 q 186 835 201 831 q 158 844 171 839 q 133 861 144 850 m 567 314 q 561 351 567 332 q 542 384 556 369 q 505 408 528 399 q 449 418 482 418 q 353 391 381 418 q 325 329 325 364 q 360 270 325 294 q 450 246 394 246 q 536 263 506 246 q 567 314 567 279 z "}}}
